<svg width="569" height="306" viewBox="0 0 569 306" fill="none" xmlns="http://www.w3.org/2000/svg">
<path d="M139.475 6.5V24H137.65V15.925H126.7V24H124.85V6.5H126.7V14.3H137.65V6.5H139.475ZM148.587 8.1H142.437V6.5H156.587V8.1H150.437V24H148.587V8.1ZM169.761 24L164.111 16.3L158.486 24H156.361L163.011 15L156.786 6.5H158.911L164.186 13.65L169.436 6.5H171.436L165.236 14.95L171.911 24H169.761ZM193.685 24L189.685 18.375C189.235 18.425 188.768 18.45 188.285 18.45H183.585V24H181.735V6.5H188.285C190.518 6.5 192.268 7.03333 193.535 8.1C194.801 9.16667 195.435 10.6333 195.435 12.5C195.435 13.8667 195.085 15.025 194.385 15.975C193.701 16.9083 192.718 17.5833 191.435 18L195.71 24H193.685ZM188.235 16.875C189.968 16.875 191.293 16.4917 192.21 15.725C193.126 14.9583 193.585 13.8833 193.585 12.5C193.585 11.0833 193.126 10 192.21 9.25C191.293 8.48333 189.968 8.1 188.235 8.1H183.585V16.875H188.235ZM204.801 24.125C203.535 24.125 202.393 23.8417 201.376 23.275C200.36 22.6917 199.56 21.8917 198.976 20.875C198.393 19.8583 198.101 18.7083 198.101 17.425C198.101 16.1417 198.393 14.9917 198.976 13.975C199.56 12.9583 200.36 12.1667 201.376 11.6C202.393 11.0333 203.535 10.75 204.801 10.75C206.068 10.75 207.21 11.0333 208.226 11.6C209.243 12.1667 210.035 12.9583 210.601 13.975C211.185 14.9917 211.476 16.1417 211.476 17.425C211.476 18.7083 211.185 19.8583 210.601 20.875C210.035 21.8917 209.243 22.6917 208.226 23.275C207.21 23.8417 206.068 24.125 204.801 24.125ZM204.801 22.55C205.735 22.55 206.568 22.3417 207.301 21.925C208.051 21.4917 208.635 20.8833 209.051 20.1C209.468 19.3167 209.676 18.425 209.676 17.425C209.676 16.425 209.468 15.5333 209.051 14.75C208.635 13.9667 208.051 13.3667 207.301 12.95C206.568 12.5167 205.735 12.3 204.801 12.3C203.868 12.3 203.026 12.5167 202.276 12.95C201.543 13.3667 200.96 13.9667 200.526 14.75C200.11 15.5333 199.901 16.425 199.901 17.425C199.901 18.425 200.11 19.3167 200.526 20.1C200.96 20.8833 201.543 21.4917 202.276 21.925C203.026 22.3417 203.868 22.55 204.801 22.55ZM218.625 24.125C217.558 24.125 216.533 23.975 215.55 23.675C214.583 23.3583 213.825 22.9667 213.275 22.5L214.075 21.1C214.625 21.5333 215.317 21.8917 216.15 22.175C216.983 22.4417 217.85 22.575 218.75 22.575C219.95 22.575 220.833 22.3917 221.4 22.025C221.983 21.6417 222.275 21.1083 222.275 20.425C222.275 19.9417 222.117 19.5667 221.8 19.3C221.483 19.0167 221.083 18.8083 220.6 18.675C220.117 18.525 219.475 18.3833 218.675 18.25C217.608 18.05 216.75 17.85 216.1 17.65C215.45 17.4333 214.892 17.075 214.425 16.575C213.975 16.075 213.75 15.3833 213.75 14.5C213.75 13.4 214.208 12.5 215.125 11.8C216.042 11.1 217.317 10.75 218.95 10.75C219.8 10.75 220.65 10.8667 221.5 11.1C222.35 11.3167 223.05 11.6083 223.6 11.975L222.825 13.4C221.742 12.65 220.45 12.275 218.95 12.275C217.817 12.275 216.958 12.475 216.375 12.875C215.808 13.275 215.525 13.8 215.525 14.45C215.525 14.95 215.683 15.35 216 15.65C216.333 15.95 216.742 16.175 217.225 16.325C217.708 16.4583 218.375 16.6 219.225 16.75C220.275 16.95 221.117 17.15 221.75 17.35C222.383 17.55 222.925 17.8917 223.375 18.375C223.825 18.8583 224.05 19.525 224.05 20.375C224.05 21.525 223.567 22.4417 222.6 23.125C221.65 23.7917 220.325 24.125 218.625 24.125ZM232.206 17.4L229.106 20.25V24H227.331V5.45H229.106V18.025L236.956 10.85H239.156L233.531 16.225L239.681 24H237.506L232.206 17.4ZM242.151 10.85H243.926V24H242.151V10.85ZM243.051 7.975C242.684 7.975 242.376 7.85 242.126 7.6C241.876 7.35 241.751 7.05 241.751 6.7C241.751 6.36667 241.876 6.075 242.126 5.825C242.376 5.575 242.684 5.45 243.051 5.45C243.417 5.45 243.726 5.575 243.976 5.825C244.226 6.05833 244.351 6.34167 244.351 6.675C244.351 7.04167 244.226 7.35 243.976 7.6C243.726 7.85 243.417 7.975 243.051 7.975ZM248.865 5.45H250.64V24H248.865V5.45ZM267.579 5.45V24H265.879V21.4C265.345 22.2833 264.637 22.9583 263.754 23.425C262.887 23.8917 261.904 24.125 260.804 24.125C259.57 24.125 258.454 23.8417 257.454 23.275C256.454 22.7083 255.67 21.9167 255.104 20.9C254.537 19.8833 254.254 18.725 254.254 17.425C254.254 16.125 254.537 14.9667 255.104 13.95C255.67 12.9333 256.454 12.15 257.454 11.6C258.454 11.0333 259.57 10.75 260.804 10.75C261.87 10.75 262.829 10.975 263.679 11.425C264.545 11.8583 265.254 12.5 265.804 13.35V5.45H267.579ZM260.954 22.55C261.87 22.55 262.695 22.3417 263.429 21.925C264.179 21.4917 264.762 20.8833 265.179 20.1C265.612 19.3167 265.829 18.425 265.829 17.425C265.829 16.425 265.612 15.5333 265.179 14.75C264.762 13.9667 264.179 13.3667 263.429 12.95C262.695 12.5167 261.87 12.3 260.954 12.3C260.02 12.3 259.179 12.5167 258.429 12.95C257.695 13.3667 257.112 13.9667 256.679 14.75C256.262 15.5333 256.054 16.425 256.054 17.425C256.054 18.425 256.262 19.3167 256.679 20.1C257.112 20.8833 257.695 21.4917 258.429 21.925C259.179 22.3417 260.02 22.55 260.954 22.55ZM283.972 17.975H272.972C273.072 19.3417 273.597 20.45 274.547 21.3C275.497 22.1333 276.697 22.55 278.147 22.55C278.964 22.55 279.714 22.4083 280.397 22.125C281.08 21.825 281.672 21.3917 282.172 20.825L283.172 21.975C282.589 22.675 281.855 23.2083 280.972 23.575C280.105 23.9417 279.147 24.125 278.097 24.125C276.747 24.125 275.547 23.8417 274.497 23.275C273.464 22.6917 272.655 21.8917 272.072 20.875C271.489 19.8583 271.197 18.7083 271.197 17.425C271.197 16.1417 271.472 14.9917 272.022 13.975C272.589 12.9583 273.355 12.1667 274.322 11.6C275.305 11.0333 276.405 10.75 277.622 10.75C278.839 10.75 279.93 11.0333 280.897 11.6C281.864 12.1667 282.622 12.9583 283.172 13.975C283.722 14.975 283.997 16.125 283.997 17.425L283.972 17.975ZM277.622 12.275C276.355 12.275 275.289 12.6833 274.422 13.5C273.572 14.3 273.089 15.35 272.972 16.65H282.297C282.18 15.35 281.689 14.3 280.822 13.5C279.972 12.6833 278.905 12.275 277.622 12.275Z" fill="white"/>
<path d="M47.589 33.9968V36H32.2207V34.4037L41.329 25.4832C42.4767 24.3564 43.2487 23.3861 43.6452 22.5723C44.0625 21.7376 44.2712 20.903 44.2712 20.0683C44.2712 18.7746 43.8226 17.773 42.9253 17.0635C42.0489 16.3332 40.7865 15.968 39.138 15.968C36.5714 15.968 34.5786 16.7818 33.1597 18.4094L31.5634 17.0322C32.4189 16.0306 33.504 15.2585 34.8186 14.716C36.1541 14.1735 37.6565 13.9022 39.3258 13.9022C41.5585 13.9022 43.3218 14.4343 44.6155 15.4985C45.9301 16.5418 46.5874 17.9816 46.5874 19.8179C46.5874 20.9447 46.337 22.0298 45.8362 23.0731C45.3354 24.1164 44.386 25.3163 42.9879 26.6726L35.5385 33.9968H47.589ZM59.0277 36.1878C57.3375 36.1878 55.8246 35.7392 54.4892 34.8419C53.1746 33.9446 52.1417 32.6613 51.3905 30.992C50.6601 29.3018 50.295 27.3195 50.295 25.045C50.295 22.7705 50.6601 20.7986 51.3905 19.1293C52.1417 17.4391 53.1746 16.1454 54.4892 15.2481C55.8246 14.3508 57.3375 13.9022 59.0277 13.9022C60.7179 13.9022 62.2203 14.3508 63.5349 15.2481C64.8704 16.1454 65.9137 17.4391 66.6649 19.1293C67.4161 20.7986 67.7917 22.7705 67.7917 25.045C67.7917 27.3195 67.4161 29.3018 66.6649 30.992C65.9137 32.6613 64.8704 33.9446 63.5349 34.8419C62.2203 35.7392 60.7179 36.1878 59.0277 36.1878ZM59.0277 34.122C60.3006 34.122 61.4169 33.7673 62.3768 33.0578C63.3575 32.3483 64.1192 31.3154 64.6617 29.9591C65.2042 28.6028 65.4755 26.9647 65.4755 25.045C65.4755 23.1253 65.2042 21.4872 64.6617 20.1309C64.1192 18.7746 63.3575 17.7417 62.3768 17.0322C61.4169 16.3227 60.3006 15.968 59.0277 15.968C57.7548 15.968 56.628 16.3227 55.6473 17.0322C54.6874 17.7417 53.9362 18.7746 53.3937 20.1309C52.8511 21.4872 52.5799 23.1253 52.5799 25.045C52.5799 26.9647 52.8511 28.6028 53.3937 29.9591C53.9362 31.3154 54.6874 32.3483 55.6473 33.0578C56.628 33.7673 57.7548 34.122 59.0277 34.122ZM77.0301 14.09V36H74.7765V16.0932H69.612V14.09H77.0301ZM100.891 30.2408H96.5089V36H94.2553V30.2408H81.8918V28.6132L93.5041 14.09H96.0081L84.8027 28.2376H94.3179V23.167H96.5089V28.2376H100.891V30.2408Z" fill="white"/>
<path d="M47.589 295.997V298H32.2207V296.404L41.329 287.483C42.4767 286.356 43.2487 285.386 43.6452 284.572C44.0625 283.738 44.2712 282.903 44.2712 282.068C44.2712 280.775 43.8226 279.773 42.9253 279.063C42.0489 278.333 40.7865 277.968 39.138 277.968C36.5714 277.968 34.5786 278.782 33.1597 280.409L31.5634 279.032C32.4189 278.031 33.504 277.259 34.8186 276.716C36.1541 276.173 37.6565 275.902 39.3258 275.902C41.5585 275.902 43.3218 276.434 44.6155 277.498C45.9301 278.542 46.5874 279.982 46.5874 281.818C46.5874 282.945 46.337 284.03 45.8362 285.073C45.3354 286.116 44.386 287.316 42.9879 288.673L35.5385 295.997H47.589ZM59.0277 298.188C57.3375 298.188 55.8246 297.739 54.4892 296.842C53.1746 295.945 52.1417 294.661 51.3905 292.992C50.6601 291.302 50.295 289.319 50.295 287.045C50.295 284.771 50.6601 282.799 51.3905 281.129C52.1417 279.439 53.1746 278.145 54.4892 277.248C55.8246 276.351 57.3375 275.902 59.0277 275.902C60.7179 275.902 62.2203 276.351 63.5349 277.248C64.8704 278.145 65.9137 279.439 66.6649 281.129C67.4161 282.799 67.7917 284.771 67.7917 287.045C67.7917 289.319 67.4161 291.302 66.6649 292.992C65.9137 294.661 64.8704 295.945 63.5349 296.842C62.2203 297.739 60.7179 298.188 59.0277 298.188ZM59.0277 296.122C60.3006 296.122 61.4169 295.767 62.3768 295.058C63.3575 294.348 64.1192 293.315 64.6617 291.959C65.2042 290.603 65.4755 288.965 65.4755 287.045C65.4755 285.125 65.2042 283.487 64.6617 282.131C64.1192 280.775 63.3575 279.742 62.3768 279.032C61.4169 278.323 60.3006 277.968 59.0277 277.968C57.7548 277.968 56.628 278.323 55.6473 279.032C54.6874 279.742 53.9362 280.775 53.3937 282.131C52.8511 283.487 52.5799 285.125 52.5799 287.045C52.5799 288.965 52.8511 290.603 53.3937 291.959C53.9362 293.315 54.6874 294.348 55.6473 295.058C56.628 295.767 57.7548 296.122 59.0277 296.122ZM85.9193 295.997V298H70.551V296.404L79.6593 287.483C80.8069 286.356 81.579 285.386 81.9755 284.572C82.3928 283.738 82.6015 282.903 82.6015 282.068C82.6015 280.775 82.1528 279.773 81.2556 279.063C80.3792 278.333 79.1167 277.968 77.4683 277.968C74.9017 277.968 72.9089 278.782 71.49 280.409L69.8937 279.032C70.7492 278.031 71.8343 277.259 73.1489 276.716C74.4843 276.173 75.9867 275.902 77.6561 275.902C79.8888 275.902 81.652 276.434 82.9458 277.498C84.2604 278.542 84.9177 279.982 84.9177 281.818C84.9177 282.945 84.6673 284.03 84.1665 285.073C83.6657 286.116 82.7162 287.316 81.3182 288.673L73.8688 295.997H85.9193ZM97.358 298.188C95.6678 298.188 94.1549 297.739 92.8195 296.842C91.5049 295.945 90.472 294.661 89.7208 292.992C88.9904 291.302 88.6253 289.319 88.6253 287.045C88.6253 284.771 88.9904 282.799 89.7208 281.129C90.472 279.439 91.5049 278.145 92.8195 277.248C94.1549 276.351 95.6678 275.902 97.358 275.902C99.0482 275.902 100.551 276.351 101.865 277.248C103.201 278.145 104.244 279.439 104.995 281.129C105.746 282.799 106.122 284.771 106.122 287.045C106.122 289.319 105.746 291.302 104.995 292.992C104.244 294.661 103.201 295.945 101.865 296.842C100.551 297.739 99.0482 298.188 97.358 298.188ZM97.358 296.122C98.6308 296.122 99.7472 295.767 100.707 295.058C101.688 294.348 102.449 293.315 102.992 291.959C103.534 290.603 103.806 288.965 103.806 287.045C103.806 285.125 103.534 283.487 102.992 282.131C102.449 280.775 101.688 279.742 100.707 279.032C99.7472 278.323 98.6308 277.968 97.358 277.968C96.0851 277.968 94.9583 278.323 93.9776 279.032C93.0177 279.742 92.2665 280.775 91.724 282.131C91.1814 283.487 90.9102 285.125 90.9102 287.045C90.9102 288.965 91.1814 290.603 91.724 291.959C92.2665 293.315 93.0177 294.348 93.9776 295.058C94.9583 295.767 96.0851 296.122 97.358 296.122Z" fill="white"/>
<path d="M47.589 164.997V167H32.2207V165.404L41.329 156.483C42.4767 155.356 43.2487 154.386 43.6452 153.572C44.0625 152.738 44.2712 151.903 44.2712 151.068C44.2712 149.775 43.8226 148.773 42.9253 148.063C42.0489 147.333 40.7865 146.968 39.138 146.968C36.5714 146.968 34.5786 147.782 33.1597 149.409L31.5634 148.032C32.4189 147.031 33.504 146.259 34.8186 145.716C36.1541 145.173 37.6565 144.902 39.3258 144.902C41.5585 144.902 43.3218 145.434 44.6155 146.498C45.9301 147.542 46.5874 148.982 46.5874 150.818C46.5874 151.945 46.337 153.03 45.8362 154.073C45.3354 155.116 44.386 156.316 42.9879 157.673L35.5385 164.997H47.589ZM59.0277 167.188C57.3375 167.188 55.8246 166.739 54.4892 165.842C53.1746 164.945 52.1417 163.661 51.3905 161.992C50.6601 160.302 50.295 158.319 50.295 156.045C50.295 153.771 50.6601 151.799 51.3905 150.129C52.1417 148.439 53.1746 147.145 54.4892 146.248C55.8246 145.351 57.3375 144.902 59.0277 144.902C60.7179 144.902 62.2203 145.351 63.5349 146.248C64.8704 147.145 65.9137 148.439 66.6649 150.129C67.4161 151.799 67.7917 153.771 67.7917 156.045C67.7917 158.319 67.4161 160.302 66.6649 161.992C65.9137 163.661 64.8704 164.945 63.5349 165.842C62.2203 166.739 60.7179 167.188 59.0277 167.188ZM59.0277 165.122C60.3006 165.122 61.4169 164.767 62.3768 164.058C63.3575 163.348 64.1192 162.315 64.6617 160.959C65.2042 159.603 65.4755 157.965 65.4755 156.045C65.4755 154.125 65.2042 152.487 64.6617 151.131C64.1192 149.775 63.3575 148.742 62.3768 148.032C61.4169 147.323 60.3006 146.968 59.0277 146.968C57.7548 146.968 56.628 147.323 55.6473 148.032C54.6874 148.742 53.9362 149.775 53.3937 151.131C52.8511 152.487 52.5799 154.125 52.5799 156.045C52.5799 157.965 52.8511 159.603 53.3937 160.959C53.9362 162.315 54.6874 163.348 55.6473 164.058C56.628 164.767 57.7548 165.122 59.0277 165.122ZM77.0301 145.09V167H74.7765V147.093H69.612V145.09H77.0301ZM97.7296 145.09V146.686L88.5587 167H86.1173L95.1317 147.093H83.8637V151.194H81.6414V145.09H97.7296Z" fill="white"/>
<path d="M128.688 46.096C127.579 46.096 126.576 45.8507 125.68 45.36C124.795 44.8693 124.096 44.192 123.584 43.328C123.083 42.4533 122.832 41.4773 122.832 40.4C122.832 39.3227 123.083 38.352 123.584 37.488C124.096 36.6133 124.8 35.9307 125.696 35.44C126.592 34.9493 127.595 34.704 128.704 34.704C129.536 34.704 130.304 34.8427 131.008 35.12C131.712 35.3973 132.309 35.8027 132.8 36.336L132.048 37.088C131.173 36.2027 130.069 35.76 128.736 35.76C127.851 35.76 127.045 35.9627 126.32 36.368C125.595 36.7733 125.024 37.328 124.608 38.032C124.203 38.736 124 39.5253 124 40.4C124 41.2747 124.203 42.064 124.608 42.768C125.024 43.472 125.595 44.0267 126.32 44.432C127.045 44.8373 127.851 45.04 128.736 45.04C130.08 45.04 131.184 44.592 132.048 43.696L132.8 44.448C132.309 44.9813 131.707 45.392 130.992 45.68C130.288 45.9573 129.52 46.096 128.688 46.096ZM138.149 46.08C137.338 46.08 136.608 45.8987 135.957 45.536C135.306 45.1627 134.794 44.6507 134.421 44C134.048 43.3493 133.861 42.6133 133.861 41.792C133.861 40.9707 134.048 40.2347 134.421 39.584C134.794 38.9333 135.306 38.4267 135.957 38.064C136.608 37.7013 137.338 37.52 138.149 37.52C138.96 37.52 139.69 37.7013 140.341 38.064C140.992 38.4267 141.498 38.9333 141.861 39.584C142.234 40.2347 142.421 40.9707 142.421 41.792C142.421 42.6133 142.234 43.3493 141.861 44C141.498 44.6507 140.992 45.1627 140.341 45.536C139.69 45.8987 138.96 46.08 138.149 46.08ZM138.149 45.072C138.746 45.072 139.28 44.9387 139.749 44.672C140.229 44.3947 140.602 44.0053 140.869 43.504C141.136 43.0027 141.269 42.432 141.269 41.792C141.269 41.152 141.136 40.5813 140.869 40.08C140.602 39.5787 140.229 39.1947 139.749 38.928C139.28 38.6507 138.746 38.512 138.149 38.512C137.552 38.512 137.013 38.6507 136.533 38.928C136.064 39.1947 135.69 39.5787 135.413 40.08C135.146 40.5813 135.013 41.152 135.013 41.792C135.013 42.432 135.146 43.0027 135.413 43.504C135.69 44.0053 136.064 44.3947 136.533 44.672C137.013 44.9387 137.552 45.072 138.149 45.072ZM155.236 37.52C156.292 37.52 157.119 37.824 157.716 38.432C158.324 39.04 158.628 39.936 158.628 41.12V46H157.492V41.232C157.492 40.3573 157.279 39.6907 156.852 39.232C156.436 38.7733 155.844 38.544 155.076 38.544C154.202 38.544 153.514 38.816 153.012 39.36C152.511 39.8933 152.26 40.6347 152.26 41.584V46H151.124V41.232C151.124 40.3573 150.911 39.6907 150.484 39.232C150.068 38.7733 149.471 38.544 148.692 38.544C147.828 38.544 147.14 38.816 146.628 39.36C146.127 39.8933 145.876 40.6347 145.876 41.584V46H144.74V37.584H145.828V39.12C146.127 38.608 146.543 38.2133 147.076 37.936C147.61 37.6587 148.223 37.52 148.916 37.52C149.62 37.52 150.228 37.6693 150.74 37.968C151.263 38.2667 151.652 38.7093 151.908 39.296C152.218 38.7413 152.66 38.3093 153.236 38C153.823 37.68 154.49 37.52 155.236 37.52ZM172.205 37.52C173.261 37.52 174.088 37.824 174.685 38.432C175.293 39.04 175.597 39.936 175.597 41.12V46H174.461V41.232C174.461 40.3573 174.248 39.6907 173.821 39.232C173.405 38.7733 172.813 38.544 172.045 38.544C171.17 38.544 170.482 38.816 169.981 39.36C169.48 39.8933 169.229 40.6347 169.229 41.584V46H168.093V41.232C168.093 40.3573 167.88 39.6907 167.453 39.232C167.037 38.7733 166.44 38.544 165.661 38.544C164.797 38.544 164.109 38.816 163.597 39.36C163.096 39.8933 162.845 40.6347 162.845 41.584V46H161.709V37.584H162.797V39.12C163.096 38.608 163.512 38.2133 164.045 37.936C164.578 37.6587 165.192 37.52 165.885 37.52C166.589 37.52 167.197 37.6693 167.709 37.968C168.232 38.2667 168.621 38.7093 168.877 39.296C169.186 38.7413 169.629 38.3093 170.205 38C170.792 37.68 171.458 37.52 172.205 37.52ZM186.262 37.584V46H185.174V44.464C184.875 44.976 184.464 45.376 183.942 45.664C183.419 45.9413 182.822 46.08 182.15 46.08C181.051 46.08 180.182 45.776 179.542 45.168C178.912 44.5493 178.598 43.648 178.598 42.464V37.584H179.734V42.352C179.734 43.2373 179.952 43.9093 180.39 44.368C180.827 44.8267 181.451 45.056 182.262 45.056C183.147 45.056 183.846 44.7893 184.358 44.256C184.87 43.712 185.126 42.96 185.126 42V37.584H186.262ZM193.731 37.52C194.787 37.52 195.625 37.8293 196.243 38.448C196.873 39.056 197.187 39.9467 197.187 41.12V46H196.051V41.232C196.051 40.3573 195.833 39.6907 195.395 39.232C194.958 38.7733 194.334 38.544 193.523 38.544C192.617 38.544 191.897 38.816 191.363 39.36C190.841 39.8933 190.579 40.6347 190.579 41.584V46H189.443V37.584H190.531V39.136C190.841 38.624 191.267 38.2293 191.811 37.952C192.366 37.664 193.006 37.52 193.731 37.52ZM200.272 37.584H201.408V46H200.272V37.584ZM200.848 35.744C200.613 35.744 200.416 35.664 200.256 35.504C200.096 35.344 200.016 35.152 200.016 34.928C200.016 34.7147 200.096 34.528 200.256 34.368C200.416 34.208 200.613 34.128 200.848 34.128C201.082 34.128 201.28 34.208 201.44 34.368C201.6 34.5173 201.68 34.6987 201.68 34.912C201.68 35.1467 201.6 35.344 201.44 35.504C201.28 35.664 201.082 35.744 200.848 35.744ZM208.056 46.08C207.224 46.08 206.478 45.8987 205.816 45.536C205.166 45.1733 204.654 44.6667 204.28 44.016C203.907 43.3547 203.72 42.6133 203.72 41.792C203.72 40.9707 203.907 40.2347 204.28 39.584C204.654 38.9333 205.166 38.4267 205.816 38.064C206.478 37.7013 207.224 37.52 208.056 37.52C208.782 37.52 209.427 37.664 209.992 37.952C210.568 38.2293 211.022 38.64 211.352 39.184L210.504 39.76C210.227 39.344 209.875 39.0347 209.448 38.832C209.022 38.6187 208.558 38.512 208.056 38.512C207.448 38.512 206.899 38.6507 206.408 38.928C205.928 39.1947 205.55 39.5787 205.272 40.08C205.006 40.5813 204.872 41.152 204.872 41.792C204.872 42.4427 205.006 43.0187 205.272 43.52C205.55 44.0107 205.928 44.3947 206.408 44.672C206.899 44.9387 207.448 45.072 208.056 45.072C208.558 45.072 209.022 44.9707 209.448 44.768C209.875 44.5653 210.227 44.256 210.504 43.84L211.352 44.416C211.022 44.96 210.568 45.376 209.992 45.664C209.416 45.9413 208.771 46.08 208.056 46.08ZM216.528 37.52C217.627 37.52 218.469 37.7973 219.056 38.352C219.643 38.896 219.936 39.7067 219.936 40.784V46H218.848V44.688C218.592 45.1253 218.213 45.4667 217.712 45.712C217.221 45.9573 216.635 46.08 215.952 46.08C215.013 46.08 214.267 45.856 213.712 45.408C213.157 44.96 212.88 44.368 212.88 43.632C212.88 42.9173 213.136 42.3413 213.648 41.904C214.171 41.4667 214.997 41.248 216.128 41.248H218.8V40.736C218.8 40.0107 218.597 39.4613 218.192 39.088C217.787 38.704 217.195 38.512 216.416 38.512C215.883 38.512 215.371 38.6027 214.88 38.784C214.389 38.9547 213.968 39.1947 213.616 39.504L213.104 38.656C213.531 38.2933 214.043 38.016 214.64 37.824C215.237 37.6213 215.867 37.52 216.528 37.52ZM216.128 45.184C216.768 45.184 217.317 45.04 217.776 44.752C218.235 44.4533 218.576 44.0267 218.8 43.472V42.096H216.16C214.72 42.096 214 42.5973 214 43.6C214 44.0907 214.187 44.48 214.56 44.768C214.933 45.0453 215.456 45.184 216.128 45.184ZM227.454 45.488C227.24 45.68 226.974 45.8293 226.654 45.936C226.344 46.032 226.019 46.08 225.678 46.08C224.888 46.08 224.28 45.8667 223.854 45.44C223.427 45.0133 223.214 44.4107 223.214 43.632V38.544H221.71V37.584H223.214V35.744H224.35V37.584H226.91V38.544H224.35V43.568C224.35 44.0693 224.472 44.4533 224.718 44.72C224.974 44.976 225.336 45.104 225.806 45.104C226.04 45.104 226.264 45.0667 226.478 44.992C226.702 44.9173 226.894 44.8107 227.054 44.672L227.454 45.488ZM229.522 37.584H230.658V46H229.522V37.584ZM230.098 35.744C229.863 35.744 229.666 35.664 229.506 35.504C229.346 35.344 229.266 35.152 229.266 34.928C229.266 34.7147 229.346 34.528 229.506 34.368C229.666 34.208 229.863 34.128 230.098 34.128C230.332 34.128 230.53 34.208 230.69 34.368C230.85 34.5173 230.93 34.6987 230.93 34.912C230.93 35.1467 230.85 35.344 230.69 35.504C230.53 35.664 230.332 35.744 230.098 35.744ZM237.258 46.08C236.448 46.08 235.717 45.8987 235.066 45.536C234.416 45.1627 233.904 44.6507 233.53 44C233.157 43.3493 232.97 42.6133 232.97 41.792C232.97 40.9707 233.157 40.2347 233.53 39.584C233.904 38.9333 234.416 38.4267 235.066 38.064C235.717 37.7013 236.448 37.52 237.258 37.52C238.069 37.52 238.8 37.7013 239.45 38.064C240.101 38.4267 240.608 38.9333 240.97 39.584C241.344 40.2347 241.53 40.9707 241.53 41.792C241.53 42.6133 241.344 43.3493 240.97 44C240.608 44.6507 240.101 45.1627 239.45 45.536C238.8 45.8987 238.069 46.08 237.258 46.08ZM237.258 45.072C237.856 45.072 238.389 44.9387 238.858 44.672C239.338 44.3947 239.712 44.0053 239.978 43.504C240.245 43.0027 240.378 42.432 240.378 41.792C240.378 41.152 240.245 40.5813 239.978 40.08C239.712 39.5787 239.338 39.1947 238.858 38.928C238.389 38.6507 237.856 38.512 237.258 38.512C236.661 38.512 236.122 38.6507 235.642 38.928C235.173 39.1947 234.8 39.5787 234.522 40.08C234.256 40.5813 234.122 41.152 234.122 41.792C234.122 42.432 234.256 43.0027 234.522 43.504C234.8 44.0053 235.173 44.3947 235.642 44.672C236.122 44.9387 236.661 45.072 237.258 45.072ZM248.138 37.52C249.194 37.52 250.031 37.8293 250.65 38.448C251.279 39.056 251.594 39.9467 251.594 41.12V46H250.458V41.232C250.458 40.3573 250.239 39.6907 249.802 39.232C249.364 38.7733 248.74 38.544 247.93 38.544C247.023 38.544 246.303 38.816 245.77 39.36C245.247 39.8933 244.986 40.6347 244.986 41.584V46H243.85V37.584H244.938V39.136C245.247 38.624 245.674 38.2293 246.218 37.952C246.772 37.664 247.412 37.52 248.138 37.52ZM257.974 32.528H259.014L253.734 47.6H252.694L257.974 32.528ZM260.277 34.8H261.461V46H260.277V34.8ZM267.281 35.824H263.345V34.8H272.401V35.824H268.465V46H267.281V35.824ZM273.681 44.336C273.926 44.336 274.129 44.4213 274.289 44.592C274.449 44.752 274.529 44.9547 274.529 45.2C274.529 45.328 274.507 45.4667 274.465 45.616C274.433 45.7653 274.379 45.936 274.305 46.128L273.633 48.336H272.865L273.409 46.016C273.238 45.9627 273.099 45.8667 272.993 45.728C272.886 45.5787 272.833 45.4027 272.833 45.2C272.833 44.9547 272.913 44.752 273.073 44.592C273.233 44.4213 273.435 44.336 273.681 44.336ZM281.371 34.8H285.931C287.115 34.8 288.16 35.04 289.067 35.52C289.974 35.9893 290.678 36.6507 291.179 37.504C291.68 38.3467 291.931 39.312 291.931 40.4C291.931 41.488 291.68 42.4587 291.179 43.312C290.678 44.1547 289.974 44.816 289.067 45.296C288.16 45.7653 287.115 46 285.931 46H281.371V34.8ZM285.867 44.976C286.848 44.976 287.707 44.784 288.443 44.4C289.179 44.0053 289.75 43.4667 290.155 42.784C290.56 42.0907 290.763 41.296 290.763 40.4C290.763 39.504 290.56 38.7147 290.155 38.032C289.75 37.3387 289.179 36.8 288.443 36.416C287.707 36.0213 286.848 35.824 285.867 35.824H282.555V44.976H285.867ZM301.678 42.144H294.638C294.702 43.0187 295.038 43.728 295.646 44.272C296.254 44.8053 297.022 45.072 297.95 45.072C298.472 45.072 298.952 44.9813 299.39 44.8C299.827 44.608 300.206 44.3307 300.526 43.968L301.166 44.704C300.792 45.152 300.323 45.4933 299.758 45.728C299.203 45.9627 298.59 46.08 297.918 46.08C297.054 46.08 296.286 45.8987 295.614 45.536C294.952 45.1627 294.435 44.6507 294.062 44C293.688 43.3493 293.502 42.6133 293.502 41.792C293.502 40.9707 293.678 40.2347 294.03 39.584C294.392 38.9333 294.883 38.4267 295.502 38.064C296.131 37.7013 296.835 37.52 297.614 37.52C298.392 37.52 299.091 37.7013 299.71 38.064C300.328 38.4267 300.814 38.9333 301.166 39.584C301.518 40.224 301.694 40.96 301.694 41.792L301.678 42.144ZM297.614 38.496C296.803 38.496 296.12 38.7573 295.566 39.28C295.022 39.792 294.712 40.464 294.638 41.296H300.606C300.531 40.464 300.216 39.792 299.662 39.28C299.118 38.7573 298.435 38.496 297.614 38.496ZM306.262 46.08C305.579 46.08 304.923 45.984 304.294 45.792C303.675 45.5893 303.19 45.3387 302.838 45.04L303.35 44.144C303.702 44.4213 304.145 44.6507 304.678 44.832C305.211 45.0027 305.766 45.088 306.342 45.088C307.11 45.088 307.675 44.9707 308.038 44.736C308.411 44.4907 308.598 44.1493 308.598 43.712C308.598 43.4027 308.497 43.1627 308.294 42.992C308.091 42.8107 307.835 42.6773 307.526 42.592C307.217 42.496 306.806 42.4053 306.294 42.32C305.611 42.192 305.062 42.064 304.646 41.936C304.23 41.7973 303.873 41.568 303.574 41.248C303.286 40.928 303.142 40.4853 303.142 39.92C303.142 39.216 303.435 38.64 304.022 38.192C304.609 37.744 305.425 37.52 306.47 37.52C307.014 37.52 307.558 37.5947 308.102 37.744C308.646 37.8827 309.094 38.0693 309.446 38.304L308.95 39.216C308.257 38.736 307.43 38.496 306.47 38.496C305.745 38.496 305.195 38.624 304.822 38.88C304.459 39.136 304.278 39.472 304.278 39.888C304.278 40.208 304.379 40.464 304.582 40.656C304.795 40.848 305.057 40.992 305.366 41.088C305.675 41.1733 306.102 41.264 306.646 41.36C307.318 41.488 307.857 41.616 308.262 41.744C308.667 41.872 309.014 42.0907 309.302 42.4C309.59 42.7093 309.734 43.136 309.734 43.68C309.734 44.416 309.425 45.0027 308.806 45.44C308.198 45.8667 307.35 46.08 306.262 46.08ZM311.834 37.584H312.97V46H311.834V37.584ZM312.41 35.744C312.175 35.744 311.978 35.664 311.818 35.504C311.658 35.344 311.578 35.152 311.578 34.928C311.578 34.7147 311.658 34.528 311.818 34.368C311.978 34.208 312.175 34.128 312.41 34.128C312.645 34.128 312.842 34.208 313.002 34.368C313.162 34.5173 313.242 34.6987 313.242 34.912C313.242 35.1467 313.162 35.344 313.002 35.504C312.842 35.664 312.645 35.744 312.41 35.744ZM323.923 37.584V44.976C323.923 46.4053 323.571 47.4613 322.867 48.144C322.174 48.8373 321.123 49.184 319.715 49.184C318.936 49.184 318.195 49.0667 317.491 48.832C316.798 48.608 316.232 48.2933 315.795 47.888L316.371 47.024C316.776 47.3867 317.267 47.6693 317.843 47.872C318.43 48.0747 319.043 48.176 319.683 48.176C320.75 48.176 321.534 47.9253 322.035 47.424C322.536 46.9333 322.787 46.1653 322.787 45.12V44.048C322.435 44.5813 321.971 44.9867 321.395 45.264C320.83 45.5413 320.2 45.68 319.507 45.68C318.718 45.68 317.998 45.5093 317.347 45.168C316.707 44.816 316.2 44.3307 315.827 43.712C315.464 43.0827 315.283 42.3733 315.283 41.584C315.283 40.7947 315.464 40.0907 315.827 39.472C316.2 38.8533 316.707 38.3733 317.347 38.032C317.987 37.6907 318.707 37.52 319.507 37.52C320.222 37.52 320.867 37.664 321.443 37.952C322.019 38.24 322.483 38.656 322.835 39.2V37.584H323.923ZM319.619 44.672C320.227 44.672 320.776 44.544 321.267 44.288C321.758 44.0213 322.136 43.6533 322.403 43.184C322.68 42.7147 322.819 42.1813 322.819 41.584C322.819 40.9867 322.68 40.4587 322.403 40C322.136 39.5307 321.758 39.168 321.267 38.912C320.787 38.6453 320.238 38.512 319.619 38.512C319.011 38.512 318.462 38.64 317.971 38.896C317.491 39.152 317.112 39.5147 316.835 39.984C316.568 40.4533 316.435 40.9867 316.435 41.584C316.435 42.1813 316.568 42.7147 316.835 43.184C317.112 43.6533 317.491 44.0213 317.971 44.288C318.462 44.544 319.011 44.672 319.619 44.672ZM331.388 37.52C332.444 37.52 333.281 37.8293 333.9 38.448C334.529 39.056 334.844 39.9467 334.844 41.12V46H333.708V41.232C333.708 40.3573 333.489 39.6907 333.052 39.232C332.614 38.7733 331.99 38.544 331.18 38.544C330.273 38.544 329.553 38.816 329.02 39.36C328.497 39.8933 328.236 40.6347 328.236 41.584V46H327.1V37.584H328.188V39.136C328.497 38.624 328.924 38.2293 329.468 37.952C330.022 37.664 330.662 37.52 331.388 37.52ZM338.056 44.336C338.301 44.336 338.504 44.4213 338.664 44.592C338.824 44.752 338.904 44.9547 338.904 45.2C338.904 45.328 338.882 45.4667 338.84 45.616C338.808 45.7653 338.754 45.936 338.68 46.128L338.008 48.336H337.24L337.784 46.016C337.613 45.9627 337.474 45.8667 337.368 45.728C337.261 45.5787 337.208 45.4027 337.208 45.2C337.208 44.9547 337.288 44.752 337.448 44.592C337.608 44.4213 337.81 44.336 338.056 44.336ZM353.666 44.976V46H345.746V34.8H353.426V35.824H346.93V39.808H352.722V40.816H346.93V44.976H353.666ZM360.497 37.52C361.553 37.52 362.39 37.8293 363.009 38.448C363.638 39.056 363.953 39.9467 363.953 41.12V46H362.817V41.232C362.817 40.3573 362.598 39.6907 362.161 39.232C361.724 38.7733 361.1 38.544 360.289 38.544C359.382 38.544 358.662 38.816 358.129 39.36C357.606 39.8933 357.345 40.6347 357.345 41.584V46H356.209V37.584H357.297V39.136C357.606 38.624 358.033 38.2293 358.577 37.952C359.132 37.664 359.772 37.52 360.497 37.52ZM374.86 37.584V44.976C374.86 46.4053 374.508 47.4613 373.804 48.144C373.111 48.8373 372.06 49.184 370.652 49.184C369.874 49.184 369.132 49.0667 368.428 48.832C367.735 48.608 367.17 48.2933 366.732 47.888L367.308 47.024C367.714 47.3867 368.204 47.6693 368.78 47.872C369.367 48.0747 369.98 48.176 370.62 48.176C371.687 48.176 372.471 47.9253 372.972 47.424C373.474 46.9333 373.724 46.1653 373.724 45.12V44.048C373.372 44.5813 372.908 44.9867 372.332 45.264C371.767 45.5413 371.138 45.68 370.444 45.68C369.655 45.68 368.935 45.5093 368.284 45.168C367.644 44.816 367.138 44.3307 366.764 43.712C366.402 43.0827 366.22 42.3733 366.22 41.584C366.22 40.7947 366.402 40.0907 366.764 39.472C367.138 38.8533 367.644 38.3733 368.284 38.032C368.924 37.6907 369.644 37.52 370.444 37.52C371.159 37.52 371.804 37.664 372.38 37.952C372.956 38.24 373.42 38.656 373.772 39.2V37.584H374.86ZM370.556 44.672C371.164 44.672 371.714 44.544 372.204 44.288C372.695 44.0213 373.074 43.6533 373.34 43.184C373.618 42.7147 373.756 42.1813 373.756 41.584C373.756 40.9867 373.618 40.4587 373.34 40C373.074 39.5307 372.695 39.168 372.204 38.912C371.724 38.6453 371.175 38.512 370.556 38.512C369.948 38.512 369.399 38.64 368.908 38.896C368.428 39.152 368.05 39.5147 367.772 39.984C367.506 40.4533 367.372 40.9867 367.372 41.584C367.372 42.1813 367.506 42.7147 367.772 43.184C368.05 43.6533 368.428 44.0213 368.908 44.288C369.399 44.544 369.948 44.672 370.556 44.672ZM378.037 34.128H379.173V46H378.037V34.128ZM382.334 37.584H383.47V46H382.334V37.584ZM382.91 35.744C382.675 35.744 382.478 35.664 382.318 35.504C382.158 35.344 382.078 35.152 382.078 34.928C382.078 34.7147 382.158 34.528 382.318 34.368C382.478 34.208 382.675 34.128 382.91 34.128C383.145 34.128 383.342 34.208 383.502 34.368C383.662 34.5173 383.742 34.6987 383.742 34.912C383.742 35.1467 383.662 35.344 383.502 35.504C383.342 35.664 383.145 35.744 382.91 35.744ZM388.887 46.08C388.204 46.08 387.548 45.984 386.919 45.792C386.3 45.5893 385.815 45.3387 385.463 45.04L385.975 44.144C386.327 44.4213 386.77 44.6507 387.303 44.832C387.836 45.0027 388.391 45.088 388.967 45.088C389.735 45.088 390.3 44.9707 390.663 44.736C391.036 44.4907 391.223 44.1493 391.223 43.712C391.223 43.4027 391.122 43.1627 390.919 42.992C390.716 42.8107 390.46 42.6773 390.151 42.592C389.842 42.496 389.431 42.4053 388.919 42.32C388.236 42.192 387.687 42.064 387.271 41.936C386.855 41.7973 386.498 41.568 386.199 41.248C385.911 40.928 385.767 40.4853 385.767 39.92C385.767 39.216 386.06 38.64 386.647 38.192C387.234 37.744 388.05 37.52 389.095 37.52C389.639 37.52 390.183 37.5947 390.727 37.744C391.271 37.8827 391.719 38.0693 392.071 38.304L391.575 39.216C390.882 38.736 390.055 38.496 389.095 38.496C388.37 38.496 387.82 38.624 387.447 38.88C387.084 39.136 386.903 39.472 386.903 39.888C386.903 40.208 387.004 40.464 387.207 40.656C387.42 40.848 387.682 40.992 387.991 41.088C388.3 41.1733 388.727 41.264 389.271 41.36C389.943 41.488 390.482 41.616 390.887 41.744C391.292 41.872 391.639 42.0907 391.927 42.4C392.215 42.7093 392.359 43.136 392.359 43.68C392.359 44.416 392.05 45.0027 391.431 45.44C390.823 45.8667 389.975 46.08 388.887 46.08ZM398.747 37.52C399.803 37.52 400.64 37.8293 401.259 38.448C401.888 39.056 402.203 39.9467 402.203 41.12V46H401.067V41.232C401.067 40.3573 400.848 39.6907 400.411 39.232C399.974 38.7733 399.35 38.544 398.539 38.544C397.632 38.544 396.912 38.816 396.379 39.36C395.856 39.8933 395.595 40.6347 395.595 41.584V46H394.459V34.128H395.595V39.056C395.904 38.5653 396.331 38.1867 396.875 37.92C397.419 37.6533 398.043 37.52 398.747 37.52Z" fill="white"/>
<path d="M141.025 137.5V155H139.25V141L132.375 152.775H131.5L124.625 141.075V155H122.85V137.5H124.375L131.975 150.475L139.5 137.5H141.025ZM150.952 141.75C152.669 141.75 153.985 142.183 154.902 143.05C155.819 143.9 156.277 145.167 156.277 146.85V155H154.577V152.95C154.177 153.633 153.585 154.167 152.802 154.55C152.035 154.933 151.119 155.125 150.052 155.125C148.585 155.125 147.419 154.775 146.552 154.075C145.685 153.375 145.252 152.45 145.252 151.3C145.252 150.183 145.652 149.283 146.452 148.6C147.269 147.917 148.56 147.575 150.327 147.575H154.502V146.775C154.502 145.642 154.185 144.783 153.552 144.2C152.919 143.6 151.994 143.3 150.777 143.3C149.944 143.3 149.144 143.442 148.377 143.725C147.61 143.992 146.952 144.367 146.402 144.85L145.602 143.525C146.269 142.958 147.069 142.525 148.002 142.225C148.935 141.908 149.919 141.75 150.952 141.75ZM150.327 153.725C151.327 153.725 152.185 153.5 152.902 153.05C153.619 152.583 154.152 151.917 154.502 151.05V148.9H150.377C148.127 148.9 147.002 149.683 147.002 151.25C147.002 152.017 147.294 152.625 147.877 153.075C148.46 153.508 149.277 153.725 150.327 153.725ZM167.798 141.75C169.448 141.75 170.756 142.233 171.723 143.2C172.706 144.15 173.198 145.542 173.198 147.375V155H171.423V147.55C171.423 146.183 171.081 145.142 170.398 144.425C169.715 143.708 168.74 143.35 167.473 143.35C166.056 143.35 164.931 143.775 164.098 144.625C163.281 145.458 162.873 146.617 162.873 148.1V155H161.098V141.85H162.798V144.275C163.281 143.475 163.948 142.858 164.798 142.425C165.665 141.975 166.665 141.75 167.798 141.75ZM183.516 155.125C182.216 155.125 181.049 154.842 180.016 154.275C178.999 153.708 178.199 152.917 177.616 151.9C177.032 150.867 176.741 149.708 176.741 148.425C176.741 147.142 177.032 145.992 177.616 144.975C178.199 143.958 178.999 143.167 180.016 142.6C181.049 142.033 182.216 141.75 183.516 141.75C184.649 141.75 185.657 141.975 186.541 142.425C187.441 142.858 188.149 143.5 188.666 144.35L187.341 145.25C186.907 144.6 186.357 144.117 185.691 143.8C185.024 143.467 184.299 143.3 183.516 143.3C182.566 143.3 181.707 143.517 180.941 143.95C180.191 144.367 179.599 144.967 179.166 145.75C178.749 146.533 178.541 147.425 178.541 148.425C178.541 149.442 178.749 150.342 179.166 151.125C179.599 151.892 180.191 152.492 180.941 152.925C181.707 153.342 182.566 153.55 183.516 153.55C184.299 153.55 185.024 153.392 185.691 153.075C186.357 152.758 186.907 152.275 187.341 151.625L188.666 152.525C188.149 153.375 187.441 154.025 186.541 154.475C185.641 154.908 184.632 155.125 183.516 155.125ZM198.657 141.75C200.307 141.75 201.616 142.233 202.582 143.2C203.566 144.15 204.057 145.542 204.057 147.375V155H202.282V147.55C202.282 146.183 201.941 145.142 201.257 144.425C200.574 143.708 199.599 143.35 198.332 143.35C196.916 143.35 195.791 143.775 194.957 144.625C194.141 145.458 193.732 146.617 193.732 148.1V155H191.957V136.45H193.732V144.15C194.216 143.383 194.882 142.792 195.732 142.375C196.582 141.958 197.557 141.75 198.657 141.75ZM220.375 148.975H209.375C209.475 150.342 210 151.45 210.95 152.3C211.9 153.133 213.1 153.55 214.55 153.55C215.367 153.55 216.117 153.408 216.8 153.125C217.484 152.825 218.075 152.392 218.575 151.825L219.575 152.975C218.992 153.675 218.259 154.208 217.375 154.575C216.509 154.942 215.55 155.125 214.5 155.125C213.15 155.125 211.95 154.842 210.9 154.275C209.867 153.692 209.059 152.892 208.475 151.875C207.892 150.858 207.6 149.708 207.6 148.425C207.6 147.142 207.875 145.992 208.425 144.975C208.992 143.958 209.759 143.167 210.725 142.6C211.709 142.033 212.809 141.75 214.025 141.75C215.242 141.75 216.334 142.033 217.3 142.6C218.267 143.167 219.025 143.958 219.575 144.975C220.125 145.975 220.4 147.125 220.4 148.425L220.375 148.975ZM214.025 143.275C212.759 143.275 211.692 143.683 210.825 144.5C209.975 145.3 209.492 146.35 209.375 147.65H218.7C218.584 146.35 218.092 145.3 217.225 144.5C216.375 143.683 215.309 143.275 214.025 143.275ZM227.538 155.125C226.471 155.125 225.446 154.975 224.463 154.675C223.496 154.358 222.738 153.967 222.188 153.5L222.988 152.1C223.538 152.533 224.23 152.892 225.063 153.175C225.896 153.442 226.763 153.575 227.663 153.575C228.863 153.575 229.746 153.392 230.313 153.025C230.896 152.642 231.188 152.108 231.188 151.425C231.188 150.942 231.03 150.567 230.713 150.3C230.396 150.017 229.996 149.808 229.513 149.675C229.03 149.525 228.388 149.383 227.588 149.25C226.521 149.05 225.663 148.85 225.013 148.65C224.363 148.433 223.805 148.075 223.338 147.575C222.888 147.075 222.663 146.383 222.663 145.5C222.663 144.4 223.121 143.5 224.038 142.8C224.955 142.1 226.23 141.75 227.863 141.75C228.713 141.75 229.563 141.867 230.413 142.1C231.263 142.317 231.963 142.608 232.513 142.975L231.738 144.4C230.655 143.65 229.363 143.275 227.863 143.275C226.73 143.275 225.871 143.475 225.288 143.875C224.721 144.275 224.438 144.8 224.438 145.45C224.438 145.95 224.596 146.35 224.913 146.65C225.246 146.95 225.655 147.175 226.138 147.325C226.621 147.458 227.288 147.6 228.138 147.75C229.188 147.95 230.03 148.15 230.663 148.35C231.296 148.55 231.838 148.892 232.288 149.375C232.738 149.858 232.963 150.525 232.963 151.375C232.963 152.525 232.48 153.442 231.513 154.125C230.563 154.792 229.238 155.125 227.538 155.125ZM243.17 154.2C242.836 154.5 242.42 154.733 241.92 154.9C241.436 155.05 240.928 155.125 240.395 155.125C239.161 155.125 238.211 154.792 237.545 154.125C236.878 153.458 236.545 152.517 236.545 151.3V143.35H234.195V141.85H236.545V138.975H238.32V141.85H242.32V143.35H238.32V151.2C238.32 151.983 238.511 152.583 238.895 153C239.295 153.4 239.861 153.6 240.595 153.6C240.961 153.6 241.311 153.542 241.645 153.425C241.995 153.308 242.295 153.142 242.545 152.925L243.17 154.2ZM257.387 148.975H246.387C246.487 150.342 247.012 151.45 247.962 152.3C248.912 153.133 250.112 153.55 251.562 153.55C252.379 153.55 253.129 153.408 253.812 153.125C254.495 152.825 255.087 152.392 255.587 151.825L256.587 152.975C256.004 153.675 255.27 154.208 254.387 154.575C253.52 154.942 252.562 155.125 251.512 155.125C250.162 155.125 248.962 154.842 247.912 154.275C246.879 153.692 246.07 152.892 245.487 151.875C244.904 150.858 244.612 149.708 244.612 148.425C244.612 147.142 244.887 145.992 245.437 144.975C246.004 143.958 246.77 143.167 247.737 142.6C248.72 142.033 249.82 141.75 251.037 141.75C252.254 141.75 253.345 142.033 254.312 142.6C255.279 143.167 256.037 143.958 256.587 144.975C257.137 145.975 257.412 147.125 257.412 148.425L257.387 148.975ZM251.037 143.275C249.77 143.275 248.704 143.683 247.837 144.5C246.987 145.3 246.504 146.35 246.387 147.65H255.712C255.595 146.35 255.104 145.3 254.237 144.5C253.387 143.683 252.32 143.275 251.037 143.275ZM262.725 144.425C263.141 143.542 263.758 142.875 264.575 142.425C265.408 141.975 266.433 141.75 267.65 141.75V143.475L267.225 143.45C265.841 143.45 264.758 143.875 263.975 144.725C263.191 145.575 262.8 146.767 262.8 148.3V155H261.025V141.85H262.725V144.425ZM296.152 137.5V155H294.377V141L287.502 152.775H286.627L279.752 141.075V155H277.977V137.5H279.502L287.102 150.475L294.627 137.5H296.152ZM312.929 148.975H301.929C302.029 150.342 302.554 151.45 303.504 152.3C304.454 153.133 305.654 153.55 307.104 153.55C307.921 153.55 308.671 153.408 309.354 153.125C310.037 152.825 310.629 152.392 311.129 151.825L312.129 152.975C311.546 153.675 310.812 154.208 309.929 154.575C309.062 154.942 308.104 155.125 307.054 155.125C305.704 155.125 304.504 154.842 303.454 154.275C302.421 153.692 301.612 152.892 301.029 151.875C300.446 150.858 300.154 149.708 300.154 148.425C300.154 147.142 300.429 145.992 300.979 144.975C301.546 143.958 302.312 143.167 303.279 142.6C304.262 142.033 305.362 141.75 306.579 141.75C307.796 141.75 308.887 142.033 309.854 142.6C310.821 143.167 311.579 143.958 312.129 144.975C312.679 145.975 312.954 147.125 312.954 148.425L312.929 148.975ZM306.579 143.275C305.312 143.275 304.246 143.683 303.379 144.5C302.529 145.3 302.046 146.35 301.929 147.65H311.254C311.137 146.35 310.646 145.3 309.779 144.5C308.929 143.683 307.862 143.275 306.579 143.275ZM323.492 154.2C323.158 154.5 322.742 154.733 322.242 154.9C321.758 155.05 321.25 155.125 320.717 155.125C319.483 155.125 318.533 154.792 317.867 154.125C317.2 153.458 316.867 152.517 316.867 151.3V143.35H314.517V141.85H316.867V138.975H318.642V141.85H322.642V143.35H318.642V151.2C318.642 151.983 318.833 152.583 319.217 153C319.617 153.4 320.183 153.6 320.917 153.6C321.283 153.6 321.633 153.542 321.967 153.425C322.317 153.308 322.617 153.142 322.867 152.925L323.492 154.2ZM328.423 144.425C328.84 143.542 329.456 142.875 330.273 142.425C331.106 141.975 332.131 141.75 333.348 141.75V143.475L332.923 143.45C331.54 143.45 330.456 143.875 329.673 144.725C328.89 145.575 328.498 146.767 328.498 148.3V155H326.723V141.85H328.423V144.425ZM341.815 155.125C340.548 155.125 339.407 154.842 338.39 154.275C337.373 153.692 336.573 152.892 335.99 151.875C335.407 150.858 335.115 149.708 335.115 148.425C335.115 147.142 335.407 145.992 335.99 144.975C336.573 143.958 337.373 143.167 338.39 142.6C339.407 142.033 340.548 141.75 341.815 141.75C343.082 141.75 344.223 142.033 345.24 142.6C346.257 143.167 347.048 143.958 347.615 144.975C348.198 145.992 348.49 147.142 348.49 148.425C348.49 149.708 348.198 150.858 347.615 151.875C347.048 152.892 346.257 153.692 345.24 154.275C344.223 154.842 343.082 155.125 341.815 155.125ZM341.815 153.55C342.748 153.55 343.582 153.342 344.315 152.925C345.065 152.492 345.648 151.883 346.065 151.1C346.482 150.317 346.69 149.425 346.69 148.425C346.69 147.425 346.482 146.533 346.065 145.75C345.648 144.967 345.065 144.367 344.315 143.95C343.582 143.517 342.748 143.3 341.815 143.3C340.882 143.3 340.04 143.517 339.29 143.95C338.557 144.367 337.973 144.967 337.54 145.75C337.123 146.533 336.915 147.425 336.915 148.425C336.915 149.425 337.123 150.317 337.54 151.1C337.973 151.883 338.557 152.492 339.29 152.925C340.04 153.342 340.882 153.55 341.815 153.55ZM358.889 141.75C360.122 141.75 361.239 142.033 362.239 142.6C363.239 143.15 364.022 143.933 364.589 144.95C365.155 145.967 365.439 147.125 365.439 148.425C365.439 149.742 365.155 150.908 364.589 151.925C364.022 152.942 363.239 153.733 362.239 154.3C361.255 154.85 360.139 155.125 358.889 155.125C357.822 155.125 356.855 154.908 355.989 154.475C355.139 154.025 354.439 153.375 353.889 152.525V159.85H352.114V141.85H353.814V144.45C354.347 143.583 355.047 142.917 355.914 142.45C356.797 141.983 357.789 141.75 358.889 141.75ZM358.764 153.55C359.68 153.55 360.514 153.342 361.264 152.925C362.014 152.492 362.597 151.883 363.014 151.1C363.447 150.317 363.664 149.425 363.664 148.425C363.664 147.425 363.447 146.542 363.014 145.775C362.597 144.992 362.014 144.383 361.264 143.95C360.514 143.517 359.68 143.3 358.764 143.3C357.83 143.3 356.989 143.517 356.239 143.95C355.505 144.383 354.922 144.992 354.489 145.775C354.072 146.542 353.864 147.425 353.864 148.425C353.864 149.425 354.072 150.317 354.489 151.1C354.922 151.883 355.505 152.492 356.239 152.925C356.989 153.342 357.83 153.55 358.764 153.55ZM374.432 155.125C373.165 155.125 372.024 154.842 371.007 154.275C369.99 153.692 369.19 152.892 368.607 151.875C368.024 150.858 367.732 149.708 367.732 148.425C367.732 147.142 368.024 145.992 368.607 144.975C369.19 143.958 369.99 143.167 371.007 142.6C372.024 142.033 373.165 141.75 374.432 141.75C375.699 141.75 376.84 142.033 377.857 142.6C378.874 143.167 379.665 143.958 380.232 144.975C380.815 145.992 381.107 147.142 381.107 148.425C381.107 149.708 380.815 150.858 380.232 151.875C379.665 152.892 378.874 153.692 377.857 154.275C376.84 154.842 375.699 155.125 374.432 155.125ZM374.432 153.55C375.365 153.55 376.199 153.342 376.932 152.925C377.682 152.492 378.265 151.883 378.682 151.1C379.099 150.317 379.307 149.425 379.307 148.425C379.307 147.425 379.099 146.533 378.682 145.75C378.265 144.967 377.682 144.367 376.932 143.95C376.199 143.517 375.365 143.3 374.432 143.3C373.499 143.3 372.657 143.517 371.907 143.95C371.174 144.367 370.59 144.967 370.157 145.75C369.74 146.533 369.532 147.425 369.532 148.425C369.532 149.425 369.74 150.317 370.157 151.1C370.59 151.883 371.174 152.492 371.907 152.925C372.657 153.342 373.499 153.55 374.432 153.55ZM384.731 136.45H386.506V155H384.731V136.45ZM391.445 141.85H393.22V155H391.445V141.85ZM392.345 138.975C391.978 138.975 391.67 138.85 391.42 138.6C391.17 138.35 391.045 138.05 391.045 137.7C391.045 137.367 391.17 137.075 391.42 136.825C391.67 136.575 391.978 136.45 392.345 136.45C392.711 136.45 393.02 136.575 393.27 136.825C393.52 137.058 393.645 137.342 393.645 137.675C393.645 138.042 393.52 138.35 393.27 138.6C393.02 138.85 392.711 138.975 392.345 138.975ZM405.084 154.2C404.75 154.5 404.334 154.733 403.834 154.9C403.35 155.05 402.842 155.125 402.309 155.125C401.075 155.125 400.125 154.792 399.459 154.125C398.792 153.458 398.459 152.517 398.459 151.3V143.35H396.109V141.85H398.459V138.975H400.234V141.85H404.234V143.35H400.234V151.2C400.234 151.983 400.425 152.583 400.809 153C401.209 153.4 401.775 153.6 402.509 153.6C402.875 153.6 403.225 153.542 403.559 153.425C403.909 153.308 404.209 153.142 404.459 152.925L405.084 154.2ZM412.915 141.75C414.632 141.75 415.948 142.183 416.865 143.05C417.782 143.9 418.24 145.167 418.24 146.85V155H416.54V152.95C416.14 153.633 415.548 154.167 414.765 154.55C413.998 154.933 413.082 155.125 412.015 155.125C410.548 155.125 409.382 154.775 408.515 154.075C407.648 153.375 407.215 152.45 407.215 151.3C407.215 150.183 407.615 149.283 408.415 148.6C409.232 147.917 410.523 147.575 412.29 147.575H416.465V146.775C416.465 145.642 416.148 144.783 415.515 144.2C414.882 143.6 413.957 143.3 412.74 143.3C411.907 143.3 411.107 143.442 410.34 143.725C409.573 143.992 408.915 144.367 408.365 144.85L407.565 143.525C408.232 142.958 409.032 142.525 409.965 142.225C410.898 141.908 411.882 141.75 412.915 141.75ZM412.29 153.725C413.29 153.725 414.148 153.5 414.865 153.05C415.582 152.583 416.115 151.917 416.465 151.05V148.9H412.34C410.09 148.9 408.965 149.683 408.965 151.25C408.965 152.017 409.257 152.625 409.84 153.075C410.423 153.508 411.24 153.725 412.29 153.725ZM429.761 141.75C431.411 141.75 432.719 142.233 433.686 143.2C434.669 144.15 435.161 145.542 435.161 147.375V155H433.386V147.55C433.386 146.183 433.044 145.142 432.361 144.425C431.678 143.708 430.703 143.35 429.436 143.35C428.019 143.35 426.894 143.775 426.061 144.625C425.244 145.458 424.836 146.617 424.836 148.1V155H423.061V141.85H424.761V144.275C425.244 143.475 425.911 142.858 426.761 142.425C427.628 141.975 428.628 141.75 429.761 141.75ZM453.948 155.15C451.681 155.15 449.915 154.5 448.648 153.2C447.381 151.9 446.748 150.008 446.748 147.525V137.5H448.598V147.45C448.598 149.483 449.056 151 449.973 152C450.89 153 452.215 153.5 453.948 153.5C455.698 153.5 457.031 153 457.948 152C458.865 151 459.323 149.483 459.323 147.45V137.5H461.123V147.525C461.123 150.008 460.49 151.9 459.223 153.2C457.973 154.5 456.215 155.15 453.948 155.15ZM473.023 141.75C474.673 141.75 475.981 142.233 476.948 143.2C477.931 144.15 478.423 145.542 478.423 147.375V155H476.648V147.55C476.648 146.183 476.306 145.142 475.623 144.425C474.939 143.708 473.964 143.35 472.698 143.35C471.281 143.35 470.156 143.775 469.323 144.625C468.506 145.458 468.098 146.617 468.098 148.1V155H466.323V141.85H468.023V144.275C468.506 143.475 469.173 142.858 470.023 142.425C470.889 141.975 471.889 141.75 473.023 141.75ZM483.242 141.85H485.017V155H483.242V141.85ZM484.142 138.975C483.775 138.975 483.467 138.85 483.217 138.6C482.967 138.35 482.842 138.05 482.842 137.7C482.842 137.367 482.967 137.075 483.217 136.825C483.467 136.575 483.775 136.45 484.142 136.45C484.508 136.45 484.817 136.575 485.067 136.825C485.317 137.058 485.442 137.342 485.442 137.675C485.442 138.042 485.317 138.35 485.067 138.6C484.817 138.85 484.508 138.975 484.142 138.975ZM501.005 141.85L495.155 155H493.33L487.505 141.85H489.355L494.28 153.05L499.255 141.85H501.005ZM514.589 148.975H503.589C503.689 150.342 504.214 151.45 505.164 152.3C506.114 153.133 507.314 153.55 508.764 153.55C509.581 153.55 510.331 153.408 511.014 153.125C511.697 152.825 512.289 152.392 512.789 151.825L513.789 152.975C513.206 153.675 512.472 154.208 511.589 154.575C510.722 154.942 509.764 155.125 508.714 155.125C507.364 155.125 506.164 154.842 505.114 154.275C504.081 153.692 503.272 152.892 502.689 151.875C502.106 150.858 501.814 149.708 501.814 148.425C501.814 147.142 502.089 145.992 502.639 144.975C503.206 143.958 503.972 143.167 504.939 142.6C505.922 142.033 507.022 141.75 508.239 141.75C509.456 141.75 510.547 142.033 511.514 142.6C512.481 143.167 513.239 143.958 513.789 144.975C514.339 145.975 514.614 147.125 514.614 148.425L514.589 148.975ZM508.239 143.275C506.972 143.275 505.906 143.683 505.039 144.5C504.189 145.3 503.706 146.35 503.589 147.65H512.914C512.797 146.35 512.306 145.3 511.439 144.5C510.589 143.683 509.522 143.275 508.239 143.275ZM519.927 144.425C520.344 143.542 520.96 142.875 521.777 142.425C522.61 141.975 523.635 141.75 524.852 141.75V143.475L524.427 143.45C523.044 143.45 521.96 143.875 521.177 144.725C520.394 145.575 520.002 146.767 520.002 148.3V155H518.227V141.85H519.927V144.425ZM531.688 155.125C530.622 155.125 529.597 154.975 528.613 154.675C527.647 154.358 526.888 153.967 526.338 153.5L527.138 152.1C527.688 152.533 528.38 152.892 529.213 153.175C530.047 153.442 530.913 153.575 531.813 153.575C533.013 153.575 533.897 153.392 534.463 153.025C535.047 152.642 535.338 152.108 535.338 151.425C535.338 150.942 535.18 150.567 534.863 150.3C534.547 150.017 534.147 149.808 533.663 149.675C533.18 149.525 532.538 149.383 531.738 149.25C530.672 149.05 529.813 148.85 529.163 148.65C528.513 148.433 527.955 148.075 527.488 147.575C527.038 147.075 526.813 146.383 526.813 145.5C526.813 144.4 527.272 143.5 528.188 142.8C529.105 142.1 530.38 141.75 532.013 141.75C532.863 141.75 533.713 141.867 534.563 142.1C535.413 142.317 536.113 142.608 536.663 142.975L535.888 144.4C534.805 143.65 533.513 143.275 532.013 143.275C530.88 143.275 530.022 143.475 529.438 143.875C528.872 144.275 528.588 144.8 528.588 145.45C528.588 145.95 528.747 146.35 529.063 146.65C529.397 146.95 529.805 147.175 530.288 147.325C530.772 147.458 531.438 147.6 532.288 147.75C533.338 147.95 534.18 148.15 534.813 148.35C535.447 148.55 535.988 148.892 536.438 149.375C536.888 149.858 537.113 150.525 537.113 151.375C537.113 152.525 536.63 153.442 535.663 154.125C534.713 154.792 533.388 155.125 531.688 155.125ZM540.395 141.85H542.17V155H540.395V141.85ZM541.295 138.975C540.928 138.975 540.62 138.85 540.37 138.6C540.12 138.35 539.995 138.05 539.995 137.7C539.995 137.367 540.12 137.075 540.37 136.825C540.62 136.575 540.928 136.45 541.295 136.45C541.662 136.45 541.97 136.575 542.22 136.825C542.47 137.058 542.595 137.342 542.595 137.675C542.595 138.042 542.47 138.35 542.22 138.6C541.97 138.85 541.662 138.975 541.295 138.975ZM554.034 154.2C553.7 154.5 553.284 154.733 552.784 154.9C552.3 155.05 551.792 155.125 551.259 155.125C550.025 155.125 549.075 154.792 548.409 154.125C547.742 153.458 547.409 152.517 547.409 151.3V143.35H545.059V141.85H547.409V138.975H549.184V141.85H553.184V143.35H549.184V151.2C549.184 151.983 549.375 152.583 549.759 153C550.159 153.4 550.725 153.6 551.459 153.6C551.825 153.6 552.175 153.542 552.509 153.425C552.859 153.308 553.159 153.142 553.409 152.925L554.034 154.2ZM568.071 141.85L561.496 156.575C560.963 157.808 560.346 158.683 559.646 159.2C558.946 159.717 558.104 159.975 557.121 159.975C556.488 159.975 555.896 159.875 555.346 159.675C554.796 159.475 554.321 159.175 553.921 158.775L554.746 157.45C555.413 158.117 556.213 158.45 557.146 158.45C557.746 158.45 558.254 158.283 558.671 157.95C559.104 157.617 559.504 157.05 559.871 156.25L560.446 154.975L554.571 141.85H556.421L561.371 153.025L566.321 141.85H568.071Z" fill="white"/>
<path d="M121.824 165.8H126.384C127.568 165.8 128.613 166.04 129.52 166.52C130.427 166.989 131.131 167.651 131.632 168.504C132.133 169.347 132.384 170.312 132.384 171.4C132.384 172.488 132.133 173.459 131.632 174.312C131.131 175.155 130.427 175.816 129.52 176.296C128.613 176.765 127.568 177 126.384 177H121.824V165.8ZM126.32 175.976C127.301 175.976 128.16 175.784 128.896 175.4C129.632 175.005 130.203 174.467 130.608 173.784C131.013 173.091 131.216 172.296 131.216 171.4C131.216 170.504 131.013 169.715 130.608 169.032C130.203 168.339 129.632 167.8 128.896 167.416C128.16 167.021 127.301 166.824 126.32 166.824H123.008V175.976H126.32ZM134.803 168.584H135.939V177H134.803V168.584ZM135.379 166.744C135.144 166.744 134.947 166.664 134.787 166.504C134.627 166.344 134.547 166.152 134.547 165.928C134.547 165.715 134.627 165.528 134.787 165.368C134.947 165.208 135.144 165.128 135.379 165.128C135.613 165.128 135.811 165.208 135.971 165.368C136.131 165.517 136.211 165.699 136.211 165.912C136.211 166.147 136.131 166.344 135.971 166.504C135.811 166.664 135.613 166.744 135.379 166.744ZM146.892 168.584V175.976C146.892 177.405 146.54 178.461 145.836 179.144C145.142 179.837 144.092 180.184 142.684 180.184C141.905 180.184 141.164 180.067 140.46 179.832C139.766 179.608 139.201 179.293 138.764 178.888L139.34 178.024C139.745 178.387 140.236 178.669 140.812 178.872C141.398 179.075 142.012 179.176 142.652 179.176C143.718 179.176 144.502 178.925 145.004 178.424C145.505 177.933 145.756 177.165 145.756 176.12V175.048C145.404 175.581 144.94 175.987 144.364 176.264C143.798 176.541 143.169 176.68 142.476 176.68C141.686 176.68 140.966 176.509 140.316 176.168C139.676 175.816 139.169 175.331 138.796 174.712C138.433 174.083 138.252 173.373 138.252 172.584C138.252 171.795 138.433 171.091 138.796 170.472C139.169 169.853 139.676 169.373 140.316 169.032C140.956 168.691 141.676 168.52 142.476 168.52C143.19 168.52 143.836 168.664 144.412 168.952C144.988 169.24 145.452 169.656 145.804 170.2V168.584H146.892ZM142.588 175.672C143.196 175.672 143.745 175.544 144.236 175.288C144.726 175.021 145.105 174.653 145.372 174.184C145.649 173.715 145.788 173.181 145.788 172.584C145.788 171.987 145.649 171.459 145.372 171C145.105 170.531 144.726 170.168 144.236 169.912C143.756 169.645 143.206 169.512 142.588 169.512C141.98 169.512 141.43 169.64 140.94 169.896C140.46 170.152 140.081 170.515 139.804 170.984C139.537 171.453 139.404 171.987 139.404 172.584C139.404 173.181 139.537 173.715 139.804 174.184C140.081 174.653 140.46 175.021 140.94 175.288C141.43 175.544 141.98 175.672 142.588 175.672ZM150.068 168.584H151.204V177H150.068V168.584ZM150.644 166.744C150.41 166.744 150.212 166.664 150.052 166.504C149.892 166.344 149.812 166.152 149.812 165.928C149.812 165.715 149.892 165.528 150.052 165.368C150.212 165.208 150.41 165.128 150.644 165.128C150.879 165.128 151.076 165.208 151.236 165.368C151.396 165.517 151.476 165.699 151.476 165.912C151.476 166.147 151.396 166.344 151.236 166.504C151.076 166.664 150.879 166.744 150.644 166.744ZM158.797 176.488C158.584 176.68 158.317 176.829 157.997 176.936C157.688 177.032 157.363 177.08 157.021 177.08C156.232 177.08 155.624 176.867 155.197 176.44C154.771 176.013 154.557 175.411 154.557 174.632V169.544H153.053V168.584H154.557V166.744H155.693V168.584H158.253V169.544H155.693V174.568C155.693 175.069 155.816 175.453 156.061 175.72C156.317 175.976 156.68 176.104 157.149 176.104C157.384 176.104 157.608 176.067 157.821 175.992C158.045 175.917 158.237 175.811 158.397 175.672L158.797 176.488ZM163.809 168.52C164.908 168.52 165.751 168.797 166.337 169.352C166.924 169.896 167.217 170.707 167.217 171.784V177H166.129V175.688C165.873 176.125 165.495 176.467 164.993 176.712C164.503 176.957 163.916 177.08 163.233 177.08C162.295 177.08 161.548 176.856 160.993 176.408C160.439 175.96 160.161 175.368 160.161 174.632C160.161 173.917 160.417 173.341 160.929 172.904C161.452 172.467 162.279 172.248 163.409 172.248H166.081V171.736C166.081 171.011 165.879 170.461 165.473 170.088C165.068 169.704 164.476 169.512 163.697 169.512C163.164 169.512 162.652 169.603 162.161 169.784C161.671 169.955 161.249 170.195 160.897 170.504L160.385 169.656C160.812 169.293 161.324 169.016 161.921 168.824C162.519 168.621 163.148 168.52 163.809 168.52ZM163.409 176.184C164.049 176.184 164.599 176.04 165.057 175.752C165.516 175.453 165.857 175.027 166.081 174.472V173.096H163.441C162.001 173.096 161.281 173.597 161.281 174.6C161.281 175.091 161.468 175.48 161.841 175.768C162.215 176.045 162.737 176.184 163.409 176.184ZM170.303 165.128H171.439V177H170.303V165.128ZM190.659 165.8V177H189.523V168.04L185.123 175.576H184.563L180.163 168.088V177H179.027V165.8H180.003L184.867 174.104L189.683 165.8H190.659ZM201.396 173.144H194.356C194.42 174.019 194.756 174.728 195.364 175.272C195.972 175.805 196.74 176.072 197.668 176.072C198.191 176.072 198.671 175.981 199.108 175.8C199.546 175.608 199.924 175.331 200.244 174.968L200.884 175.704C200.511 176.152 200.042 176.493 199.476 176.728C198.922 176.963 198.308 177.08 197.636 177.08C196.772 177.08 196.004 176.899 195.332 176.536C194.671 176.163 194.154 175.651 193.78 175C193.407 174.349 193.22 173.613 193.22 172.792C193.22 171.971 193.396 171.235 193.748 170.584C194.111 169.933 194.602 169.427 195.22 169.064C195.85 168.701 196.554 168.52 197.332 168.52C198.111 168.52 198.81 168.701 199.428 169.064C200.047 169.427 200.532 169.933 200.884 170.584C201.236 171.224 201.412 171.96 201.412 172.792L201.396 173.144ZM197.332 169.496C196.522 169.496 195.839 169.757 195.284 170.28C194.74 170.792 194.431 171.464 194.356 172.296H200.324C200.25 171.464 199.935 170.792 199.38 170.28C198.836 169.757 198.154 169.496 197.332 169.496ZM211.405 165.128V177H210.317V175.336C209.975 175.901 209.522 176.333 208.957 176.632C208.402 176.931 207.773 177.08 207.069 177.08C206.279 177.08 205.565 176.899 204.925 176.536C204.285 176.173 203.783 175.667 203.421 175.016C203.058 174.365 202.877 173.624 202.877 172.792C202.877 171.96 203.058 171.219 203.421 170.568C203.783 169.917 204.285 169.416 204.925 169.064C205.565 168.701 206.279 168.52 207.069 168.52C207.751 168.52 208.365 168.664 208.909 168.952C209.463 169.229 209.917 169.64 210.269 170.184V165.128H211.405ZM207.165 176.072C207.751 176.072 208.279 175.939 208.749 175.672C209.229 175.395 209.602 175.005 209.869 174.504C210.146 174.003 210.285 173.432 210.285 172.792C210.285 172.152 210.146 171.581 209.869 171.08C209.602 170.579 209.229 170.195 208.749 169.928C208.279 169.651 207.751 169.512 207.165 169.512C206.567 169.512 206.029 169.651 205.549 169.928C205.079 170.195 204.706 170.579 204.429 171.08C204.162 171.581 204.029 172.152 204.029 172.792C204.029 173.432 204.162 174.003 204.429 174.504C204.706 175.005 205.079 175.395 205.549 175.672C206.029 175.939 206.567 176.072 207.165 176.072ZM214.568 168.584H215.704V177H214.568V168.584ZM215.144 166.744C214.91 166.744 214.712 166.664 214.552 166.504C214.392 166.344 214.312 166.152 214.312 165.928C214.312 165.715 214.392 165.528 214.552 165.368C214.712 165.208 214.91 165.128 215.144 165.128C215.379 165.128 215.576 165.208 215.736 165.368C215.896 165.517 215.976 165.699 215.976 165.912C215.976 166.147 215.896 166.344 215.736 166.504C215.576 166.664 215.379 166.744 215.144 166.744ZM221.809 168.52C222.908 168.52 223.751 168.797 224.337 169.352C224.924 169.896 225.217 170.707 225.217 171.784V177H224.129V175.688C223.873 176.125 223.495 176.467 222.993 176.712C222.503 176.957 221.916 177.08 221.233 177.08C220.295 177.08 219.548 176.856 218.993 176.408C218.439 175.96 218.161 175.368 218.161 174.632C218.161 173.917 218.417 173.341 218.929 172.904C219.452 172.467 220.279 172.248 221.409 172.248H224.081V171.736C224.081 171.011 223.879 170.461 223.473 170.088C223.068 169.704 222.476 169.512 221.697 169.512C221.164 169.512 220.652 169.603 220.161 169.784C219.671 169.955 219.249 170.195 218.897 170.504L218.385 169.656C218.812 169.293 219.324 169.016 219.921 168.824C220.519 168.621 221.148 168.52 221.809 168.52ZM221.409 176.184C222.049 176.184 222.599 176.04 223.057 175.752C223.516 175.453 223.857 175.027 224.081 174.472V173.096H221.441C220.001 173.096 219.281 173.597 219.281 174.6C219.281 175.091 219.468 175.48 219.841 175.768C220.215 176.045 220.737 176.184 221.409 176.184ZM235.434 168.52C236.533 168.52 237.376 168.797 237.962 169.352C238.549 169.896 238.842 170.707 238.842 171.784V177H237.754V175.688C237.498 176.125 237.12 176.467 236.618 176.712C236.128 176.957 235.541 177.08 234.858 177.08C233.92 177.08 233.173 176.856 232.618 176.408C232.064 175.96 231.786 175.368 231.786 174.632C231.786 173.917 232.042 173.341 232.554 172.904C233.077 172.467 233.904 172.248 235.034 172.248H237.706V171.736C237.706 171.011 237.504 170.461 237.098 170.088C236.693 169.704 236.101 169.512 235.322 169.512C234.789 169.512 234.277 169.603 233.786 169.784C233.296 169.955 232.874 170.195 232.522 170.504L232.01 169.656C232.437 169.293 232.949 169.016 233.546 168.824C234.144 168.621 234.773 168.52 235.434 168.52ZM235.034 176.184C235.674 176.184 236.224 176.04 236.682 175.752C237.141 175.453 237.482 175.027 237.706 174.472V173.096H235.066C233.626 173.096 232.906 173.597 232.906 174.6C232.906 175.091 233.093 175.48 233.466 175.768C233.84 176.045 234.362 176.184 235.034 176.184ZM246.216 168.52C247.272 168.52 248.109 168.829 248.728 169.448C249.357 170.056 249.672 170.947 249.672 172.12V177H248.536V172.232C248.536 171.357 248.317 170.691 247.88 170.232C247.442 169.773 246.818 169.544 246.008 169.544C245.101 169.544 244.381 169.816 243.848 170.36C243.325 170.893 243.064 171.635 243.064 172.584V177H241.928V168.584H243.016V170.136C243.325 169.624 243.752 169.229 244.296 168.952C244.85 168.664 245.49 168.52 246.216 168.52ZM260.467 165.128V177H259.379V175.336C259.038 175.901 258.584 176.333 258.019 176.632C257.464 176.931 256.835 177.08 256.131 177.08C255.342 177.08 254.627 176.899 253.987 176.536C253.347 176.173 252.846 175.667 252.483 175.016C252.12 174.365 251.939 173.624 251.939 172.792C251.939 171.96 252.12 171.219 252.483 170.568C252.846 169.917 253.347 169.416 253.987 169.064C254.627 168.701 255.342 168.52 256.131 168.52C256.814 168.52 257.427 168.664 257.971 168.952C258.526 169.229 258.979 169.64 259.331 170.184V165.128H260.467ZM256.227 176.072C256.814 176.072 257.342 175.939 257.811 175.672C258.291 175.395 258.664 175.005 258.931 174.504C259.208 174.003 259.347 173.432 259.347 172.792C259.347 172.152 259.208 171.581 258.931 171.08C258.664 170.579 258.291 170.195 257.811 169.928C257.342 169.651 256.814 169.512 256.227 169.512C255.63 169.512 255.091 169.651 254.611 169.928C254.142 170.195 253.768 170.579 253.491 171.08C253.224 171.581 253.091 172.152 253.091 172.792C253.091 173.432 253.224 174.003 253.491 174.504C253.768 175.005 254.142 175.395 254.611 175.672C255.091 175.939 255.63 176.072 256.227 176.072ZM272.922 177.096C271.813 177.096 270.81 176.851 269.914 176.36C269.029 175.869 268.33 175.192 267.818 174.328C267.317 173.453 267.066 172.477 267.066 171.4C267.066 170.323 267.317 169.352 267.818 168.488C268.33 167.613 269.034 166.931 269.93 166.44C270.826 165.949 271.829 165.704 272.938 165.704C273.77 165.704 274.538 165.843 275.242 166.12C275.946 166.397 276.544 166.803 277.034 167.336L276.282 168.088C275.408 167.203 274.304 166.76 272.97 166.76C272.085 166.76 271.28 166.963 270.554 167.368C269.829 167.773 269.258 168.328 268.842 169.032C268.437 169.736 268.234 170.525 268.234 171.4C268.234 172.275 268.437 173.064 268.842 173.768C269.258 174.472 269.829 175.027 270.554 175.432C271.28 175.837 272.085 176.04 272.97 176.04C274.314 176.04 275.418 175.592 276.282 174.696L277.034 175.448C276.544 175.981 275.941 176.392 275.226 176.68C274.522 176.957 273.754 177.096 272.922 177.096ZM282.383 177.08C281.573 177.08 280.842 176.899 280.191 176.536C279.541 176.163 279.029 175.651 278.655 175C278.282 174.349 278.095 173.613 278.095 172.792C278.095 171.971 278.282 171.235 278.655 170.584C279.029 169.933 279.541 169.427 280.191 169.064C280.842 168.701 281.573 168.52 282.383 168.52C283.194 168.52 283.925 168.701 284.575 169.064C285.226 169.427 285.733 169.933 286.095 170.584C286.469 171.235 286.655 171.971 286.655 172.792C286.655 173.613 286.469 174.349 286.095 175C285.733 175.651 285.226 176.163 284.575 176.536C283.925 176.899 283.194 177.08 282.383 177.08ZM282.383 176.072C282.981 176.072 283.514 175.939 283.983 175.672C284.463 175.395 284.837 175.005 285.103 174.504C285.37 174.003 285.503 173.432 285.503 172.792C285.503 172.152 285.37 171.581 285.103 171.08C284.837 170.579 284.463 170.195 283.983 169.928C283.514 169.651 282.981 169.512 282.383 169.512C281.786 169.512 281.247 169.651 280.767 169.928C280.298 170.195 279.925 170.579 279.647 171.08C279.381 171.581 279.247 172.152 279.247 172.792C279.247 173.432 279.381 174.003 279.647 174.504C279.925 175.005 280.298 175.395 280.767 175.672C281.247 175.939 281.786 176.072 282.383 176.072ZM299.471 168.52C300.527 168.52 301.353 168.824 301.951 169.432C302.559 170.04 302.863 170.936 302.863 172.12V177H301.727V172.232C301.727 171.357 301.513 170.691 301.087 170.232C300.671 169.773 300.079 169.544 299.311 169.544C298.436 169.544 297.748 169.816 297.247 170.36C296.745 170.893 296.495 171.635 296.495 172.584V177H295.359V172.232C295.359 171.357 295.145 170.691 294.719 170.232C294.303 169.773 293.705 169.544 292.927 169.544C292.063 169.544 291.375 169.816 290.863 170.36C290.361 170.893 290.111 171.635 290.111 172.584V177H288.975V168.584H290.063V170.12C290.361 169.608 290.777 169.213 291.311 168.936C291.844 168.659 292.457 168.52 293.151 168.52C293.855 168.52 294.463 168.669 294.975 168.968C295.497 169.267 295.887 169.709 296.143 170.296C296.452 169.741 296.895 169.309 297.471 169C298.057 168.68 298.724 168.52 299.471 168.52ZM316.439 168.52C317.495 168.52 318.322 168.824 318.919 169.432C319.527 170.04 319.831 170.936 319.831 172.12V177H318.695V172.232C318.695 171.357 318.482 170.691 318.055 170.232C317.639 169.773 317.047 169.544 316.279 169.544C315.405 169.544 314.717 169.816 314.215 170.36C313.714 170.893 313.463 171.635 313.463 172.584V177H312.327V172.232C312.327 171.357 312.114 170.691 311.687 170.232C311.271 169.773 310.674 169.544 309.895 169.544C309.031 169.544 308.343 169.816 307.831 170.36C307.33 170.893 307.079 171.635 307.079 172.584V177H305.943V168.584H307.031V170.12C307.33 169.608 307.746 169.213 308.279 168.936C308.813 168.659 309.426 168.52 310.119 168.52C310.823 168.52 311.431 168.669 311.943 168.968C312.466 169.267 312.855 169.709 313.111 170.296C313.421 169.741 313.863 169.309 314.439 169C315.026 168.68 315.693 168.52 316.439 168.52ZM330.496 168.584V177H329.408V175.464C329.109 175.976 328.699 176.376 328.176 176.664C327.653 176.941 327.056 177.08 326.384 177.08C325.285 177.08 324.416 176.776 323.776 176.168C323.147 175.549 322.832 174.648 322.832 173.464V168.584H323.968V173.352C323.968 174.237 324.187 174.909 324.624 175.368C325.061 175.827 325.685 176.056 326.496 176.056C327.381 176.056 328.08 175.789 328.592 175.256C329.104 174.712 329.36 173.96 329.36 173V168.584H330.496ZM337.966 168.52C339.022 168.52 339.859 168.829 340.478 169.448C341.107 170.056 341.422 170.947 341.422 172.12V177H340.286V172.232C340.286 171.357 340.067 170.691 339.63 170.232C339.192 169.773 338.568 169.544 337.758 169.544C336.851 169.544 336.131 169.816 335.598 170.36C335.075 170.893 334.814 171.635 334.814 172.584V177H333.678V168.584H334.766V170.136C335.075 169.624 335.502 169.229 336.046 168.952C336.6 168.664 337.24 168.52 337.966 168.52ZM344.506 168.584H345.642V177H344.506V168.584ZM345.082 166.744C344.847 166.744 344.65 166.664 344.49 166.504C344.33 166.344 344.25 166.152 344.25 165.928C344.25 165.715 344.33 165.528 344.49 165.368C344.65 165.208 344.847 165.128 345.082 165.128C345.317 165.128 345.514 165.208 345.674 165.368C345.834 165.517 345.914 165.699 345.914 165.912C345.914 166.147 345.834 166.344 345.674 166.504C345.514 166.664 345.317 166.744 345.082 166.744ZM352.291 177.08C351.459 177.08 350.712 176.899 350.051 176.536C349.4 176.173 348.888 175.667 348.515 175.016C348.141 174.355 347.955 173.613 347.955 172.792C347.955 171.971 348.141 171.235 348.515 170.584C348.888 169.933 349.4 169.427 350.051 169.064C350.712 168.701 351.459 168.52 352.291 168.52C353.016 168.52 353.661 168.664 354.227 168.952C354.803 169.229 355.256 169.64 355.587 170.184L354.739 170.76C354.461 170.344 354.109 170.035 353.683 169.832C353.256 169.619 352.792 169.512 352.291 169.512C351.683 169.512 351.133 169.651 350.643 169.928C350.163 170.195 349.784 170.579 349.507 171.08C349.24 171.581 349.107 172.152 349.107 172.792C349.107 173.443 349.24 174.019 349.507 174.52C349.784 175.011 350.163 175.395 350.643 175.672C351.133 175.939 351.683 176.072 352.291 176.072C352.792 176.072 353.256 175.971 353.683 175.768C354.109 175.565 354.461 175.256 354.739 174.84L355.587 175.416C355.256 175.96 354.803 176.376 354.227 176.664C353.651 176.941 353.005 177.08 352.291 177.08ZM360.762 168.52C361.861 168.52 362.704 168.797 363.29 169.352C363.877 169.896 364.17 170.707 364.17 171.784V177H363.082V175.688C362.826 176.125 362.448 176.467 361.946 176.712C361.456 176.957 360.869 177.08 360.186 177.08C359.248 177.08 358.501 176.856 357.946 176.408C357.392 175.96 357.114 175.368 357.114 174.632C357.114 173.917 357.37 173.341 357.882 172.904C358.405 172.467 359.232 172.248 360.362 172.248H363.034V171.736C363.034 171.011 362.832 170.461 362.426 170.088C362.021 169.704 361.429 169.512 360.65 169.512C360.117 169.512 359.605 169.603 359.114 169.784C358.624 169.955 358.202 170.195 357.85 170.504L357.338 169.656C357.765 169.293 358.277 169.016 358.874 168.824C359.472 168.621 360.101 168.52 360.762 168.52ZM360.362 176.184C361.002 176.184 361.552 176.04 362.01 175.752C362.469 175.453 362.81 175.027 363.034 174.472V173.096H360.394C358.954 173.096 358.234 173.597 358.234 174.6C358.234 175.091 358.421 175.48 358.794 175.768C359.168 176.045 359.69 176.184 360.362 176.184ZM371.688 176.488C371.475 176.68 371.208 176.829 370.888 176.936C370.579 177.032 370.253 177.08 369.912 177.08C369.123 177.08 368.515 176.867 368.088 176.44C367.661 176.013 367.448 175.411 367.448 174.632V169.544H365.944V168.584H367.448V166.744H368.584V168.584H371.144V169.544H368.584V174.568C368.584 175.069 368.707 175.453 368.952 175.72C369.208 175.976 369.571 176.104 370.04 176.104C370.275 176.104 370.499 176.067 370.712 175.992C370.936 175.917 371.128 175.811 371.288 175.672L371.688 176.488ZM373.756 168.584H374.892V177H373.756V168.584ZM374.332 166.744C374.097 166.744 373.9 166.664 373.74 166.504C373.58 166.344 373.5 166.152 373.5 165.928C373.5 165.715 373.58 165.528 373.74 165.368C373.9 165.208 374.097 165.128 374.332 165.128C374.567 165.128 374.764 165.208 374.924 165.368C375.084 165.517 375.164 165.699 375.164 165.912C375.164 166.147 375.084 166.344 374.924 166.504C374.764 166.664 374.567 166.744 374.332 166.744ZM381.493 177.08C380.682 177.08 379.951 176.899 379.301 176.536C378.65 176.163 378.138 175.651 377.765 175C377.391 174.349 377.205 173.613 377.205 172.792C377.205 171.971 377.391 171.235 377.765 170.584C378.138 169.933 378.65 169.427 379.301 169.064C379.951 168.701 380.682 168.52 381.493 168.52C382.303 168.52 383.034 168.701 383.685 169.064C384.335 169.427 384.842 169.933 385.205 170.584C385.578 171.235 385.765 171.971 385.765 172.792C385.765 173.613 385.578 174.349 385.205 175C384.842 175.651 384.335 176.163 383.685 176.536C383.034 176.899 382.303 177.08 381.493 177.08ZM381.493 176.072C382.09 176.072 382.623 175.939 383.093 175.672C383.573 175.395 383.946 175.005 384.213 174.504C384.479 174.003 384.613 173.432 384.613 172.792C384.613 172.152 384.479 171.581 384.213 171.08C383.946 170.579 383.573 170.195 383.093 169.928C382.623 169.651 382.09 169.512 381.493 169.512C380.895 169.512 380.357 169.651 379.877 169.928C379.407 170.195 379.034 170.579 378.757 171.08C378.49 171.581 378.357 172.152 378.357 172.792C378.357 173.432 378.49 174.003 378.757 174.504C379.034 175.005 379.407 175.395 379.877 175.672C380.357 175.939 380.895 176.072 381.493 176.072ZM392.372 168.52C393.428 168.52 394.265 168.829 394.884 169.448C395.513 170.056 395.828 170.947 395.828 172.12V177H394.692V172.232C394.692 171.357 394.473 170.691 394.036 170.232C393.599 169.773 392.975 169.544 392.164 169.544C391.257 169.544 390.537 169.816 390.004 170.36C389.481 170.893 389.22 171.635 389.22 172.584V177H388.084V168.584H389.172V170.136C389.481 169.624 389.908 169.229 390.452 168.952C391.007 168.664 391.647 168.52 392.372 168.52ZM401.168 177.08C400.485 177.08 399.829 176.984 399.2 176.792C398.581 176.589 398.096 176.339 397.744 176.04L398.256 175.144C398.608 175.421 399.051 175.651 399.584 175.832C400.117 176.003 400.672 176.088 401.248 176.088C402.016 176.088 402.581 175.971 402.944 175.736C403.317 175.491 403.504 175.149 403.504 174.712C403.504 174.403 403.403 174.163 403.2 173.992C402.997 173.811 402.741 173.677 402.432 173.592C402.123 173.496 401.712 173.405 401.2 173.32C400.517 173.192 399.968 173.064 399.552 172.936C399.136 172.797 398.779 172.568 398.48 172.248C398.192 171.928 398.048 171.485 398.048 170.92C398.048 170.216 398.341 169.64 398.928 169.192C399.515 168.744 400.331 168.52 401.376 168.52C401.92 168.52 402.464 168.595 403.008 168.744C403.552 168.883 404 169.069 404.352 169.304L403.856 170.216C403.163 169.736 402.336 169.496 401.376 169.496C400.651 169.496 400.101 169.624 399.728 169.88C399.365 170.136 399.184 170.472 399.184 170.888C399.184 171.208 399.285 171.464 399.488 171.656C399.701 171.848 399.963 171.992 400.272 172.088C400.581 172.173 401.008 172.264 401.552 172.36C402.224 172.488 402.763 172.616 403.168 172.744C403.573 172.872 403.92 173.091 404.208 173.4C404.496 173.709 404.64 174.136 404.64 174.68C404.64 175.416 404.331 176.003 403.712 176.44C403.104 176.867 402.256 177.08 401.168 177.08Z" fill="white"/>
<rect x="9" y="6" width="2" height="300" fill="white"/>
<path d="M154.875 280.5L148.975 298H147.025L141.9 283.075L136.75 298H134.825L128.925 280.5H130.825L135.875 295.55L141.1 280.5H142.825L147.975 295.625L153.1 280.5H154.875ZM164.958 284.75C166.608 284.75 167.917 285.233 168.883 286.2C169.867 287.15 170.358 288.542 170.358 290.375V298H168.583V290.55C168.583 289.183 168.242 288.142 167.558 287.425C166.875 286.708 165.9 286.35 164.633 286.35C163.217 286.35 162.092 286.775 161.258 287.625C160.442 288.458 160.033 289.617 160.033 291.1V298H158.258V279.45H160.033V287.15C160.517 286.383 161.183 285.792 162.033 285.375C162.883 284.958 163.858 284.75 164.958 284.75ZM179.777 284.75C181.494 284.75 182.81 285.183 183.727 286.05C184.644 286.9 185.102 288.167 185.102 289.85V298H183.402V295.95C183.002 296.633 182.41 297.167 181.627 297.55C180.86 297.933 179.944 298.125 178.877 298.125C177.41 298.125 176.244 297.775 175.377 297.075C174.51 296.375 174.077 295.45 174.077 294.3C174.077 293.183 174.477 292.283 175.277 291.6C176.094 290.917 177.385 290.575 179.152 290.575H183.327V289.775C183.327 288.642 183.01 287.783 182.377 287.2C181.744 286.6 180.819 286.3 179.602 286.3C178.769 286.3 177.969 286.442 177.202 286.725C176.435 286.992 175.777 287.367 175.227 287.85L174.427 286.525C175.094 285.958 175.894 285.525 176.827 285.225C177.76 284.908 178.744 284.75 179.777 284.75ZM179.152 296.725C180.152 296.725 181.01 296.5 181.727 296.05C182.444 295.583 182.977 294.917 183.327 294.05V291.9H179.202C176.952 291.9 175.827 292.683 175.827 294.25C175.827 295.017 176.119 295.625 176.702 296.075C177.285 296.508 178.102 296.725 179.152 296.725ZM196.848 297.2C196.515 297.5 196.098 297.733 195.598 297.9C195.115 298.05 194.607 298.125 194.073 298.125C192.84 298.125 191.89 297.792 191.223 297.125C190.557 296.458 190.223 295.517 190.223 294.3V286.35H187.873V284.85H190.223V281.975H191.998V284.85H195.998V286.35H191.998V294.2C191.998 294.983 192.19 295.583 192.573 296C192.973 296.4 193.54 296.6 194.273 296.6C194.64 296.6 194.99 296.542 195.323 296.425C195.673 296.308 195.973 296.142 196.223 295.925L196.848 297.2ZM200.279 279.325C200.663 279.325 200.979 279.458 201.229 279.725C201.479 279.975 201.604 280.292 201.604 280.675C201.604 280.875 201.571 281.092 201.504 281.325C201.454 281.542 201.379 281.8 201.279 282.1L200.204 285.55H199.004L199.879 281.95C199.596 281.867 199.371 281.717 199.204 281.5C199.038 281.267 198.954 280.992 198.954 280.675C198.954 280.275 199.079 279.95 199.329 279.7C199.579 279.45 199.896 279.325 200.279 279.325ZM208.512 298.125C207.445 298.125 206.42 297.975 205.437 297.675C204.47 297.358 203.712 296.967 203.162 296.5L203.962 295.1C204.512 295.533 205.203 295.892 206.037 296.175C206.87 296.442 207.737 296.575 208.637 296.575C209.837 296.575 210.72 296.392 211.287 296.025C211.87 295.642 212.162 295.108 212.162 294.425C212.162 293.942 212.003 293.567 211.687 293.3C211.37 293.017 210.97 292.808 210.487 292.675C210.003 292.525 209.362 292.383 208.562 292.25C207.495 292.05 206.637 291.85 205.987 291.65C205.337 291.433 204.778 291.075 204.312 290.575C203.862 290.075 203.637 289.383 203.637 288.5C203.637 287.4 204.095 286.5 205.012 285.8C205.928 285.1 207.203 284.75 208.837 284.75C209.687 284.75 210.537 284.867 211.387 285.1C212.237 285.317 212.937 285.608 213.487 285.975L212.712 287.4C211.628 286.65 210.337 286.275 208.837 286.275C207.703 286.275 206.845 286.475 206.262 286.875C205.695 287.275 205.412 287.8 205.412 288.45C205.412 288.95 205.57 289.35 205.887 289.65C206.22 289.95 206.628 290.175 207.112 290.325C207.595 290.458 208.262 290.6 209.112 290.75C210.162 290.95 211.003 291.15 211.637 291.35C212.27 291.55 212.812 291.892 213.262 292.375C213.712 292.858 213.937 293.525 213.937 294.375C213.937 295.525 213.453 296.442 212.487 297.125C211.537 297.792 210.212 298.125 208.512 298.125ZM230.461 284.75C232.111 284.75 233.419 285.233 234.386 286.2C235.369 287.15 235.861 288.542 235.861 290.375V298H234.086V290.55C234.086 289.183 233.744 288.142 233.061 287.425C232.378 286.708 231.403 286.35 230.136 286.35C228.719 286.35 227.594 286.775 226.761 287.625C225.944 288.458 225.536 289.617 225.536 291.1V298H223.761V284.85H225.461V287.275C225.944 286.475 226.611 285.858 227.461 285.425C228.328 284.975 229.328 284.75 230.461 284.75ZM252.179 291.975H241.179C241.279 293.342 241.804 294.45 242.754 295.3C243.704 296.133 244.904 296.55 246.354 296.55C247.171 296.55 247.921 296.408 248.604 296.125C249.287 295.825 249.879 295.392 250.379 294.825L251.379 295.975C250.796 296.675 250.062 297.208 249.179 297.575C248.312 297.942 247.354 298.125 246.304 298.125C244.954 298.125 243.754 297.842 242.704 297.275C241.671 296.692 240.862 295.892 240.279 294.875C239.696 293.858 239.404 292.708 239.404 291.425C239.404 290.142 239.679 288.992 240.229 287.975C240.796 286.958 241.562 286.167 242.529 285.6C243.512 285.033 244.612 284.75 245.829 284.75C247.046 284.75 248.137 285.033 249.104 285.6C250.071 286.167 250.829 286.958 251.379 287.975C251.929 288.975 252.204 290.125 252.204 291.425L252.179 291.975ZM245.829 286.275C244.562 286.275 243.496 286.683 242.629 287.5C241.779 288.3 241.296 289.35 241.179 290.65H250.504C250.387 289.35 249.896 288.3 249.029 287.5C248.179 286.683 247.112 286.275 245.829 286.275ZM263.826 298L259.651 292.5L255.451 298H253.451L258.651 291.25L253.701 284.85H255.701L259.651 290L263.601 284.85H265.551L260.601 291.25L265.851 298H263.826ZM275.73 297.2C275.397 297.5 274.98 297.733 274.48 297.9C273.997 298.05 273.488 298.125 272.955 298.125C271.722 298.125 270.772 297.792 270.105 297.125C269.438 296.458 269.105 295.517 269.105 294.3V286.35H266.755V284.85H269.105V281.975H270.88V284.85H274.88V286.35H270.88V294.2C270.88 294.983 271.072 295.583 271.455 296C271.855 296.4 272.422 296.6 273.155 296.6C273.522 296.6 273.872 296.542 274.205 296.425C274.555 296.308 274.855 296.142 275.105 295.925L275.73 297.2ZM281.922 292.75C281.922 292.067 282.03 291.467 282.247 290.95C282.48 290.433 282.764 289.992 283.097 289.625C283.43 289.258 283.864 288.842 284.397 288.375C285.114 287.742 285.639 287.192 285.972 286.725C286.322 286.242 286.497 285.658 286.497 284.975C286.497 284.058 286.139 283.325 285.422 282.775C284.705 282.208 283.722 281.925 282.472 281.925C280.405 281.925 278.814 282.6 277.697 283.95L276.372 282.95C277.789 281.217 279.864 280.35 282.597 280.35C284.347 280.35 285.739 280.742 286.772 281.525C287.822 282.308 288.347 283.367 288.347 284.7C288.347 285.383 288.23 285.992 287.997 286.525C287.78 287.042 287.505 287.483 287.172 287.85C286.855 288.217 286.43 288.642 285.897 289.125C285.18 289.775 284.647 290.358 284.297 290.875C283.947 291.375 283.772 292 283.772 292.75H281.922ZM282.847 298.125C282.48 298.125 282.172 298 281.922 297.75C281.672 297.483 281.547 297.175 281.547 296.825C281.547 296.458 281.672 296.158 281.922 295.925C282.172 295.675 282.48 295.55 282.847 295.55C283.23 295.55 283.547 295.675 283.797 295.925C284.047 296.158 284.172 296.458 284.172 296.825C284.172 297.175 284.039 297.483 283.772 297.75C283.522 298 283.214 298.125 282.847 298.125Z" fill="white"/>
<rect x="1" y="278" width="18" height="18" rx="9" fill="white" stroke="#222222" stroke-width="2"/>
<rect x="1" y="147" width="18" height="18" rx="9" fill="white" stroke="#222222" stroke-width="2"/>
<rect x="1" y="16" width="18" height="18" rx="9" fill="white" stroke="#222222" stroke-width="2"/>
</svg>
