<svg width="665" height="306" viewBox="0 0 665 306" fill="none" xmlns="http://www.w3.org/2000/svg">
<path d="M229.475 6.5V24H227.65V15.925H216.7V24H214.85V6.5H216.7V14.3H227.65V6.5H229.475ZM238.587 8.1H232.437V6.5H246.587V8.1H240.437V24H238.587V8.1ZM259.761 24L254.111 16.3L248.486 24H246.361L253.011 15L246.786 6.5H248.911L254.186 13.65L259.436 6.5H261.436L255.236 14.95L261.911 24H259.761ZM283.685 24L279.685 18.375C279.235 18.425 278.768 18.45 278.285 18.45H273.585V24H271.735V6.5H278.285C280.518 6.5 282.268 7.03333 283.535 8.1C284.801 9.16667 285.435 10.6333 285.435 12.5C285.435 13.8667 285.085 15.025 284.385 15.975C283.701 16.9083 282.718 17.5833 281.435 18L285.71 24H283.685ZM278.235 16.875C279.968 16.875 281.293 16.4917 282.21 15.725C283.126 14.9583 283.585 13.8833 283.585 12.5C283.585 11.0833 283.126 10 282.21 9.25C281.293 8.48333 279.968 8.1 278.235 8.1H273.585V16.875H278.235ZM294.801 24.125C293.535 24.125 292.393 23.8417 291.376 23.275C290.36 22.6917 289.56 21.8917 288.976 20.875C288.393 19.8583 288.101 18.7083 288.101 17.425C288.101 16.1417 288.393 14.9917 288.976 13.975C289.56 12.9583 290.36 12.1667 291.376 11.6C292.393 11.0333 293.535 10.75 294.801 10.75C296.068 10.75 297.21 11.0333 298.226 11.6C299.243 12.1667 300.035 12.9583 300.601 13.975C301.185 14.9917 301.476 16.1417 301.476 17.425C301.476 18.7083 301.185 19.8583 300.601 20.875C300.035 21.8917 299.243 22.6917 298.226 23.275C297.21 23.8417 296.068 24.125 294.801 24.125ZM294.801 22.55C295.735 22.55 296.568 22.3417 297.301 21.925C298.051 21.4917 298.635 20.8833 299.051 20.1C299.468 19.3167 299.676 18.425 299.676 17.425C299.676 16.425 299.468 15.5333 299.051 14.75C298.635 13.9667 298.051 13.3667 297.301 12.95C296.568 12.5167 295.735 12.3 294.801 12.3C293.868 12.3 293.026 12.5167 292.276 12.95C291.543 13.3667 290.96 13.9667 290.526 14.75C290.11 15.5333 289.901 16.425 289.901 17.425C289.901 18.425 290.11 19.3167 290.526 20.1C290.96 20.8833 291.543 21.4917 292.276 21.925C293.026 22.3417 293.868 22.55 294.801 22.55ZM308.625 24.125C307.558 24.125 306.533 23.975 305.55 23.675C304.583 23.3583 303.825 22.9667 303.275 22.5L304.075 21.1C304.625 21.5333 305.317 21.8917 306.15 22.175C306.983 22.4417 307.85 22.575 308.75 22.575C309.95 22.575 310.833 22.3917 311.4 22.025C311.983 21.6417 312.275 21.1083 312.275 20.425C312.275 19.9417 312.117 19.5667 311.8 19.3C311.483 19.0167 311.083 18.8083 310.6 18.675C310.117 18.525 309.475 18.3833 308.675 18.25C307.608 18.05 306.75 17.85 306.1 17.65C305.45 17.4333 304.892 17.075 304.425 16.575C303.975 16.075 303.75 15.3833 303.75 14.5C303.75 13.4 304.208 12.5 305.125 11.8C306.042 11.1 307.317 10.75 308.95 10.75C309.8 10.75 310.65 10.8667 311.5 11.1C312.35 11.3167 313.05 11.6083 313.6 11.975L312.825 13.4C311.742 12.65 310.45 12.275 308.95 12.275C307.817 12.275 306.958 12.475 306.375 12.875C305.808 13.275 305.525 13.8 305.525 14.45C305.525 14.95 305.683 15.35 306 15.65C306.333 15.95 306.742 16.175 307.225 16.325C307.708 16.4583 308.375 16.6 309.225 16.75C310.275 16.95 311.117 17.15 311.75 17.35C312.383 17.55 312.925 17.8917 313.375 18.375C313.825 18.8583 314.05 19.525 314.05 20.375C314.05 21.525 313.567 22.4417 312.6 23.125C311.65 23.7917 310.325 24.125 308.625 24.125ZM322.206 17.4L319.106 20.25V24H317.331V5.45H319.106V18.025L326.956 10.85H329.156L323.531 16.225L329.681 24H327.506L322.206 17.4ZM332.151 10.85H333.926V24H332.151V10.85ZM333.051 7.975C332.684 7.975 332.376 7.85 332.126 7.6C331.876 7.35 331.751 7.05 331.751 6.7C331.751 6.36667 331.876 6.075 332.126 5.825C332.376 5.575 332.684 5.45 333.051 5.45C333.417 5.45 333.726 5.575 333.976 5.825C334.226 6.05833 334.351 6.34167 334.351 6.675C334.351 7.04167 334.226 7.35 333.976 7.6C333.726 7.85 333.417 7.975 333.051 7.975ZM338.865 5.45H340.64V24H338.865V5.45ZM357.579 5.45V24H355.879V21.4C355.345 22.2833 354.637 22.9583 353.754 23.425C352.887 23.8917 351.904 24.125 350.804 24.125C349.57 24.125 348.454 23.8417 347.454 23.275C346.454 22.7083 345.67 21.9167 345.104 20.9C344.537 19.8833 344.254 18.725 344.254 17.425C344.254 16.125 344.537 14.9667 345.104 13.95C345.67 12.9333 346.454 12.15 347.454 11.6C348.454 11.0333 349.57 10.75 350.804 10.75C351.87 10.75 352.829 10.975 353.679 11.425C354.545 11.8583 355.254 12.5 355.804 13.35V5.45H357.579ZM350.954 22.55C351.87 22.55 352.695 22.3417 353.429 21.925C354.179 21.4917 354.762 20.8833 355.179 20.1C355.612 19.3167 355.829 18.425 355.829 17.425C355.829 16.425 355.612 15.5333 355.179 14.75C354.762 13.9667 354.179 13.3667 353.429 12.95C352.695 12.5167 351.87 12.3 350.954 12.3C350.02 12.3 349.179 12.5167 348.429 12.95C347.695 13.3667 347.112 13.9667 346.679 14.75C346.262 15.5333 346.054 16.425 346.054 17.425C346.054 18.425 346.262 19.3167 346.679 20.1C347.112 20.8833 347.695 21.4917 348.429 21.925C349.179 22.3417 350.02 22.55 350.954 22.55ZM373.972 17.975H362.972C363.072 19.3417 363.597 20.45 364.547 21.3C365.497 22.1333 366.697 22.55 368.147 22.55C368.964 22.55 369.714 22.4083 370.397 22.125C371.08 21.825 371.672 21.3917 372.172 20.825L373.172 21.975C372.589 22.675 371.855 23.2083 370.972 23.575C370.105 23.9417 369.147 24.125 368.097 24.125C366.747 24.125 365.547 23.8417 364.497 23.275C363.464 22.6917 362.655 21.8917 362.072 20.875C361.489 19.8583 361.197 18.7083 361.197 17.425C361.197 16.1417 361.472 14.9917 362.022 13.975C362.589 12.9583 363.355 12.1667 364.322 11.6C365.305 11.0333 366.405 10.75 367.622 10.75C368.839 10.75 369.93 11.0333 370.897 11.6C371.864 12.1667 372.622 12.9583 373.172 13.975C373.722 14.975 373.997 16.125 373.997 17.425L373.972 17.975ZM367.622 12.275C366.355 12.275 365.289 12.6833 364.422 13.5C363.572 14.3 363.089 15.35 362.972 16.65H372.297C372.18 15.35 371.689 14.3 370.822 13.5C369.972 12.6833 368.905 12.275 367.622 12.275Z" fill="white"/>
<path d="M47.589 33.9968V36H32.2207V34.4037L41.329 25.4832C42.4767 24.3564 43.2487 23.3861 43.6452 22.5723C44.0625 21.7376 44.2712 20.903 44.2712 20.0683C44.2712 18.7746 43.8226 17.773 42.9253 17.0635C42.0489 16.3332 40.7865 15.968 39.138 15.968C36.5714 15.968 34.5786 16.7818 33.1597 18.4094L31.5634 17.0322C32.4189 16.0306 33.504 15.2585 34.8186 14.716C36.1541 14.1735 37.6565 13.9022 39.3258 13.9022C41.5585 13.9022 43.3218 14.4343 44.6155 15.4985C45.9301 16.5418 46.5874 17.9816 46.5874 19.8179C46.5874 20.9447 46.337 22.0298 45.8362 23.0731C45.3354 24.1164 44.386 25.3163 42.9879 26.6726L35.5385 33.9968H47.589ZM59.0277 36.1878C57.3375 36.1878 55.8246 35.7392 54.4892 34.8419C53.1746 33.9446 52.1417 32.6613 51.3905 30.992C50.6601 29.3018 50.295 27.3195 50.295 25.045C50.295 22.7705 50.6601 20.7986 51.3905 19.1293C52.1417 17.4391 53.1746 16.1454 54.4892 15.2481C55.8246 14.3508 57.3375 13.9022 59.0277 13.9022C60.7179 13.9022 62.2203 14.3508 63.5349 15.2481C64.8704 16.1454 65.9137 17.4391 66.6649 19.1293C67.4161 20.7986 67.7917 22.7705 67.7917 25.045C67.7917 27.3195 67.4161 29.3018 66.6649 30.992C65.9137 32.6613 64.8704 33.9446 63.5349 34.8419C62.2203 35.7392 60.7179 36.1878 59.0277 36.1878ZM59.0277 34.122C60.3006 34.122 61.4169 33.7673 62.3768 33.0578C63.3575 32.3483 64.1192 31.3154 64.6617 29.9591C65.2042 28.6028 65.4755 26.9647 65.4755 25.045C65.4755 23.1253 65.2042 21.4872 64.6617 20.1309C64.1192 18.7746 63.3575 17.7417 62.3768 17.0322C61.4169 16.3227 60.3006 15.968 59.0277 15.968C57.7548 15.968 56.628 16.3227 55.6473 17.0322C54.6874 17.7417 53.9362 18.7746 53.3937 20.1309C52.8511 21.4872 52.5799 23.1253 52.5799 25.045C52.5799 26.9647 52.8511 28.6028 53.3937 29.9591C53.9362 31.3154 54.6874 32.3483 55.6473 33.0578C56.628 33.7673 57.7548 34.122 59.0277 34.122ZM77.0301 14.09V36H74.7765V16.0932H69.612V14.09H77.0301ZM100.891 30.2408H96.5089V36H94.2553V30.2408H81.8918V28.6132L93.5041 14.09H96.0081L84.8027 28.2376H94.3179V23.167H96.5089V28.2376H100.891V30.2408ZM103.517 26.5474H111.718V28.488H103.517V26.5474ZM129.813 33.9968V36H114.444V34.4037L123.553 25.4832C124.7 24.3564 125.472 23.3861 125.869 22.5723C126.286 21.7376 126.495 20.903 126.495 20.0683C126.495 18.7746 126.046 17.773 125.149 17.0635C124.273 16.3332 123.01 15.968 121.362 15.968C118.795 15.968 116.802 16.7818 115.383 18.4094L113.787 17.0322C114.643 16.0306 115.728 15.2585 117.042 14.716C118.378 14.1735 119.88 13.9022 121.549 13.9022C123.782 13.9022 125.545 14.4343 126.839 15.4985C128.154 16.5418 128.811 17.9816 128.811 19.8179C128.811 20.9447 128.561 22.0298 128.06 23.0731C127.559 24.1164 126.61 25.3163 125.212 26.6726L117.762 33.9968H129.813ZM141.251 36.1878C139.561 36.1878 138.048 35.7392 136.713 34.8419C135.398 33.9446 134.365 32.6613 133.614 30.992C132.884 29.3018 132.519 27.3195 132.519 25.045C132.519 22.7705 132.884 20.7986 133.614 19.1293C134.365 17.4391 135.398 16.1454 136.713 15.2481C138.048 14.3508 139.561 13.9022 141.251 13.9022C142.942 13.9022 144.444 14.3508 145.759 15.2481C147.094 16.1454 148.137 17.4391 148.889 19.1293C149.64 20.7986 150.015 22.7705 150.015 25.045C150.015 27.3195 149.64 29.3018 148.889 30.992C148.137 32.6613 147.094 33.9446 145.759 34.8419C144.444 35.7392 142.942 36.1878 141.251 36.1878ZM141.251 34.122C142.524 34.122 143.641 33.7673 144.6 33.0578C145.581 32.3483 146.343 31.3154 146.885 29.9591C147.428 28.6028 147.699 26.9647 147.699 25.045C147.699 23.1253 147.428 21.4872 146.885 20.1309C146.343 18.7746 145.581 17.7417 144.6 17.0322C143.641 16.3227 142.524 15.968 141.251 15.968C139.978 15.968 138.852 16.3227 137.871 17.0322C136.911 17.7417 136.16 18.7746 135.617 20.1309C135.075 21.4872 134.804 23.1253 134.804 25.045C134.804 26.9647 135.075 28.6028 135.617 29.9591C136.16 31.3154 136.911 32.3483 137.871 33.0578C138.852 33.7673 139.978 34.122 141.251 34.122ZM159.254 14.09V36H157V16.0932H151.836V14.09H159.254ZM179.953 14.09V15.6863L170.782 36H168.341L177.355 16.0932H166.087V20.1935H163.865V14.09H179.953Z" fill="white"/>
<path d="M47.589 295.997V298H32.2207V296.404L41.329 287.483C42.4767 286.356 43.2487 285.386 43.6452 284.572C44.0625 283.738 44.2712 282.903 44.2712 282.068C44.2712 280.775 43.8226 279.773 42.9253 279.063C42.0489 278.333 40.7865 277.968 39.138 277.968C36.5714 277.968 34.5786 278.782 33.1597 280.409L31.5634 279.032C32.4189 278.031 33.504 277.259 34.8186 276.716C36.1541 276.173 37.6565 275.902 39.3258 275.902C41.5585 275.902 43.3218 276.434 44.6155 277.498C45.9301 278.542 46.5874 279.982 46.5874 281.818C46.5874 282.945 46.337 284.03 45.8362 285.073C45.3354 286.116 44.386 287.316 42.9879 288.673L35.5385 295.997H47.589ZM59.0277 298.188C57.3375 298.188 55.8246 297.739 54.4892 296.842C53.1746 295.945 52.1417 294.661 51.3905 292.992C50.6601 291.302 50.295 289.319 50.295 287.045C50.295 284.771 50.6601 282.799 51.3905 281.129C52.1417 279.439 53.1746 278.145 54.4892 277.248C55.8246 276.351 57.3375 275.902 59.0277 275.902C60.7179 275.902 62.2203 276.351 63.5349 277.248C64.8704 278.145 65.9137 279.439 66.6649 281.129C67.4161 282.799 67.7917 284.771 67.7917 287.045C67.7917 289.319 67.4161 291.302 66.6649 292.992C65.9137 294.661 64.8704 295.945 63.5349 296.842C62.2203 297.739 60.7179 298.188 59.0277 298.188ZM59.0277 296.122C60.3006 296.122 61.4169 295.767 62.3768 295.058C63.3575 294.348 64.1192 293.315 64.6617 291.959C65.2042 290.603 65.4755 288.965 65.4755 287.045C65.4755 285.125 65.2042 283.487 64.6617 282.131C64.1192 280.775 63.3575 279.742 62.3768 279.032C61.4169 278.323 60.3006 277.968 59.0277 277.968C57.7548 277.968 56.628 278.323 55.6473 279.032C54.6874 279.742 53.9362 280.775 53.3937 282.131C52.8511 283.487 52.5799 285.125 52.5799 287.045C52.5799 288.965 52.8511 290.603 53.3937 291.959C53.9362 293.315 54.6874 294.348 55.6473 295.058C56.628 295.767 57.7548 296.122 59.0277 296.122ZM85.9193 295.997V298H70.551V296.404L79.6593 287.483C80.8069 286.356 81.579 285.386 81.9755 284.572C82.3928 283.738 82.6015 282.903 82.6015 282.068C82.6015 280.775 82.1528 279.773 81.2556 279.063C80.3792 278.333 79.1167 277.968 77.4683 277.968C74.9017 277.968 72.9089 278.782 71.49 280.409L69.8937 279.032C70.7492 278.031 71.8343 277.259 73.1489 276.716C74.4843 276.173 75.9867 275.902 77.6561 275.902C79.8888 275.902 81.652 276.434 82.9458 277.498C84.2604 278.542 84.9177 279.982 84.9177 281.818C84.9177 282.945 84.6673 284.03 84.1665 285.073C83.6657 286.116 82.7162 287.316 81.3182 288.673L73.8688 295.997H85.9193ZM94.8197 276.09V298H92.5661V278.093H87.4016V276.09H94.8197Z" fill="white"/>
<path d="M47.589 164.997V167H32.2207V165.404L41.329 156.483C42.4767 155.356 43.2487 154.386 43.6452 153.572C44.0625 152.738 44.2712 151.903 44.2712 151.068C44.2712 149.775 43.8226 148.773 42.9253 148.063C42.0489 147.333 40.7865 146.968 39.138 146.968C36.5714 146.968 34.5786 147.782 33.1597 149.409L31.5634 148.032C32.4189 147.031 33.504 146.259 34.8186 145.716C36.1541 145.173 37.6565 144.902 39.3258 144.902C41.5585 144.902 43.3218 145.434 44.6155 146.498C45.9301 147.542 46.5874 148.982 46.5874 150.818C46.5874 151.945 46.337 153.03 45.8362 154.073C45.3354 155.116 44.386 156.316 42.9879 157.673L35.5385 164.997H47.589ZM59.0277 167.188C57.3375 167.188 55.8246 166.739 54.4892 165.842C53.1746 164.945 52.1417 163.661 51.3905 161.992C50.6601 160.302 50.295 158.319 50.295 156.045C50.295 153.771 50.6601 151.799 51.3905 150.129C52.1417 148.439 53.1746 147.145 54.4892 146.248C55.8246 145.351 57.3375 144.902 59.0277 144.902C60.7179 144.902 62.2203 145.351 63.5349 146.248C64.8704 147.145 65.9137 148.439 66.6649 150.129C67.4161 151.799 67.7917 153.771 67.7917 156.045C67.7917 158.319 67.4161 160.302 66.6649 161.992C65.9137 163.661 64.8704 164.945 63.5349 165.842C62.2203 166.739 60.7179 167.188 59.0277 167.188ZM59.0277 165.122C60.3006 165.122 61.4169 164.767 62.3768 164.058C63.3575 163.348 64.1192 162.315 64.6617 160.959C65.2042 159.603 65.4755 157.965 65.4755 156.045C65.4755 154.125 65.2042 152.487 64.6617 151.131C64.1192 149.775 63.3575 148.742 62.3768 148.032C61.4169 147.323 60.3006 146.968 59.0277 146.968C57.7548 146.968 56.628 147.323 55.6473 148.032C54.6874 148.742 53.9362 149.775 53.3937 151.131C52.8511 152.487 52.5799 154.125 52.5799 156.045C52.5799 157.965 52.8511 159.603 53.3937 160.959C53.9362 162.315 54.6874 163.348 55.6473 164.058C56.628 164.767 57.7548 165.122 59.0277 165.122ZM77.0301 145.09V167H74.7765V147.093H69.612V145.09H77.0301ZM97.7296 145.09V146.686L88.5587 167H86.1173L95.1317 147.093H83.8637V151.194H81.6414V145.09H97.7296ZM99.3905 157.547H107.591V159.488H99.3905V157.547ZM125.686 164.997V167H110.318V165.404L119.426 156.483C120.574 155.356 121.346 154.386 121.742 153.572C122.16 152.738 122.368 151.903 122.368 151.068C122.368 149.775 121.92 148.773 121.022 148.063C120.146 147.333 118.884 146.968 117.235 146.968C114.669 146.968 112.676 147.782 111.257 149.409L109.661 148.032C110.516 147.031 111.601 146.259 112.916 145.716C114.251 145.173 115.754 144.902 117.423 144.902C119.656 144.902 121.419 145.434 122.713 146.498C124.027 147.542 124.685 148.982 124.685 150.818C124.685 151.945 124.434 153.03 123.933 154.073C123.433 155.116 122.483 156.316 121.085 157.673L113.636 164.997H125.686ZM137.125 167.188C135.435 167.188 133.922 166.739 132.586 165.842C131.272 164.945 130.239 163.661 129.488 161.992C128.757 160.302 128.392 158.319 128.392 156.045C128.392 153.771 128.757 151.799 129.488 150.129C130.239 148.439 131.272 147.145 132.586 146.248C133.922 145.351 135.435 144.902 137.125 144.902C138.815 144.902 140.317 145.351 141.632 146.248C142.968 147.145 144.011 148.439 144.762 150.129C145.513 151.799 145.889 153.771 145.889 156.045C145.889 158.319 145.513 160.302 144.762 161.992C144.011 163.661 142.968 164.945 141.632 165.842C140.317 166.739 138.815 167.188 137.125 167.188ZM137.125 165.122C138.398 165.122 139.514 164.767 140.474 164.058C141.455 163.348 142.216 162.315 142.759 160.959C143.301 159.603 143.573 157.965 143.573 156.045C143.573 154.125 143.301 152.487 142.759 151.131C142.216 149.775 141.455 148.742 140.474 148.032C139.514 147.323 138.398 146.968 137.125 146.968C135.852 146.968 134.725 147.323 133.744 148.032C132.785 148.742 132.033 149.775 131.491 151.131C130.948 152.487 130.677 154.125 130.677 156.045C130.677 157.965 130.948 159.603 131.491 160.959C132.033 162.315 132.785 163.348 133.744 164.058C134.725 164.767 135.852 165.122 137.125 165.122ZM164.016 164.997V167H148.648V165.404L157.756 156.483C158.904 155.356 159.676 154.386 160.073 153.572C160.49 152.738 160.699 151.903 160.699 151.068C160.699 149.775 160.25 148.773 159.353 148.063C158.476 147.333 157.214 146.968 155.565 146.968C152.999 146.968 151.006 147.782 149.587 149.409L147.991 148.032C148.846 147.031 149.931 146.259 151.246 145.716C152.582 145.173 154.084 144.902 155.753 144.902C157.986 144.902 159.749 145.434 161.043 146.498C162.358 147.542 163.015 148.982 163.015 150.818C163.015 151.945 162.764 153.03 162.264 154.073C161.763 155.116 160.813 156.316 159.415 157.673L151.966 164.997H164.016ZM175.455 167.188C173.765 167.188 172.252 166.739 170.917 165.842C169.602 164.945 168.569 163.661 167.818 161.992C167.088 160.302 166.722 158.319 166.722 156.045C166.722 153.771 167.088 151.799 167.818 150.129C168.569 148.439 169.602 147.145 170.917 146.248C172.252 145.351 173.765 144.902 175.455 144.902C177.145 144.902 178.648 145.351 179.962 146.248C181.298 147.145 182.341 148.439 183.092 150.129C183.844 151.799 184.219 153.771 184.219 156.045C184.219 158.319 183.844 160.302 183.092 161.992C182.341 163.661 181.298 164.945 179.962 165.842C178.648 166.739 177.145 167.188 175.455 167.188ZM175.455 165.122C176.728 165.122 177.844 164.767 178.804 164.058C179.785 163.348 180.547 162.315 181.089 160.959C181.632 159.603 181.903 157.965 181.903 156.045C181.903 154.125 181.632 152.487 181.089 151.131C180.547 149.775 179.785 148.742 178.804 148.032C177.844 147.323 176.728 146.968 175.455 146.968C174.182 146.968 173.055 147.323 172.075 148.032C171.115 148.742 170.364 149.775 169.821 151.131C169.279 152.487 169.007 154.125 169.007 156.045C169.007 157.965 169.279 159.603 169.821 160.959C170.364 162.315 171.115 163.348 172.075 164.058C173.055 164.767 174.182 165.122 175.455 165.122Z" fill="white"/>
<path d="M218.688 46.096C217.579 46.096 216.576 45.8507 215.68 45.36C214.795 44.8693 214.096 44.192 213.584 43.328C213.083 42.4533 212.832 41.4773 212.832 40.4C212.832 39.3227 213.083 38.352 213.584 37.488C214.096 36.6133 214.8 35.9307 215.696 35.44C216.592 34.9493 217.595 34.704 218.704 34.704C219.536 34.704 220.304 34.8427 221.008 35.12C221.712 35.3973 222.309 35.8027 222.8 36.336L222.048 37.088C221.173 36.2027 220.069 35.76 218.736 35.76C217.851 35.76 217.045 35.9627 216.32 36.368C215.595 36.7733 215.024 37.328 214.608 38.032C214.203 38.736 214 39.5253 214 40.4C214 41.2747 214.203 42.064 214.608 42.768C215.024 43.472 215.595 44.0267 216.32 44.432C217.045 44.8373 217.851 45.04 218.736 45.04C220.08 45.04 221.184 44.592 222.048 43.696L222.8 44.448C222.309 44.9813 221.707 45.392 220.992 45.68C220.288 45.9573 219.52 46.096 218.688 46.096ZM228.149 46.08C227.338 46.08 226.608 45.8987 225.957 45.536C225.306 45.1627 224.794 44.6507 224.421 44C224.048 43.3493 223.861 42.6133 223.861 41.792C223.861 40.9707 224.048 40.2347 224.421 39.584C224.794 38.9333 225.306 38.4267 225.957 38.064C226.608 37.7013 227.338 37.52 228.149 37.52C228.96 37.52 229.69 37.7013 230.341 38.064C230.992 38.4267 231.498 38.9333 231.861 39.584C232.234 40.2347 232.421 40.9707 232.421 41.792C232.421 42.6133 232.234 43.3493 231.861 44C231.498 44.6507 230.992 45.1627 230.341 45.536C229.69 45.8987 228.96 46.08 228.149 46.08ZM228.149 45.072C228.746 45.072 229.28 44.9387 229.749 44.672C230.229 44.3947 230.602 44.0053 230.869 43.504C231.136 43.0027 231.269 42.432 231.269 41.792C231.269 41.152 231.136 40.5813 230.869 40.08C230.602 39.5787 230.229 39.1947 229.749 38.928C229.28 38.6507 228.746 38.512 228.149 38.512C227.552 38.512 227.013 38.6507 226.533 38.928C226.064 39.1947 225.69 39.5787 225.413 40.08C225.146 40.5813 225.013 41.152 225.013 41.792C225.013 42.432 225.146 43.0027 225.413 43.504C225.69 44.0053 226.064 44.3947 226.533 44.672C227.013 44.9387 227.552 45.072 228.149 45.072ZM245.236 37.52C246.292 37.52 247.119 37.824 247.716 38.432C248.324 39.04 248.628 39.936 248.628 41.12V46H247.492V41.232C247.492 40.3573 247.279 39.6907 246.852 39.232C246.436 38.7733 245.844 38.544 245.076 38.544C244.202 38.544 243.514 38.816 243.012 39.36C242.511 39.8933 242.26 40.6347 242.26 41.584V46H241.124V41.232C241.124 40.3573 240.911 39.6907 240.484 39.232C240.068 38.7733 239.471 38.544 238.692 38.544C237.828 38.544 237.14 38.816 236.628 39.36C236.127 39.8933 235.876 40.6347 235.876 41.584V46H234.74V37.584H235.828V39.12C236.127 38.608 236.543 38.2133 237.076 37.936C237.61 37.6587 238.223 37.52 238.916 37.52C239.62 37.52 240.228 37.6693 240.74 37.968C241.263 38.2667 241.652 38.7093 241.908 39.296C242.218 38.7413 242.66 38.3093 243.236 38C243.823 37.68 244.49 37.52 245.236 37.52ZM262.205 37.52C263.261 37.52 264.088 37.824 264.685 38.432C265.293 39.04 265.597 39.936 265.597 41.12V46H264.461V41.232C264.461 40.3573 264.248 39.6907 263.821 39.232C263.405 38.7733 262.813 38.544 262.045 38.544C261.17 38.544 260.482 38.816 259.981 39.36C259.48 39.8933 259.229 40.6347 259.229 41.584V46H258.093V41.232C258.093 40.3573 257.88 39.6907 257.453 39.232C257.037 38.7733 256.44 38.544 255.661 38.544C254.797 38.544 254.109 38.816 253.597 39.36C253.096 39.8933 252.845 40.6347 252.845 41.584V46H251.709V37.584H252.797V39.12C253.096 38.608 253.512 38.2133 254.045 37.936C254.578 37.6587 255.192 37.52 255.885 37.52C256.589 37.52 257.197 37.6693 257.709 37.968C258.232 38.2667 258.621 38.7093 258.877 39.296C259.186 38.7413 259.629 38.3093 260.205 38C260.792 37.68 261.458 37.52 262.205 37.52ZM276.262 37.584V46H275.174V44.464C274.875 44.976 274.464 45.376 273.942 45.664C273.419 45.9413 272.822 46.08 272.15 46.08C271.051 46.08 270.182 45.776 269.542 45.168C268.912 44.5493 268.598 43.648 268.598 42.464V37.584H269.734V42.352C269.734 43.2373 269.952 43.9093 270.39 44.368C270.827 44.8267 271.451 45.056 272.262 45.056C273.147 45.056 273.846 44.7893 274.358 44.256C274.87 43.712 275.126 42.96 275.126 42V37.584H276.262ZM283.731 37.52C284.787 37.52 285.625 37.8293 286.243 38.448C286.873 39.056 287.187 39.9467 287.187 41.12V46H286.051V41.232C286.051 40.3573 285.833 39.6907 285.395 39.232C284.958 38.7733 284.334 38.544 283.523 38.544C282.617 38.544 281.897 38.816 281.363 39.36C280.841 39.8933 280.579 40.6347 280.579 41.584V46H279.443V37.584H280.531V39.136C280.841 38.624 281.267 38.2293 281.811 37.952C282.366 37.664 283.006 37.52 283.731 37.52ZM290.272 37.584H291.408V46H290.272V37.584ZM290.848 35.744C290.613 35.744 290.416 35.664 290.256 35.504C290.096 35.344 290.016 35.152 290.016 34.928C290.016 34.7147 290.096 34.528 290.256 34.368C290.416 34.208 290.613 34.128 290.848 34.128C291.082 34.128 291.28 34.208 291.44 34.368C291.6 34.5173 291.68 34.6987 291.68 34.912C291.68 35.1467 291.6 35.344 291.44 35.504C291.28 35.664 291.082 35.744 290.848 35.744ZM298.056 46.08C297.224 46.08 296.478 45.8987 295.816 45.536C295.166 45.1733 294.654 44.6667 294.28 44.016C293.907 43.3547 293.72 42.6133 293.72 41.792C293.72 40.9707 293.907 40.2347 294.28 39.584C294.654 38.9333 295.166 38.4267 295.816 38.064C296.478 37.7013 297.224 37.52 298.056 37.52C298.782 37.52 299.427 37.664 299.992 37.952C300.568 38.2293 301.022 38.64 301.352 39.184L300.504 39.76C300.227 39.344 299.875 39.0347 299.448 38.832C299.022 38.6187 298.558 38.512 298.056 38.512C297.448 38.512 296.899 38.6507 296.408 38.928C295.928 39.1947 295.55 39.5787 295.272 40.08C295.006 40.5813 294.872 41.152 294.872 41.792C294.872 42.4427 295.006 43.0187 295.272 43.52C295.55 44.0107 295.928 44.3947 296.408 44.672C296.899 44.9387 297.448 45.072 298.056 45.072C298.558 45.072 299.022 44.9707 299.448 44.768C299.875 44.5653 300.227 44.256 300.504 43.84L301.352 44.416C301.022 44.96 300.568 45.376 299.992 45.664C299.416 45.9413 298.771 46.08 298.056 46.08ZM306.528 37.52C307.627 37.52 308.469 37.7973 309.056 38.352C309.643 38.896 309.936 39.7067 309.936 40.784V46H308.848V44.688C308.592 45.1253 308.213 45.4667 307.712 45.712C307.221 45.9573 306.635 46.08 305.952 46.08C305.013 46.08 304.267 45.856 303.712 45.408C303.157 44.96 302.88 44.368 302.88 43.632C302.88 42.9173 303.136 42.3413 303.648 41.904C304.171 41.4667 304.997 41.248 306.128 41.248H308.8V40.736C308.8 40.0107 308.597 39.4613 308.192 39.088C307.787 38.704 307.195 38.512 306.416 38.512C305.883 38.512 305.371 38.6027 304.88 38.784C304.389 38.9547 303.968 39.1947 303.616 39.504L303.104 38.656C303.531 38.2933 304.043 38.016 304.64 37.824C305.237 37.6213 305.867 37.52 306.528 37.52ZM306.128 45.184C306.768 45.184 307.317 45.04 307.776 44.752C308.235 44.4533 308.576 44.0267 308.8 43.472V42.096H306.16C304.72 42.096 304 42.5973 304 43.6C304 44.0907 304.187 44.48 304.56 44.768C304.933 45.0453 305.456 45.184 306.128 45.184ZM317.454 45.488C317.24 45.68 316.974 45.8293 316.654 45.936C316.344 46.032 316.019 46.08 315.678 46.08C314.888 46.08 314.28 45.8667 313.854 45.44C313.427 45.0133 313.214 44.4107 313.214 43.632V38.544H311.71V37.584H313.214V35.744H314.35V37.584H316.91V38.544H314.35V43.568C314.35 44.0693 314.472 44.4533 314.718 44.72C314.974 44.976 315.336 45.104 315.806 45.104C316.04 45.104 316.264 45.0667 316.478 44.992C316.702 44.9173 316.894 44.8107 317.054 44.672L317.454 45.488ZM319.522 37.584H320.658V46H319.522V37.584ZM320.098 35.744C319.863 35.744 319.666 35.664 319.506 35.504C319.346 35.344 319.266 35.152 319.266 34.928C319.266 34.7147 319.346 34.528 319.506 34.368C319.666 34.208 319.863 34.128 320.098 34.128C320.332 34.128 320.53 34.208 320.69 34.368C320.85 34.5173 320.93 34.6987 320.93 34.912C320.93 35.1467 320.85 35.344 320.69 35.504C320.53 35.664 320.332 35.744 320.098 35.744ZM327.258 46.08C326.448 46.08 325.717 45.8987 325.066 45.536C324.416 45.1627 323.904 44.6507 323.53 44C323.157 43.3493 322.97 42.6133 322.97 41.792C322.97 40.9707 323.157 40.2347 323.53 39.584C323.904 38.9333 324.416 38.4267 325.066 38.064C325.717 37.7013 326.448 37.52 327.258 37.52C328.069 37.52 328.8 37.7013 329.45 38.064C330.101 38.4267 330.608 38.9333 330.97 39.584C331.344 40.2347 331.53 40.9707 331.53 41.792C331.53 42.6133 331.344 43.3493 330.97 44C330.608 44.6507 330.101 45.1627 329.45 45.536C328.8 45.8987 328.069 46.08 327.258 46.08ZM327.258 45.072C327.856 45.072 328.389 44.9387 328.858 44.672C329.338 44.3947 329.712 44.0053 329.978 43.504C330.245 43.0027 330.378 42.432 330.378 41.792C330.378 41.152 330.245 40.5813 329.978 40.08C329.712 39.5787 329.338 39.1947 328.858 38.928C328.389 38.6507 327.856 38.512 327.258 38.512C326.661 38.512 326.122 38.6507 325.642 38.928C325.173 39.1947 324.8 39.5787 324.522 40.08C324.256 40.5813 324.122 41.152 324.122 41.792C324.122 42.432 324.256 43.0027 324.522 43.504C324.8 44.0053 325.173 44.3947 325.642 44.672C326.122 44.9387 326.661 45.072 327.258 45.072ZM338.138 37.52C339.194 37.52 340.031 37.8293 340.65 38.448C341.279 39.056 341.594 39.9467 341.594 41.12V46H340.458V41.232C340.458 40.3573 340.239 39.6907 339.802 39.232C339.364 38.7733 338.74 38.544 337.93 38.544C337.023 38.544 336.303 38.816 335.77 39.36C335.247 39.8933 334.986 40.6347 334.986 41.584V46H333.85V37.584H334.938V39.136C335.247 38.624 335.674 38.2293 336.218 37.952C336.772 37.664 337.412 37.52 338.138 37.52ZM347.974 32.528H349.014L343.734 47.6H342.694L347.974 32.528ZM350.277 34.8H351.461V46H350.277V34.8ZM357.281 35.824H353.345V34.8H362.401V35.824H358.465V46H357.281V35.824ZM363.681 44.336C363.926 44.336 364.129 44.4213 364.289 44.592C364.449 44.752 364.529 44.9547 364.529 45.2C364.529 45.328 364.507 45.4667 364.465 45.616C364.433 45.7653 364.379 45.936 364.305 46.128L363.633 48.336H362.865L363.409 46.016C363.238 45.9627 363.099 45.8667 362.993 45.728C362.886 45.5787 362.833 45.4027 362.833 45.2C362.833 44.9547 362.913 44.752 363.073 44.592C363.233 44.4213 363.435 44.336 363.681 44.336ZM371.371 34.8H375.931C377.115 34.8 378.16 35.04 379.067 35.52C379.974 35.9893 380.678 36.6507 381.179 37.504C381.68 38.3467 381.931 39.312 381.931 40.4C381.931 41.488 381.68 42.4587 381.179 43.312C380.678 44.1547 379.974 44.816 379.067 45.296C378.16 45.7653 377.115 46 375.931 46H371.371V34.8ZM375.867 44.976C376.848 44.976 377.707 44.784 378.443 44.4C379.179 44.0053 379.75 43.4667 380.155 42.784C380.56 42.0907 380.763 41.296 380.763 40.4C380.763 39.504 380.56 38.7147 380.155 38.032C379.75 37.3387 379.179 36.8 378.443 36.416C377.707 36.0213 376.848 35.824 375.867 35.824H372.555V44.976H375.867ZM391.678 42.144H384.638C384.702 43.0187 385.038 43.728 385.646 44.272C386.254 44.8053 387.022 45.072 387.95 45.072C388.472 45.072 388.952 44.9813 389.39 44.8C389.827 44.608 390.206 44.3307 390.526 43.968L391.166 44.704C390.792 45.152 390.323 45.4933 389.758 45.728C389.203 45.9627 388.59 46.08 387.918 46.08C387.054 46.08 386.286 45.8987 385.614 45.536C384.952 45.1627 384.435 44.6507 384.062 44C383.688 43.3493 383.502 42.6133 383.502 41.792C383.502 40.9707 383.678 40.2347 384.03 39.584C384.392 38.9333 384.883 38.4267 385.502 38.064C386.131 37.7013 386.835 37.52 387.614 37.52C388.392 37.52 389.091 37.7013 389.71 38.064C390.328 38.4267 390.814 38.9333 391.166 39.584C391.518 40.224 391.694 40.96 391.694 41.792L391.678 42.144ZM387.614 38.496C386.803 38.496 386.12 38.7573 385.566 39.28C385.022 39.792 384.712 40.464 384.638 41.296H390.606C390.531 40.464 390.216 39.792 389.662 39.28C389.118 38.7573 388.435 38.496 387.614 38.496ZM396.262 46.08C395.579 46.08 394.923 45.984 394.294 45.792C393.675 45.5893 393.19 45.3387 392.838 45.04L393.35 44.144C393.702 44.4213 394.145 44.6507 394.678 44.832C395.211 45.0027 395.766 45.088 396.342 45.088C397.11 45.088 397.675 44.9707 398.038 44.736C398.411 44.4907 398.598 44.1493 398.598 43.712C398.598 43.4027 398.497 43.1627 398.294 42.992C398.091 42.8107 397.835 42.6773 397.526 42.592C397.217 42.496 396.806 42.4053 396.294 42.32C395.611 42.192 395.062 42.064 394.646 41.936C394.23 41.7973 393.873 41.568 393.574 41.248C393.286 40.928 393.142 40.4853 393.142 39.92C393.142 39.216 393.435 38.64 394.022 38.192C394.609 37.744 395.425 37.52 396.47 37.52C397.014 37.52 397.558 37.5947 398.102 37.744C398.646 37.8827 399.094 38.0693 399.446 38.304L398.95 39.216C398.257 38.736 397.43 38.496 396.47 38.496C395.745 38.496 395.195 38.624 394.822 38.88C394.459 39.136 394.278 39.472 394.278 39.888C394.278 40.208 394.379 40.464 394.582 40.656C394.795 40.848 395.057 40.992 395.366 41.088C395.675 41.1733 396.102 41.264 396.646 41.36C397.318 41.488 397.857 41.616 398.262 41.744C398.667 41.872 399.014 42.0907 399.302 42.4C399.59 42.7093 399.734 43.136 399.734 43.68C399.734 44.416 399.425 45.0027 398.806 45.44C398.198 45.8667 397.35 46.08 396.262 46.08ZM401.834 37.584H402.97V46H401.834V37.584ZM402.41 35.744C402.175 35.744 401.978 35.664 401.818 35.504C401.658 35.344 401.578 35.152 401.578 34.928C401.578 34.7147 401.658 34.528 401.818 34.368C401.978 34.208 402.175 34.128 402.41 34.128C402.645 34.128 402.842 34.208 403.002 34.368C403.162 34.5173 403.242 34.6987 403.242 34.912C403.242 35.1467 403.162 35.344 403.002 35.504C402.842 35.664 402.645 35.744 402.41 35.744ZM413.923 37.584V44.976C413.923 46.4053 413.571 47.4613 412.867 48.144C412.174 48.8373 411.123 49.184 409.715 49.184C408.936 49.184 408.195 49.0667 407.491 48.832C406.798 48.608 406.232 48.2933 405.795 47.888L406.371 47.024C406.776 47.3867 407.267 47.6693 407.843 47.872C408.43 48.0747 409.043 48.176 409.683 48.176C410.75 48.176 411.534 47.9253 412.035 47.424C412.536 46.9333 412.787 46.1653 412.787 45.12V44.048C412.435 44.5813 411.971 44.9867 411.395 45.264C410.83 45.5413 410.2 45.68 409.507 45.68C408.718 45.68 407.998 45.5093 407.347 45.168C406.707 44.816 406.2 44.3307 405.827 43.712C405.464 43.0827 405.283 42.3733 405.283 41.584C405.283 40.7947 405.464 40.0907 405.827 39.472C406.2 38.8533 406.707 38.3733 407.347 38.032C407.987 37.6907 408.707 37.52 409.507 37.52C410.222 37.52 410.867 37.664 411.443 37.952C412.019 38.24 412.483 38.656 412.835 39.2V37.584H413.923ZM409.619 44.672C410.227 44.672 410.776 44.544 411.267 44.288C411.758 44.0213 412.136 43.6533 412.403 43.184C412.68 42.7147 412.819 42.1813 412.819 41.584C412.819 40.9867 412.68 40.4587 412.403 40C412.136 39.5307 411.758 39.168 411.267 38.912C410.787 38.6453 410.238 38.512 409.619 38.512C409.011 38.512 408.462 38.64 407.971 38.896C407.491 39.152 407.112 39.5147 406.835 39.984C406.568 40.4533 406.435 40.9867 406.435 41.584C406.435 42.1813 406.568 42.7147 406.835 43.184C407.112 43.6533 407.491 44.0213 407.971 44.288C408.462 44.544 409.011 44.672 409.619 44.672ZM421.388 37.52C422.444 37.52 423.281 37.8293 423.9 38.448C424.529 39.056 424.844 39.9467 424.844 41.12V46H423.708V41.232C423.708 40.3573 423.489 39.6907 423.052 39.232C422.614 38.7733 421.99 38.544 421.18 38.544C420.273 38.544 419.553 38.816 419.02 39.36C418.497 39.8933 418.236 40.6347 418.236 41.584V46H417.1V37.584H418.188V39.136C418.497 38.624 418.924 38.2293 419.468 37.952C420.022 37.664 420.662 37.52 421.388 37.52ZM428.056 44.336C428.301 44.336 428.504 44.4213 428.664 44.592C428.824 44.752 428.904 44.9547 428.904 45.2C428.904 45.328 428.882 45.4667 428.84 45.616C428.808 45.7653 428.754 45.936 428.68 46.128L428.008 48.336H427.24L427.784 46.016C427.613 45.9627 427.474 45.8667 427.368 45.728C427.261 45.5787 427.208 45.4027 427.208 45.2C427.208 44.9547 427.288 44.752 427.448 44.592C427.608 44.4213 427.81 44.336 428.056 44.336ZM443.666 44.976V46H435.746V34.8H443.426V35.824H436.93V39.808H442.722V40.816H436.93V44.976H443.666ZM450.497 37.52C451.553 37.52 452.39 37.8293 453.009 38.448C453.638 39.056 453.953 39.9467 453.953 41.12V46H452.817V41.232C452.817 40.3573 452.598 39.6907 452.161 39.232C451.724 38.7733 451.1 38.544 450.289 38.544C449.382 38.544 448.662 38.816 448.129 39.36C447.606 39.8933 447.345 40.6347 447.345 41.584V46H446.209V37.584H447.297V39.136C447.606 38.624 448.033 38.2293 448.577 37.952C449.132 37.664 449.772 37.52 450.497 37.52ZM464.86 37.584V44.976C464.86 46.4053 464.508 47.4613 463.804 48.144C463.111 48.8373 462.06 49.184 460.652 49.184C459.874 49.184 459.132 49.0667 458.428 48.832C457.735 48.608 457.17 48.2933 456.732 47.888L457.308 47.024C457.714 47.3867 458.204 47.6693 458.78 47.872C459.367 48.0747 459.98 48.176 460.62 48.176C461.687 48.176 462.471 47.9253 462.972 47.424C463.474 46.9333 463.724 46.1653 463.724 45.12V44.048C463.372 44.5813 462.908 44.9867 462.332 45.264C461.767 45.5413 461.138 45.68 460.444 45.68C459.655 45.68 458.935 45.5093 458.284 45.168C457.644 44.816 457.138 44.3307 456.764 43.712C456.402 43.0827 456.22 42.3733 456.22 41.584C456.22 40.7947 456.402 40.0907 456.764 39.472C457.138 38.8533 457.644 38.3733 458.284 38.032C458.924 37.6907 459.644 37.52 460.444 37.52C461.159 37.52 461.804 37.664 462.38 37.952C462.956 38.24 463.42 38.656 463.772 39.2V37.584H464.86ZM460.556 44.672C461.164 44.672 461.714 44.544 462.204 44.288C462.695 44.0213 463.074 43.6533 463.34 43.184C463.618 42.7147 463.756 42.1813 463.756 41.584C463.756 40.9867 463.618 40.4587 463.34 40C463.074 39.5307 462.695 39.168 462.204 38.912C461.724 38.6453 461.175 38.512 460.556 38.512C459.948 38.512 459.399 38.64 458.908 38.896C458.428 39.152 458.05 39.5147 457.772 39.984C457.506 40.4533 457.372 40.9867 457.372 41.584C457.372 42.1813 457.506 42.7147 457.772 43.184C458.05 43.6533 458.428 44.0213 458.908 44.288C459.399 44.544 459.948 44.672 460.556 44.672ZM468.037 34.128H469.173V46H468.037V34.128ZM472.334 37.584H473.47V46H472.334V37.584ZM472.91 35.744C472.675 35.744 472.478 35.664 472.318 35.504C472.158 35.344 472.078 35.152 472.078 34.928C472.078 34.7147 472.158 34.528 472.318 34.368C472.478 34.208 472.675 34.128 472.91 34.128C473.145 34.128 473.342 34.208 473.502 34.368C473.662 34.5173 473.742 34.6987 473.742 34.912C473.742 35.1467 473.662 35.344 473.502 35.504C473.342 35.664 473.145 35.744 472.91 35.744ZM478.887 46.08C478.204 46.08 477.548 45.984 476.919 45.792C476.3 45.5893 475.815 45.3387 475.463 45.04L475.975 44.144C476.327 44.4213 476.77 44.6507 477.303 44.832C477.836 45.0027 478.391 45.088 478.967 45.088C479.735 45.088 480.3 44.9707 480.663 44.736C481.036 44.4907 481.223 44.1493 481.223 43.712C481.223 43.4027 481.122 43.1627 480.919 42.992C480.716 42.8107 480.46 42.6773 480.151 42.592C479.842 42.496 479.431 42.4053 478.919 42.32C478.236 42.192 477.687 42.064 477.271 41.936C476.855 41.7973 476.498 41.568 476.199 41.248C475.911 40.928 475.767 40.4853 475.767 39.92C475.767 39.216 476.06 38.64 476.647 38.192C477.234 37.744 478.05 37.52 479.095 37.52C479.639 37.52 480.183 37.5947 480.727 37.744C481.271 37.8827 481.719 38.0693 482.071 38.304L481.575 39.216C480.882 38.736 480.055 38.496 479.095 38.496C478.37 38.496 477.82 38.624 477.447 38.88C477.084 39.136 476.903 39.472 476.903 39.888C476.903 40.208 477.004 40.464 477.207 40.656C477.42 40.848 477.682 40.992 477.991 41.088C478.3 41.1733 478.727 41.264 479.271 41.36C479.943 41.488 480.482 41.616 480.887 41.744C481.292 41.872 481.639 42.0907 481.927 42.4C482.215 42.7093 482.359 43.136 482.359 43.68C482.359 44.416 482.05 45.0027 481.431 45.44C480.823 45.8667 479.975 46.08 478.887 46.08ZM488.747 37.52C489.803 37.52 490.64 37.8293 491.259 38.448C491.888 39.056 492.203 39.9467 492.203 41.12V46H491.067V41.232C491.067 40.3573 490.848 39.6907 490.411 39.232C489.974 38.7733 489.35 38.544 488.539 38.544C487.632 38.544 486.912 38.816 486.379 39.36C485.856 39.8933 485.595 40.6347 485.595 41.584V46H484.459V34.128H485.595V39.056C485.904 38.5653 486.331 38.1867 486.875 37.92C487.419 37.6533 488.043 37.52 488.747 37.52Z" fill="white"/>
<path d="M237.025 137.5V155H235.25V141L228.375 152.775H227.5L220.625 141.075V155H218.85V137.5H220.375L227.975 150.475L235.5 137.5H237.025ZM246.952 141.75C248.669 141.75 249.985 142.183 250.902 143.05C251.819 143.9 252.277 145.167 252.277 146.85V155H250.577V152.95C250.177 153.633 249.585 154.167 248.802 154.55C248.035 154.933 247.119 155.125 246.052 155.125C244.585 155.125 243.419 154.775 242.552 154.075C241.685 153.375 241.252 152.45 241.252 151.3C241.252 150.183 241.652 149.283 242.452 148.6C243.269 147.917 244.56 147.575 246.327 147.575H250.502V146.775C250.502 145.642 250.185 144.783 249.552 144.2C248.919 143.6 247.994 143.3 246.777 143.3C245.944 143.3 245.144 143.442 244.377 143.725C243.61 143.992 242.952 144.367 242.402 144.85L241.602 143.525C242.269 142.958 243.069 142.525 244.002 142.225C244.935 141.908 245.919 141.75 246.952 141.75ZM246.327 153.725C247.327 153.725 248.185 153.5 248.902 153.05C249.619 152.583 250.152 151.917 250.502 151.05V148.9H246.377C244.127 148.9 243.002 149.683 243.002 151.25C243.002 152.017 243.294 152.625 243.877 153.075C244.46 153.508 245.277 153.725 246.327 153.725ZM263.798 141.75C265.448 141.75 266.756 142.233 267.723 143.2C268.706 144.15 269.198 145.542 269.198 147.375V155H267.423V147.55C267.423 146.183 267.081 145.142 266.398 144.425C265.715 143.708 264.74 143.35 263.473 143.35C262.056 143.35 260.931 143.775 260.098 144.625C259.281 145.458 258.873 146.617 258.873 148.1V155H257.098V141.85H258.798V144.275C259.281 143.475 259.948 142.858 260.798 142.425C261.665 141.975 262.665 141.75 263.798 141.75ZM279.516 155.125C278.216 155.125 277.049 154.842 276.016 154.275C274.999 153.708 274.199 152.917 273.616 151.9C273.032 150.867 272.741 149.708 272.741 148.425C272.741 147.142 273.032 145.992 273.616 144.975C274.199 143.958 274.999 143.167 276.016 142.6C277.049 142.033 278.216 141.75 279.516 141.75C280.649 141.75 281.657 141.975 282.541 142.425C283.441 142.858 284.149 143.5 284.666 144.35L283.341 145.25C282.907 144.6 282.357 144.117 281.691 143.8C281.024 143.467 280.299 143.3 279.516 143.3C278.566 143.3 277.707 143.517 276.941 143.95C276.191 144.367 275.599 144.967 275.166 145.75C274.749 146.533 274.541 147.425 274.541 148.425C274.541 149.442 274.749 150.342 275.166 151.125C275.599 151.892 276.191 152.492 276.941 152.925C277.707 153.342 278.566 153.55 279.516 153.55C280.299 153.55 281.024 153.392 281.691 153.075C282.357 152.758 282.907 152.275 283.341 151.625L284.666 152.525C284.149 153.375 283.441 154.025 282.541 154.475C281.641 154.908 280.632 155.125 279.516 155.125ZM294.657 141.75C296.307 141.75 297.616 142.233 298.582 143.2C299.566 144.15 300.057 145.542 300.057 147.375V155H298.282V147.55C298.282 146.183 297.941 145.142 297.257 144.425C296.574 143.708 295.599 143.35 294.332 143.35C292.916 143.35 291.791 143.775 290.957 144.625C290.141 145.458 289.732 146.617 289.732 148.1V155H287.957V136.45H289.732V144.15C290.216 143.383 290.882 142.792 291.732 142.375C292.582 141.958 293.557 141.75 294.657 141.75ZM316.375 148.975H305.375C305.475 150.342 306 151.45 306.95 152.3C307.9 153.133 309.1 153.55 310.55 153.55C311.367 153.55 312.117 153.408 312.8 153.125C313.484 152.825 314.075 152.392 314.575 151.825L315.575 152.975C314.992 153.675 314.259 154.208 313.375 154.575C312.509 154.942 311.55 155.125 310.5 155.125C309.15 155.125 307.95 154.842 306.9 154.275C305.867 153.692 305.059 152.892 304.475 151.875C303.892 150.858 303.6 149.708 303.6 148.425C303.6 147.142 303.875 145.992 304.425 144.975C304.992 143.958 305.759 143.167 306.725 142.6C307.709 142.033 308.809 141.75 310.025 141.75C311.242 141.75 312.334 142.033 313.3 142.6C314.267 143.167 315.025 143.958 315.575 144.975C316.125 145.975 316.4 147.125 316.4 148.425L316.375 148.975ZM310.025 143.275C308.759 143.275 307.692 143.683 306.825 144.5C305.975 145.3 305.492 146.35 305.375 147.65H314.7C314.584 146.35 314.092 145.3 313.225 144.5C312.375 143.683 311.309 143.275 310.025 143.275ZM323.538 155.125C322.471 155.125 321.446 154.975 320.463 154.675C319.496 154.358 318.738 153.967 318.188 153.5L318.988 152.1C319.538 152.533 320.23 152.892 321.063 153.175C321.896 153.442 322.763 153.575 323.663 153.575C324.863 153.575 325.746 153.392 326.313 153.025C326.896 152.642 327.188 152.108 327.188 151.425C327.188 150.942 327.03 150.567 326.713 150.3C326.396 150.017 325.996 149.808 325.513 149.675C325.03 149.525 324.388 149.383 323.588 149.25C322.521 149.05 321.663 148.85 321.013 148.65C320.363 148.433 319.805 148.075 319.338 147.575C318.888 147.075 318.663 146.383 318.663 145.5C318.663 144.4 319.121 143.5 320.038 142.8C320.955 142.1 322.23 141.75 323.863 141.75C324.713 141.75 325.563 141.867 326.413 142.1C327.263 142.317 327.963 142.608 328.513 142.975L327.738 144.4C326.655 143.65 325.363 143.275 323.863 143.275C322.73 143.275 321.871 143.475 321.288 143.875C320.721 144.275 320.438 144.8 320.438 145.45C320.438 145.95 320.596 146.35 320.913 146.65C321.246 146.95 321.655 147.175 322.138 147.325C322.621 147.458 323.288 147.6 324.138 147.75C325.188 147.95 326.03 148.15 326.663 148.35C327.296 148.55 327.838 148.892 328.288 149.375C328.738 149.858 328.963 150.525 328.963 151.375C328.963 152.525 328.48 153.442 327.513 154.125C326.563 154.792 325.238 155.125 323.538 155.125ZM339.17 154.2C338.836 154.5 338.42 154.733 337.92 154.9C337.436 155.05 336.928 155.125 336.395 155.125C335.161 155.125 334.211 154.792 333.545 154.125C332.878 153.458 332.545 152.517 332.545 151.3V143.35H330.195V141.85H332.545V138.975H334.32V141.85H338.32V143.35H334.32V151.2C334.32 151.983 334.511 152.583 334.895 153C335.295 153.4 335.861 153.6 336.595 153.6C336.961 153.6 337.311 153.542 337.645 153.425C337.995 153.308 338.295 153.142 338.545 152.925L339.17 154.2ZM353.387 148.975H342.387C342.487 150.342 343.012 151.45 343.962 152.3C344.912 153.133 346.112 153.55 347.562 153.55C348.379 153.55 349.129 153.408 349.812 153.125C350.495 152.825 351.087 152.392 351.587 151.825L352.587 152.975C352.004 153.675 351.27 154.208 350.387 154.575C349.52 154.942 348.562 155.125 347.512 155.125C346.162 155.125 344.962 154.842 343.912 154.275C342.879 153.692 342.07 152.892 341.487 151.875C340.904 150.858 340.612 149.708 340.612 148.425C340.612 147.142 340.887 145.992 341.437 144.975C342.004 143.958 342.77 143.167 343.737 142.6C344.72 142.033 345.82 141.75 347.037 141.75C348.254 141.75 349.345 142.033 350.312 142.6C351.279 143.167 352.037 143.958 352.587 144.975C353.137 145.975 353.412 147.125 353.412 148.425L353.387 148.975ZM347.037 143.275C345.77 143.275 344.704 143.683 343.837 144.5C342.987 145.3 342.504 146.35 342.387 147.65H351.712C351.595 146.35 351.104 145.3 350.237 144.5C349.387 143.683 348.32 143.275 347.037 143.275ZM358.725 144.425C359.141 143.542 359.758 142.875 360.575 142.425C361.408 141.975 362.433 141.75 363.65 141.75V143.475L363.225 143.45C361.841 143.45 360.758 143.875 359.975 144.725C359.191 145.575 358.8 146.767 358.8 148.3V155H357.025V141.85H358.725V144.425ZM392.152 137.5V155H390.377V141L383.502 152.775H382.627L375.752 141.075V155H373.977V137.5H375.502L383.102 150.475L390.627 137.5H392.152ZM408.929 148.975H397.929C398.029 150.342 398.554 151.45 399.504 152.3C400.454 153.133 401.654 153.55 403.104 153.55C403.921 153.55 404.671 153.408 405.354 153.125C406.037 152.825 406.629 152.392 407.129 151.825L408.129 152.975C407.546 153.675 406.812 154.208 405.929 154.575C405.062 154.942 404.104 155.125 403.054 155.125C401.704 155.125 400.504 154.842 399.454 154.275C398.421 153.692 397.612 152.892 397.029 151.875C396.446 150.858 396.154 149.708 396.154 148.425C396.154 147.142 396.429 145.992 396.979 144.975C397.546 143.958 398.312 143.167 399.279 142.6C400.262 142.033 401.362 141.75 402.579 141.75C403.796 141.75 404.887 142.033 405.854 142.6C406.821 143.167 407.579 143.958 408.129 144.975C408.679 145.975 408.954 147.125 408.954 148.425L408.929 148.975ZM402.579 143.275C401.312 143.275 400.246 143.683 399.379 144.5C398.529 145.3 398.046 146.35 397.929 147.65H407.254C407.137 146.35 406.646 145.3 405.779 144.5C404.929 143.683 403.862 143.275 402.579 143.275ZM419.492 154.2C419.158 154.5 418.742 154.733 418.242 154.9C417.758 155.05 417.25 155.125 416.717 155.125C415.483 155.125 414.533 154.792 413.867 154.125C413.2 153.458 412.867 152.517 412.867 151.3V143.35H410.517V141.85H412.867V138.975H414.642V141.85H418.642V143.35H414.642V151.2C414.642 151.983 414.833 152.583 415.217 153C415.617 153.4 416.183 153.6 416.917 153.6C417.283 153.6 417.633 153.542 417.967 153.425C418.317 153.308 418.617 153.142 418.867 152.925L419.492 154.2ZM424.423 144.425C424.84 143.542 425.456 142.875 426.273 142.425C427.106 141.975 428.131 141.75 429.348 141.75V143.475L428.923 143.45C427.54 143.45 426.456 143.875 425.673 144.725C424.89 145.575 424.498 146.767 424.498 148.3V155H422.723V141.85H424.423V144.425ZM437.815 155.125C436.548 155.125 435.407 154.842 434.39 154.275C433.373 153.692 432.573 152.892 431.99 151.875C431.407 150.858 431.115 149.708 431.115 148.425C431.115 147.142 431.407 145.992 431.99 144.975C432.573 143.958 433.373 143.167 434.39 142.6C435.407 142.033 436.548 141.75 437.815 141.75C439.082 141.75 440.223 142.033 441.24 142.6C442.257 143.167 443.048 143.958 443.615 144.975C444.198 145.992 444.49 147.142 444.49 148.425C444.49 149.708 444.198 150.858 443.615 151.875C443.048 152.892 442.257 153.692 441.24 154.275C440.223 154.842 439.082 155.125 437.815 155.125ZM437.815 153.55C438.748 153.55 439.582 153.342 440.315 152.925C441.065 152.492 441.648 151.883 442.065 151.1C442.482 150.317 442.69 149.425 442.69 148.425C442.69 147.425 442.482 146.533 442.065 145.75C441.648 144.967 441.065 144.367 440.315 143.95C439.582 143.517 438.748 143.3 437.815 143.3C436.882 143.3 436.04 143.517 435.29 143.95C434.557 144.367 433.973 144.967 433.54 145.75C433.123 146.533 432.915 147.425 432.915 148.425C432.915 149.425 433.123 150.317 433.54 151.1C433.973 151.883 434.557 152.492 435.29 152.925C436.04 153.342 436.882 153.55 437.815 153.55ZM454.889 141.75C456.122 141.75 457.239 142.033 458.239 142.6C459.239 143.15 460.022 143.933 460.589 144.95C461.155 145.967 461.439 147.125 461.439 148.425C461.439 149.742 461.155 150.908 460.589 151.925C460.022 152.942 459.239 153.733 458.239 154.3C457.255 154.85 456.139 155.125 454.889 155.125C453.822 155.125 452.855 154.908 451.989 154.475C451.139 154.025 450.439 153.375 449.889 152.525V159.85H448.114V141.85H449.814V144.45C450.347 143.583 451.047 142.917 451.914 142.45C452.797 141.983 453.789 141.75 454.889 141.75ZM454.764 153.55C455.68 153.55 456.514 153.342 457.264 152.925C458.014 152.492 458.597 151.883 459.014 151.1C459.447 150.317 459.664 149.425 459.664 148.425C459.664 147.425 459.447 146.542 459.014 145.775C458.597 144.992 458.014 144.383 457.264 143.95C456.514 143.517 455.68 143.3 454.764 143.3C453.83 143.3 452.989 143.517 452.239 143.95C451.505 144.383 450.922 144.992 450.489 145.775C450.072 146.542 449.864 147.425 449.864 148.425C449.864 149.425 450.072 150.317 450.489 151.1C450.922 151.883 451.505 152.492 452.239 152.925C452.989 153.342 453.83 153.55 454.764 153.55ZM470.432 155.125C469.165 155.125 468.024 154.842 467.007 154.275C465.99 153.692 465.19 152.892 464.607 151.875C464.024 150.858 463.732 149.708 463.732 148.425C463.732 147.142 464.024 145.992 464.607 144.975C465.19 143.958 465.99 143.167 467.007 142.6C468.024 142.033 469.165 141.75 470.432 141.75C471.699 141.75 472.84 142.033 473.857 142.6C474.874 143.167 475.665 143.958 476.232 144.975C476.815 145.992 477.107 147.142 477.107 148.425C477.107 149.708 476.815 150.858 476.232 151.875C475.665 152.892 474.874 153.692 473.857 154.275C472.84 154.842 471.699 155.125 470.432 155.125ZM470.432 153.55C471.365 153.55 472.199 153.342 472.932 152.925C473.682 152.492 474.265 151.883 474.682 151.1C475.099 150.317 475.307 149.425 475.307 148.425C475.307 147.425 475.099 146.533 474.682 145.75C474.265 144.967 473.682 144.367 472.932 143.95C472.199 143.517 471.365 143.3 470.432 143.3C469.499 143.3 468.657 143.517 467.907 143.95C467.174 144.367 466.59 144.967 466.157 145.75C465.74 146.533 465.532 147.425 465.532 148.425C465.532 149.425 465.74 150.317 466.157 151.1C466.59 151.883 467.174 152.492 467.907 152.925C468.657 153.342 469.499 153.55 470.432 153.55ZM480.731 136.45H482.506V155H480.731V136.45ZM487.445 141.85H489.22V155H487.445V141.85ZM488.345 138.975C487.978 138.975 487.67 138.85 487.42 138.6C487.17 138.35 487.045 138.05 487.045 137.7C487.045 137.367 487.17 137.075 487.42 136.825C487.67 136.575 487.978 136.45 488.345 136.45C488.711 136.45 489.02 136.575 489.27 136.825C489.52 137.058 489.645 137.342 489.645 137.675C489.645 138.042 489.52 138.35 489.27 138.6C489.02 138.85 488.711 138.975 488.345 138.975ZM501.084 154.2C500.75 154.5 500.334 154.733 499.834 154.9C499.35 155.05 498.842 155.125 498.309 155.125C497.075 155.125 496.125 154.792 495.459 154.125C494.792 153.458 494.459 152.517 494.459 151.3V143.35H492.109V141.85H494.459V138.975H496.234V141.85H500.234V143.35H496.234V151.2C496.234 151.983 496.425 152.583 496.809 153C497.209 153.4 497.775 153.6 498.509 153.6C498.875 153.6 499.225 153.542 499.559 153.425C499.909 153.308 500.209 153.142 500.459 152.925L501.084 154.2ZM508.915 141.75C510.632 141.75 511.948 142.183 512.865 143.05C513.782 143.9 514.24 145.167 514.24 146.85V155H512.54V152.95C512.14 153.633 511.548 154.167 510.765 154.55C509.998 154.933 509.082 155.125 508.015 155.125C506.548 155.125 505.382 154.775 504.515 154.075C503.648 153.375 503.215 152.45 503.215 151.3C503.215 150.183 503.615 149.283 504.415 148.6C505.232 147.917 506.523 147.575 508.29 147.575H512.465V146.775C512.465 145.642 512.148 144.783 511.515 144.2C510.882 143.6 509.957 143.3 508.74 143.3C507.907 143.3 507.107 143.442 506.34 143.725C505.573 143.992 504.915 144.367 504.365 144.85L503.565 143.525C504.232 142.958 505.032 142.525 505.965 142.225C506.898 141.908 507.882 141.75 508.915 141.75ZM508.29 153.725C509.29 153.725 510.148 153.5 510.865 153.05C511.582 152.583 512.115 151.917 512.465 151.05V148.9H508.34C506.09 148.9 504.965 149.683 504.965 151.25C504.965 152.017 505.257 152.625 505.84 153.075C506.423 153.508 507.24 153.725 508.29 153.725ZM525.761 141.75C527.411 141.75 528.719 142.233 529.686 143.2C530.669 144.15 531.161 145.542 531.161 147.375V155H529.386V147.55C529.386 146.183 529.044 145.142 528.361 144.425C527.678 143.708 526.703 143.35 525.436 143.35C524.019 143.35 522.894 143.775 522.061 144.625C521.244 145.458 520.836 146.617 520.836 148.1V155H519.061V141.85H520.761V144.275C521.244 143.475 521.911 142.858 522.761 142.425C523.628 141.975 524.628 141.75 525.761 141.75ZM549.948 155.15C547.681 155.15 545.915 154.5 544.648 153.2C543.381 151.9 542.748 150.008 542.748 147.525V137.5H544.598V147.45C544.598 149.483 545.056 151 545.973 152C546.89 153 548.215 153.5 549.948 153.5C551.698 153.5 553.031 153 553.948 152C554.865 151 555.323 149.483 555.323 147.45V137.5H557.123V147.525C557.123 150.008 556.49 151.9 555.223 153.2C553.973 154.5 552.215 155.15 549.948 155.15ZM569.023 141.75C570.673 141.75 571.981 142.233 572.948 143.2C573.931 144.15 574.423 145.542 574.423 147.375V155H572.648V147.55C572.648 146.183 572.306 145.142 571.623 144.425C570.939 143.708 569.964 143.35 568.698 143.35C567.281 143.35 566.156 143.775 565.323 144.625C564.506 145.458 564.098 146.617 564.098 148.1V155H562.323V141.85H564.023V144.275C564.506 143.475 565.173 142.858 566.023 142.425C566.889 141.975 567.889 141.75 569.023 141.75ZM579.242 141.85H581.017V155H579.242V141.85ZM580.142 138.975C579.775 138.975 579.467 138.85 579.217 138.6C578.967 138.35 578.842 138.05 578.842 137.7C578.842 137.367 578.967 137.075 579.217 136.825C579.467 136.575 579.775 136.45 580.142 136.45C580.508 136.45 580.817 136.575 581.067 136.825C581.317 137.058 581.442 137.342 581.442 137.675C581.442 138.042 581.317 138.35 581.067 138.6C580.817 138.85 580.508 138.975 580.142 138.975ZM597.005 141.85L591.155 155H589.33L583.505 141.85H585.355L590.28 153.05L595.255 141.85H597.005ZM610.589 148.975H599.589C599.689 150.342 600.214 151.45 601.164 152.3C602.114 153.133 603.314 153.55 604.764 153.55C605.581 153.55 606.331 153.408 607.014 153.125C607.697 152.825 608.289 152.392 608.789 151.825L609.789 152.975C609.206 153.675 608.472 154.208 607.589 154.575C606.722 154.942 605.764 155.125 604.714 155.125C603.364 155.125 602.164 154.842 601.114 154.275C600.081 153.692 599.272 152.892 598.689 151.875C598.106 150.858 597.814 149.708 597.814 148.425C597.814 147.142 598.089 145.992 598.639 144.975C599.206 143.958 599.972 143.167 600.939 142.6C601.922 142.033 603.022 141.75 604.239 141.75C605.456 141.75 606.547 142.033 607.514 142.6C608.481 143.167 609.239 143.958 609.789 144.975C610.339 145.975 610.614 147.125 610.614 148.425L610.589 148.975ZM604.239 143.275C602.972 143.275 601.906 143.683 601.039 144.5C600.189 145.3 599.706 146.35 599.589 147.65H608.914C608.797 146.35 608.306 145.3 607.439 144.5C606.589 143.683 605.522 143.275 604.239 143.275ZM615.927 144.425C616.344 143.542 616.96 142.875 617.777 142.425C618.61 141.975 619.635 141.75 620.852 141.75V143.475L620.427 143.45C619.044 143.45 617.96 143.875 617.177 144.725C616.394 145.575 616.002 146.767 616.002 148.3V155H614.227V141.85H615.927V144.425ZM627.688 155.125C626.622 155.125 625.597 154.975 624.613 154.675C623.647 154.358 622.888 153.967 622.338 153.5L623.138 152.1C623.688 152.533 624.38 152.892 625.213 153.175C626.047 153.442 626.913 153.575 627.813 153.575C629.013 153.575 629.897 153.392 630.463 153.025C631.047 152.642 631.338 152.108 631.338 151.425C631.338 150.942 631.18 150.567 630.863 150.3C630.547 150.017 630.147 149.808 629.663 149.675C629.18 149.525 628.538 149.383 627.738 149.25C626.672 149.05 625.813 148.85 625.163 148.65C624.513 148.433 623.955 148.075 623.488 147.575C623.038 147.075 622.813 146.383 622.813 145.5C622.813 144.4 623.272 143.5 624.188 142.8C625.105 142.1 626.38 141.75 628.013 141.75C628.863 141.75 629.713 141.867 630.563 142.1C631.413 142.317 632.113 142.608 632.663 142.975L631.888 144.4C630.805 143.65 629.513 143.275 628.013 143.275C626.88 143.275 626.022 143.475 625.438 143.875C624.872 144.275 624.588 144.8 624.588 145.45C624.588 145.95 624.747 146.35 625.063 146.65C625.397 146.95 625.805 147.175 626.288 147.325C626.772 147.458 627.438 147.6 628.288 147.75C629.338 147.95 630.18 148.15 630.813 148.35C631.447 148.55 631.988 148.892 632.438 149.375C632.888 149.858 633.113 150.525 633.113 151.375C633.113 152.525 632.63 153.442 631.663 154.125C630.713 154.792 629.388 155.125 627.688 155.125ZM636.395 141.85H638.17V155H636.395V141.85ZM637.295 138.975C636.928 138.975 636.62 138.85 636.37 138.6C636.12 138.35 635.995 138.05 635.995 137.7C635.995 137.367 636.12 137.075 636.37 136.825C636.62 136.575 636.928 136.45 637.295 136.45C637.662 136.45 637.97 136.575 638.22 136.825C638.47 137.058 638.595 137.342 638.595 137.675C638.595 138.042 638.47 138.35 638.22 138.6C637.97 138.85 637.662 138.975 637.295 138.975ZM650.034 154.2C649.7 154.5 649.284 154.733 648.784 154.9C648.3 155.05 647.792 155.125 647.259 155.125C646.025 155.125 645.075 154.792 644.409 154.125C643.742 153.458 643.409 152.517 643.409 151.3V143.35H641.059V141.85H643.409V138.975H645.184V141.85H649.184V143.35H645.184V151.2C645.184 151.983 645.375 152.583 645.759 153C646.159 153.4 646.725 153.6 647.459 153.6C647.825 153.6 648.175 153.542 648.509 153.425C648.859 153.308 649.159 153.142 649.409 152.925L650.034 154.2ZM664.071 141.85L657.496 156.575C656.963 157.808 656.346 158.683 655.646 159.2C654.946 159.717 654.104 159.975 653.121 159.975C652.488 159.975 651.896 159.875 651.346 159.675C650.796 159.475 650.321 159.175 649.921 158.775L650.746 157.45C651.413 158.117 652.213 158.45 653.146 158.45C653.746 158.45 654.254 158.283 654.671 157.95C655.104 157.617 655.504 157.05 655.871 156.25L656.446 154.975L650.571 141.85H652.421L657.371 153.025L662.321 141.85H664.071Z" fill="white"/>
<path d="M217.824 165.8H222.384C223.568 165.8 224.613 166.04 225.52 166.52C226.427 166.989 227.131 167.651 227.632 168.504C228.133 169.347 228.384 170.312 228.384 171.4C228.384 172.488 228.133 173.459 227.632 174.312C227.131 175.155 226.427 175.816 225.52 176.296C224.613 176.765 223.568 177 222.384 177H217.824V165.8ZM222.32 175.976C223.301 175.976 224.16 175.784 224.896 175.4C225.632 175.005 226.203 174.467 226.608 173.784C227.013 173.091 227.216 172.296 227.216 171.4C227.216 170.504 227.013 169.715 226.608 169.032C226.203 168.339 225.632 167.8 224.896 167.416C224.16 167.021 223.301 166.824 222.32 166.824H219.008V175.976H222.32ZM230.803 168.584H231.939V177H230.803V168.584ZM231.379 166.744C231.144 166.744 230.947 166.664 230.787 166.504C230.627 166.344 230.547 166.152 230.547 165.928C230.547 165.715 230.627 165.528 230.787 165.368C230.947 165.208 231.144 165.128 231.379 165.128C231.613 165.128 231.811 165.208 231.971 165.368C232.131 165.517 232.211 165.699 232.211 165.912C232.211 166.147 232.131 166.344 231.971 166.504C231.811 166.664 231.613 166.744 231.379 166.744ZM242.892 168.584V175.976C242.892 177.405 242.54 178.461 241.836 179.144C241.142 179.837 240.092 180.184 238.684 180.184C237.905 180.184 237.164 180.067 236.46 179.832C235.766 179.608 235.201 179.293 234.764 178.888L235.34 178.024C235.745 178.387 236.236 178.669 236.812 178.872C237.398 179.075 238.012 179.176 238.652 179.176C239.718 179.176 240.502 178.925 241.004 178.424C241.505 177.933 241.756 177.165 241.756 176.12V175.048C241.404 175.581 240.94 175.987 240.364 176.264C239.798 176.541 239.169 176.68 238.476 176.68C237.686 176.68 236.966 176.509 236.316 176.168C235.676 175.816 235.169 175.331 234.796 174.712C234.433 174.083 234.252 173.373 234.252 172.584C234.252 171.795 234.433 171.091 234.796 170.472C235.169 169.853 235.676 169.373 236.316 169.032C236.956 168.691 237.676 168.52 238.476 168.52C239.19 168.52 239.836 168.664 240.412 168.952C240.988 169.24 241.452 169.656 241.804 170.2V168.584H242.892ZM238.588 175.672C239.196 175.672 239.745 175.544 240.236 175.288C240.726 175.021 241.105 174.653 241.372 174.184C241.649 173.715 241.788 173.181 241.788 172.584C241.788 171.987 241.649 171.459 241.372 171C241.105 170.531 240.726 170.168 240.236 169.912C239.756 169.645 239.206 169.512 238.588 169.512C237.98 169.512 237.43 169.64 236.94 169.896C236.46 170.152 236.081 170.515 235.804 170.984C235.537 171.453 235.404 171.987 235.404 172.584C235.404 173.181 235.537 173.715 235.804 174.184C236.081 174.653 236.46 175.021 236.94 175.288C237.43 175.544 237.98 175.672 238.588 175.672ZM246.068 168.584H247.204V177H246.068V168.584ZM246.644 166.744C246.41 166.744 246.212 166.664 246.052 166.504C245.892 166.344 245.812 166.152 245.812 165.928C245.812 165.715 245.892 165.528 246.052 165.368C246.212 165.208 246.41 165.128 246.644 165.128C246.879 165.128 247.076 165.208 247.236 165.368C247.396 165.517 247.476 165.699 247.476 165.912C247.476 166.147 247.396 166.344 247.236 166.504C247.076 166.664 246.879 166.744 246.644 166.744ZM254.797 176.488C254.584 176.68 254.317 176.829 253.997 176.936C253.688 177.032 253.363 177.08 253.021 177.08C252.232 177.08 251.624 176.867 251.197 176.44C250.771 176.013 250.557 175.411 250.557 174.632V169.544H249.053V168.584H250.557V166.744H251.693V168.584H254.253V169.544H251.693V174.568C251.693 175.069 251.816 175.453 252.061 175.72C252.317 175.976 252.68 176.104 253.149 176.104C253.384 176.104 253.608 176.067 253.821 175.992C254.045 175.917 254.237 175.811 254.397 175.672L254.797 176.488ZM259.809 168.52C260.908 168.52 261.751 168.797 262.337 169.352C262.924 169.896 263.217 170.707 263.217 171.784V177H262.129V175.688C261.873 176.125 261.495 176.467 260.993 176.712C260.503 176.957 259.916 177.08 259.233 177.08C258.295 177.08 257.548 176.856 256.993 176.408C256.439 175.96 256.161 175.368 256.161 174.632C256.161 173.917 256.417 173.341 256.929 172.904C257.452 172.467 258.279 172.248 259.409 172.248H262.081V171.736C262.081 171.011 261.879 170.461 261.473 170.088C261.068 169.704 260.476 169.512 259.697 169.512C259.164 169.512 258.652 169.603 258.161 169.784C257.671 169.955 257.249 170.195 256.897 170.504L256.385 169.656C256.812 169.293 257.324 169.016 257.921 168.824C258.519 168.621 259.148 168.52 259.809 168.52ZM259.409 176.184C260.049 176.184 260.599 176.04 261.057 175.752C261.516 175.453 261.857 175.027 262.081 174.472V173.096H259.441C258.001 173.096 257.281 173.597 257.281 174.6C257.281 175.091 257.468 175.48 257.841 175.768C258.215 176.045 258.737 176.184 259.409 176.184ZM266.303 165.128H267.439V177H266.303V165.128ZM286.659 165.8V177H285.523V168.04L281.123 175.576H280.563L276.163 168.088V177H275.027V165.8H276.003L280.867 174.104L285.683 165.8H286.659ZM297.396 173.144H290.356C290.42 174.019 290.756 174.728 291.364 175.272C291.972 175.805 292.74 176.072 293.668 176.072C294.191 176.072 294.671 175.981 295.108 175.8C295.546 175.608 295.924 175.331 296.244 174.968L296.884 175.704C296.511 176.152 296.042 176.493 295.476 176.728C294.922 176.963 294.308 177.08 293.636 177.08C292.772 177.08 292.004 176.899 291.332 176.536C290.671 176.163 290.154 175.651 289.78 175C289.407 174.349 289.22 173.613 289.22 172.792C289.22 171.971 289.396 171.235 289.748 170.584C290.111 169.933 290.602 169.427 291.22 169.064C291.85 168.701 292.554 168.52 293.332 168.52C294.111 168.52 294.81 168.701 295.428 169.064C296.047 169.427 296.532 169.933 296.884 170.584C297.236 171.224 297.412 171.96 297.412 172.792L297.396 173.144ZM293.332 169.496C292.522 169.496 291.839 169.757 291.284 170.28C290.74 170.792 290.431 171.464 290.356 172.296H296.324C296.25 171.464 295.935 170.792 295.38 170.28C294.836 169.757 294.154 169.496 293.332 169.496ZM307.405 165.128V177H306.317V175.336C305.975 175.901 305.522 176.333 304.957 176.632C304.402 176.931 303.773 177.08 303.069 177.08C302.279 177.08 301.565 176.899 300.925 176.536C300.285 176.173 299.783 175.667 299.421 175.016C299.058 174.365 298.877 173.624 298.877 172.792C298.877 171.96 299.058 171.219 299.421 170.568C299.783 169.917 300.285 169.416 300.925 169.064C301.565 168.701 302.279 168.52 303.069 168.52C303.751 168.52 304.365 168.664 304.909 168.952C305.463 169.229 305.917 169.64 306.269 170.184V165.128H307.405ZM303.165 176.072C303.751 176.072 304.279 175.939 304.749 175.672C305.229 175.395 305.602 175.005 305.869 174.504C306.146 174.003 306.285 173.432 306.285 172.792C306.285 172.152 306.146 171.581 305.869 171.08C305.602 170.579 305.229 170.195 304.749 169.928C304.279 169.651 303.751 169.512 303.165 169.512C302.567 169.512 302.029 169.651 301.549 169.928C301.079 170.195 300.706 170.579 300.429 171.08C300.162 171.581 300.029 172.152 300.029 172.792C300.029 173.432 300.162 174.003 300.429 174.504C300.706 175.005 301.079 175.395 301.549 175.672C302.029 175.939 302.567 176.072 303.165 176.072ZM310.568 168.584H311.704V177H310.568V168.584ZM311.144 166.744C310.91 166.744 310.712 166.664 310.552 166.504C310.392 166.344 310.312 166.152 310.312 165.928C310.312 165.715 310.392 165.528 310.552 165.368C310.712 165.208 310.91 165.128 311.144 165.128C311.379 165.128 311.576 165.208 311.736 165.368C311.896 165.517 311.976 165.699 311.976 165.912C311.976 166.147 311.896 166.344 311.736 166.504C311.576 166.664 311.379 166.744 311.144 166.744ZM317.809 168.52C318.908 168.52 319.751 168.797 320.337 169.352C320.924 169.896 321.217 170.707 321.217 171.784V177H320.129V175.688C319.873 176.125 319.495 176.467 318.993 176.712C318.503 176.957 317.916 177.08 317.233 177.08C316.295 177.08 315.548 176.856 314.993 176.408C314.439 175.96 314.161 175.368 314.161 174.632C314.161 173.917 314.417 173.341 314.929 172.904C315.452 172.467 316.279 172.248 317.409 172.248H320.081V171.736C320.081 171.011 319.879 170.461 319.473 170.088C319.068 169.704 318.476 169.512 317.697 169.512C317.164 169.512 316.652 169.603 316.161 169.784C315.671 169.955 315.249 170.195 314.897 170.504L314.385 169.656C314.812 169.293 315.324 169.016 315.921 168.824C316.519 168.621 317.148 168.52 317.809 168.52ZM317.409 176.184C318.049 176.184 318.599 176.04 319.057 175.752C319.516 175.453 319.857 175.027 320.081 174.472V173.096H317.441C316.001 173.096 315.281 173.597 315.281 174.6C315.281 175.091 315.468 175.48 315.841 175.768C316.215 176.045 316.737 176.184 317.409 176.184ZM331.434 168.52C332.533 168.52 333.376 168.797 333.962 169.352C334.549 169.896 334.842 170.707 334.842 171.784V177H333.754V175.688C333.498 176.125 333.12 176.467 332.618 176.712C332.128 176.957 331.541 177.08 330.858 177.08C329.92 177.08 329.173 176.856 328.618 176.408C328.064 175.96 327.786 175.368 327.786 174.632C327.786 173.917 328.042 173.341 328.554 172.904C329.077 172.467 329.904 172.248 331.034 172.248H333.706V171.736C333.706 171.011 333.504 170.461 333.098 170.088C332.693 169.704 332.101 169.512 331.322 169.512C330.789 169.512 330.277 169.603 329.786 169.784C329.296 169.955 328.874 170.195 328.522 170.504L328.01 169.656C328.437 169.293 328.949 169.016 329.546 168.824C330.144 168.621 330.773 168.52 331.434 168.52ZM331.034 176.184C331.674 176.184 332.224 176.04 332.682 175.752C333.141 175.453 333.482 175.027 333.706 174.472V173.096H331.066C329.626 173.096 328.906 173.597 328.906 174.6C328.906 175.091 329.093 175.48 329.466 175.768C329.84 176.045 330.362 176.184 331.034 176.184ZM342.216 168.52C343.272 168.52 344.109 168.829 344.728 169.448C345.357 170.056 345.672 170.947 345.672 172.12V177H344.536V172.232C344.536 171.357 344.317 170.691 343.88 170.232C343.442 169.773 342.818 169.544 342.008 169.544C341.101 169.544 340.381 169.816 339.848 170.36C339.325 170.893 339.064 171.635 339.064 172.584V177H337.928V168.584H339.016V170.136C339.325 169.624 339.752 169.229 340.296 168.952C340.85 168.664 341.49 168.52 342.216 168.52ZM356.467 165.128V177H355.379V175.336C355.038 175.901 354.584 176.333 354.019 176.632C353.464 176.931 352.835 177.08 352.131 177.08C351.342 177.08 350.627 176.899 349.987 176.536C349.347 176.173 348.846 175.667 348.483 175.016C348.12 174.365 347.939 173.624 347.939 172.792C347.939 171.96 348.12 171.219 348.483 170.568C348.846 169.917 349.347 169.416 349.987 169.064C350.627 168.701 351.342 168.52 352.131 168.52C352.814 168.52 353.427 168.664 353.971 168.952C354.526 169.229 354.979 169.64 355.331 170.184V165.128H356.467ZM352.227 176.072C352.814 176.072 353.342 175.939 353.811 175.672C354.291 175.395 354.664 175.005 354.931 174.504C355.208 174.003 355.347 173.432 355.347 172.792C355.347 172.152 355.208 171.581 354.931 171.08C354.664 170.579 354.291 170.195 353.811 169.928C353.342 169.651 352.814 169.512 352.227 169.512C351.63 169.512 351.091 169.651 350.611 169.928C350.142 170.195 349.768 170.579 349.491 171.08C349.224 171.581 349.091 172.152 349.091 172.792C349.091 173.432 349.224 174.003 349.491 174.504C349.768 175.005 350.142 175.395 350.611 175.672C351.091 175.939 351.63 176.072 352.227 176.072ZM368.922 177.096C367.813 177.096 366.81 176.851 365.914 176.36C365.029 175.869 364.33 175.192 363.818 174.328C363.317 173.453 363.066 172.477 363.066 171.4C363.066 170.323 363.317 169.352 363.818 168.488C364.33 167.613 365.034 166.931 365.93 166.44C366.826 165.949 367.829 165.704 368.938 165.704C369.77 165.704 370.538 165.843 371.242 166.12C371.946 166.397 372.544 166.803 373.034 167.336L372.282 168.088C371.408 167.203 370.304 166.76 368.97 166.76C368.085 166.76 367.28 166.963 366.554 167.368C365.829 167.773 365.258 168.328 364.842 169.032C364.437 169.736 364.234 170.525 364.234 171.4C364.234 172.275 364.437 173.064 364.842 173.768C365.258 174.472 365.829 175.027 366.554 175.432C367.28 175.837 368.085 176.04 368.97 176.04C370.314 176.04 371.418 175.592 372.282 174.696L373.034 175.448C372.544 175.981 371.941 176.392 371.226 176.68C370.522 176.957 369.754 177.096 368.922 177.096ZM378.383 177.08C377.573 177.08 376.842 176.899 376.191 176.536C375.541 176.163 375.029 175.651 374.655 175C374.282 174.349 374.095 173.613 374.095 172.792C374.095 171.971 374.282 171.235 374.655 170.584C375.029 169.933 375.541 169.427 376.191 169.064C376.842 168.701 377.573 168.52 378.383 168.52C379.194 168.52 379.925 168.701 380.575 169.064C381.226 169.427 381.733 169.933 382.095 170.584C382.469 171.235 382.655 171.971 382.655 172.792C382.655 173.613 382.469 174.349 382.095 175C381.733 175.651 381.226 176.163 380.575 176.536C379.925 176.899 379.194 177.08 378.383 177.08ZM378.383 176.072C378.981 176.072 379.514 175.939 379.983 175.672C380.463 175.395 380.837 175.005 381.103 174.504C381.37 174.003 381.503 173.432 381.503 172.792C381.503 172.152 381.37 171.581 381.103 171.08C380.837 170.579 380.463 170.195 379.983 169.928C379.514 169.651 378.981 169.512 378.383 169.512C377.786 169.512 377.247 169.651 376.767 169.928C376.298 170.195 375.925 170.579 375.647 171.08C375.381 171.581 375.247 172.152 375.247 172.792C375.247 173.432 375.381 174.003 375.647 174.504C375.925 175.005 376.298 175.395 376.767 175.672C377.247 175.939 377.786 176.072 378.383 176.072ZM395.471 168.52C396.527 168.52 397.353 168.824 397.951 169.432C398.559 170.04 398.863 170.936 398.863 172.12V177H397.727V172.232C397.727 171.357 397.513 170.691 397.087 170.232C396.671 169.773 396.079 169.544 395.311 169.544C394.436 169.544 393.748 169.816 393.247 170.36C392.745 170.893 392.495 171.635 392.495 172.584V177H391.359V172.232C391.359 171.357 391.145 170.691 390.719 170.232C390.303 169.773 389.705 169.544 388.927 169.544C388.063 169.544 387.375 169.816 386.863 170.36C386.361 170.893 386.111 171.635 386.111 172.584V177H384.975V168.584H386.063V170.12C386.361 169.608 386.777 169.213 387.311 168.936C387.844 168.659 388.457 168.52 389.151 168.52C389.855 168.52 390.463 168.669 390.975 168.968C391.497 169.267 391.887 169.709 392.143 170.296C392.452 169.741 392.895 169.309 393.471 169C394.057 168.68 394.724 168.52 395.471 168.52ZM412.439 168.52C413.495 168.52 414.322 168.824 414.919 169.432C415.527 170.04 415.831 170.936 415.831 172.12V177H414.695V172.232C414.695 171.357 414.482 170.691 414.055 170.232C413.639 169.773 413.047 169.544 412.279 169.544C411.405 169.544 410.717 169.816 410.215 170.36C409.714 170.893 409.463 171.635 409.463 172.584V177H408.327V172.232C408.327 171.357 408.114 170.691 407.687 170.232C407.271 169.773 406.674 169.544 405.895 169.544C405.031 169.544 404.343 169.816 403.831 170.36C403.33 170.893 403.079 171.635 403.079 172.584V177H401.943V168.584H403.031V170.12C403.33 169.608 403.746 169.213 404.279 168.936C404.813 168.659 405.426 168.52 406.119 168.52C406.823 168.52 407.431 168.669 407.943 168.968C408.466 169.267 408.855 169.709 409.111 170.296C409.421 169.741 409.863 169.309 410.439 169C411.026 168.68 411.693 168.52 412.439 168.52ZM426.496 168.584V177H425.408V175.464C425.109 175.976 424.699 176.376 424.176 176.664C423.653 176.941 423.056 177.08 422.384 177.08C421.285 177.08 420.416 176.776 419.776 176.168C419.147 175.549 418.832 174.648 418.832 173.464V168.584H419.968V173.352C419.968 174.237 420.187 174.909 420.624 175.368C421.061 175.827 421.685 176.056 422.496 176.056C423.381 176.056 424.08 175.789 424.592 175.256C425.104 174.712 425.36 173.96 425.36 173V168.584H426.496ZM433.966 168.52C435.022 168.52 435.859 168.829 436.478 169.448C437.107 170.056 437.422 170.947 437.422 172.12V177H436.286V172.232C436.286 171.357 436.067 170.691 435.63 170.232C435.192 169.773 434.568 169.544 433.758 169.544C432.851 169.544 432.131 169.816 431.598 170.36C431.075 170.893 430.814 171.635 430.814 172.584V177H429.678V168.584H430.766V170.136C431.075 169.624 431.502 169.229 432.046 168.952C432.6 168.664 433.24 168.52 433.966 168.52ZM440.506 168.584H441.642V177H440.506V168.584ZM441.082 166.744C440.847 166.744 440.65 166.664 440.49 166.504C440.33 166.344 440.25 166.152 440.25 165.928C440.25 165.715 440.33 165.528 440.49 165.368C440.65 165.208 440.847 165.128 441.082 165.128C441.317 165.128 441.514 165.208 441.674 165.368C441.834 165.517 441.914 165.699 441.914 165.912C441.914 166.147 441.834 166.344 441.674 166.504C441.514 166.664 441.317 166.744 441.082 166.744ZM448.291 177.08C447.459 177.08 446.712 176.899 446.051 176.536C445.4 176.173 444.888 175.667 444.515 175.016C444.141 174.355 443.955 173.613 443.955 172.792C443.955 171.971 444.141 171.235 444.515 170.584C444.888 169.933 445.4 169.427 446.051 169.064C446.712 168.701 447.459 168.52 448.291 168.52C449.016 168.52 449.661 168.664 450.227 168.952C450.803 169.229 451.256 169.64 451.587 170.184L450.739 170.76C450.461 170.344 450.109 170.035 449.683 169.832C449.256 169.619 448.792 169.512 448.291 169.512C447.683 169.512 447.133 169.651 446.643 169.928C446.163 170.195 445.784 170.579 445.507 171.08C445.24 171.581 445.107 172.152 445.107 172.792C445.107 173.443 445.24 174.019 445.507 174.52C445.784 175.011 446.163 175.395 446.643 175.672C447.133 175.939 447.683 176.072 448.291 176.072C448.792 176.072 449.256 175.971 449.683 175.768C450.109 175.565 450.461 175.256 450.739 174.84L451.587 175.416C451.256 175.96 450.803 176.376 450.227 176.664C449.651 176.941 449.005 177.08 448.291 177.08ZM456.762 168.52C457.861 168.52 458.704 168.797 459.29 169.352C459.877 169.896 460.17 170.707 460.17 171.784V177H459.082V175.688C458.826 176.125 458.448 176.467 457.946 176.712C457.456 176.957 456.869 177.08 456.186 177.08C455.248 177.08 454.501 176.856 453.946 176.408C453.392 175.96 453.114 175.368 453.114 174.632C453.114 173.917 453.37 173.341 453.882 172.904C454.405 172.467 455.232 172.248 456.362 172.248H459.034V171.736C459.034 171.011 458.832 170.461 458.426 170.088C458.021 169.704 457.429 169.512 456.65 169.512C456.117 169.512 455.605 169.603 455.114 169.784C454.624 169.955 454.202 170.195 453.85 170.504L453.338 169.656C453.765 169.293 454.277 169.016 454.874 168.824C455.472 168.621 456.101 168.52 456.762 168.52ZM456.362 176.184C457.002 176.184 457.552 176.04 458.01 175.752C458.469 175.453 458.81 175.027 459.034 174.472V173.096H456.394C454.954 173.096 454.234 173.597 454.234 174.6C454.234 175.091 454.421 175.48 454.794 175.768C455.168 176.045 455.69 176.184 456.362 176.184ZM467.688 176.488C467.475 176.68 467.208 176.829 466.888 176.936C466.579 177.032 466.253 177.08 465.912 177.08C465.123 177.08 464.515 176.867 464.088 176.44C463.661 176.013 463.448 175.411 463.448 174.632V169.544H461.944V168.584H463.448V166.744H464.584V168.584H467.144V169.544H464.584V174.568C464.584 175.069 464.707 175.453 464.952 175.72C465.208 175.976 465.571 176.104 466.04 176.104C466.275 176.104 466.499 176.067 466.712 175.992C466.936 175.917 467.128 175.811 467.288 175.672L467.688 176.488ZM469.756 168.584H470.892V177H469.756V168.584ZM470.332 166.744C470.097 166.744 469.9 166.664 469.74 166.504C469.58 166.344 469.5 166.152 469.5 165.928C469.5 165.715 469.58 165.528 469.74 165.368C469.9 165.208 470.097 165.128 470.332 165.128C470.567 165.128 470.764 165.208 470.924 165.368C471.084 165.517 471.164 165.699 471.164 165.912C471.164 166.147 471.084 166.344 470.924 166.504C470.764 166.664 470.567 166.744 470.332 166.744ZM477.493 177.08C476.682 177.08 475.951 176.899 475.301 176.536C474.65 176.163 474.138 175.651 473.765 175C473.391 174.349 473.205 173.613 473.205 172.792C473.205 171.971 473.391 171.235 473.765 170.584C474.138 169.933 474.65 169.427 475.301 169.064C475.951 168.701 476.682 168.52 477.493 168.52C478.303 168.52 479.034 168.701 479.685 169.064C480.335 169.427 480.842 169.933 481.205 170.584C481.578 171.235 481.765 171.971 481.765 172.792C481.765 173.613 481.578 174.349 481.205 175C480.842 175.651 480.335 176.163 479.685 176.536C479.034 176.899 478.303 177.08 477.493 177.08ZM477.493 176.072C478.09 176.072 478.623 175.939 479.093 175.672C479.573 175.395 479.946 175.005 480.213 174.504C480.479 174.003 480.613 173.432 480.613 172.792C480.613 172.152 480.479 171.581 480.213 171.08C479.946 170.579 479.573 170.195 479.093 169.928C478.623 169.651 478.09 169.512 477.493 169.512C476.895 169.512 476.357 169.651 475.877 169.928C475.407 170.195 475.034 170.579 474.757 171.08C474.49 171.581 474.357 172.152 474.357 172.792C474.357 173.432 474.49 174.003 474.757 174.504C475.034 175.005 475.407 175.395 475.877 175.672C476.357 175.939 476.895 176.072 477.493 176.072ZM488.372 168.52C489.428 168.52 490.265 168.829 490.884 169.448C491.513 170.056 491.828 170.947 491.828 172.12V177H490.692V172.232C490.692 171.357 490.473 170.691 490.036 170.232C489.599 169.773 488.975 169.544 488.164 169.544C487.257 169.544 486.537 169.816 486.004 170.36C485.481 170.893 485.22 171.635 485.22 172.584V177H484.084V168.584H485.172V170.136C485.481 169.624 485.908 169.229 486.452 168.952C487.007 168.664 487.647 168.52 488.372 168.52ZM497.168 177.08C496.485 177.08 495.829 176.984 495.2 176.792C494.581 176.589 494.096 176.339 493.744 176.04L494.256 175.144C494.608 175.421 495.051 175.651 495.584 175.832C496.117 176.003 496.672 176.088 497.248 176.088C498.016 176.088 498.581 175.971 498.944 175.736C499.317 175.491 499.504 175.149 499.504 174.712C499.504 174.403 499.403 174.163 499.2 173.992C498.997 173.811 498.741 173.677 498.432 173.592C498.123 173.496 497.712 173.405 497.2 173.32C496.517 173.192 495.968 173.064 495.552 172.936C495.136 172.797 494.779 172.568 494.48 172.248C494.192 171.928 494.048 171.485 494.048 170.92C494.048 170.216 494.341 169.64 494.928 169.192C495.515 168.744 496.331 168.52 497.376 168.52C497.92 168.52 498.464 168.595 499.008 168.744C499.552 168.883 500 169.069 500.352 169.304L499.856 170.216C499.163 169.736 498.336 169.496 497.376 169.496C496.651 169.496 496.101 169.624 495.728 169.88C495.365 170.136 495.184 170.472 495.184 170.888C495.184 171.208 495.285 171.464 495.488 171.656C495.701 171.848 495.963 171.992 496.272 172.088C496.581 172.173 497.008 172.264 497.552 172.36C498.224 172.488 498.763 172.616 499.168 172.744C499.573 172.872 499.92 173.091 500.208 173.4C500.496 173.709 500.64 174.136 500.64 174.68C500.64 175.416 500.331 176.003 499.712 176.44C499.104 176.867 498.256 177.08 497.168 177.08Z" fill="white"/>
<rect x="9" y="6" width="2" height="300" fill="white"/>
<path d="M155.875 280.5L149.975 298H148.025L142.9 283.075L137.75 298H135.825L129.925 280.5H131.825L136.875 295.55L142.1 280.5H143.825L148.975 295.625L154.1 280.5H155.875ZM165.958 284.75C167.608 284.75 168.917 285.233 169.883 286.2C170.867 287.15 171.358 288.542 171.358 290.375V298H169.583V290.55C169.583 289.183 169.242 288.142 168.558 287.425C167.875 286.708 166.9 286.35 165.633 286.35C164.217 286.35 163.092 286.775 162.258 287.625C161.442 288.458 161.033 289.617 161.033 291.1V298H159.258V279.45H161.033V287.15C161.517 286.383 162.183 285.792 163.033 285.375C163.883 284.958 164.858 284.75 165.958 284.75ZM180.777 284.75C182.494 284.75 183.81 285.183 184.727 286.05C185.644 286.9 186.102 288.167 186.102 289.85V298H184.402V295.95C184.002 296.633 183.41 297.167 182.627 297.55C181.86 297.933 180.944 298.125 179.877 298.125C178.41 298.125 177.244 297.775 176.377 297.075C175.51 296.375 175.077 295.45 175.077 294.3C175.077 293.183 175.477 292.283 176.277 291.6C177.094 290.917 178.385 290.575 180.152 290.575H184.327V289.775C184.327 288.642 184.01 287.783 183.377 287.2C182.744 286.6 181.819 286.3 180.602 286.3C179.769 286.3 178.969 286.442 178.202 286.725C177.435 286.992 176.777 287.367 176.227 287.85L175.427 286.525C176.094 285.958 176.894 285.525 177.827 285.225C178.76 284.908 179.744 284.75 180.777 284.75ZM180.152 296.725C181.152 296.725 182.01 296.5 182.727 296.05C183.444 295.583 183.977 294.917 184.327 294.05V291.9H180.202C177.952 291.9 176.827 292.683 176.827 294.25C176.827 295.017 177.119 295.625 177.702 296.075C178.285 296.508 179.102 296.725 180.152 296.725ZM197.848 297.2C197.515 297.5 197.098 297.733 196.598 297.9C196.115 298.05 195.607 298.125 195.073 298.125C193.84 298.125 192.89 297.792 192.223 297.125C191.557 296.458 191.223 295.517 191.223 294.3V286.35H188.873V284.85H191.223V281.975H192.998V284.85H196.998V286.35H192.998V294.2C192.998 294.983 193.19 295.583 193.573 296C193.973 296.4 194.54 296.6 195.273 296.6C195.64 296.6 195.99 296.542 196.323 296.425C196.673 296.308 196.973 296.142 197.223 295.925L197.848 297.2ZM201.279 279.325C201.663 279.325 201.979 279.458 202.229 279.725C202.479 279.975 202.604 280.292 202.604 280.675C202.604 280.875 202.571 281.092 202.504 281.325C202.454 281.542 202.379 281.8 202.279 282.1L201.204 285.55H200.004L200.879 281.95C200.596 281.867 200.371 281.717 200.204 281.5C200.038 281.267 199.954 280.992 199.954 280.675C199.954 280.275 200.079 279.95 200.329 279.7C200.579 279.45 200.896 279.325 201.279 279.325ZM209.512 298.125C208.445 298.125 207.42 297.975 206.437 297.675C205.47 297.358 204.712 296.967 204.162 296.5L204.962 295.1C205.512 295.533 206.203 295.892 207.037 296.175C207.87 296.442 208.737 296.575 209.637 296.575C210.837 296.575 211.72 296.392 212.287 296.025C212.87 295.642 213.162 295.108 213.162 294.425C213.162 293.942 213.003 293.567 212.687 293.3C212.37 293.017 211.97 292.808 211.487 292.675C211.003 292.525 210.362 292.383 209.562 292.25C208.495 292.05 207.637 291.85 206.987 291.65C206.337 291.433 205.778 291.075 205.312 290.575C204.862 290.075 204.637 289.383 204.637 288.5C204.637 287.4 205.095 286.5 206.012 285.8C206.928 285.1 208.203 284.75 209.837 284.75C210.687 284.75 211.537 284.867 212.387 285.1C213.237 285.317 213.937 285.608 214.487 285.975L213.712 287.4C212.628 286.65 211.337 286.275 209.837 286.275C208.703 286.275 207.845 286.475 207.262 286.875C206.695 287.275 206.412 287.8 206.412 288.45C206.412 288.95 206.57 289.35 206.887 289.65C207.22 289.95 207.628 290.175 208.112 290.325C208.595 290.458 209.262 290.6 210.112 290.75C211.162 290.95 212.003 291.15 212.637 291.35C213.27 291.55 213.812 291.892 214.262 292.375C214.712 292.858 214.937 293.525 214.937 294.375C214.937 295.525 214.453 296.442 213.487 297.125C212.537 297.792 211.212 298.125 209.512 298.125ZM231.461 284.75C233.111 284.75 234.419 285.233 235.386 286.2C236.369 287.15 236.861 288.542 236.861 290.375V298H235.086V290.55C235.086 289.183 234.744 288.142 234.061 287.425C233.378 286.708 232.403 286.35 231.136 286.35C229.719 286.35 228.594 286.775 227.761 287.625C226.944 288.458 226.536 289.617 226.536 291.1V298H224.761V284.85H226.461V287.275C226.944 286.475 227.611 285.858 228.461 285.425C229.328 284.975 230.328 284.75 231.461 284.75ZM253.179 291.975H242.179C242.279 293.342 242.804 294.45 243.754 295.3C244.704 296.133 245.904 296.55 247.354 296.55C248.171 296.55 248.921 296.408 249.604 296.125C250.287 295.825 250.879 295.392 251.379 294.825L252.379 295.975C251.796 296.675 251.062 297.208 250.179 297.575C249.312 297.942 248.354 298.125 247.304 298.125C245.954 298.125 244.754 297.842 243.704 297.275C242.671 296.692 241.862 295.892 241.279 294.875C240.696 293.858 240.404 292.708 240.404 291.425C240.404 290.142 240.679 288.992 241.229 287.975C241.796 286.958 242.562 286.167 243.529 285.6C244.512 285.033 245.612 284.75 246.829 284.75C248.046 284.75 249.137 285.033 250.104 285.6C251.071 286.167 251.829 286.958 252.379 287.975C252.929 288.975 253.204 290.125 253.204 291.425L253.179 291.975ZM246.829 286.275C245.562 286.275 244.496 286.683 243.629 287.5C242.779 288.3 242.296 289.35 242.179 290.65H251.504C251.387 289.35 250.896 288.3 250.029 287.5C249.179 286.683 248.112 286.275 246.829 286.275ZM264.826 298L260.651 292.5L256.451 298H254.451L259.651 291.25L254.701 284.85H256.701L260.651 290L264.601 284.85H266.551L261.601 291.25L266.851 298H264.826ZM276.73 297.2C276.397 297.5 275.98 297.733 275.48 297.9C274.997 298.05 274.488 298.125 273.955 298.125C272.722 298.125 271.772 297.792 271.105 297.125C270.438 296.458 270.105 295.517 270.105 294.3V286.35H267.755V284.85H270.105V281.975H271.88V284.85H275.88V286.35H271.88V294.2C271.88 294.983 272.072 295.583 272.455 296C272.855 296.4 273.422 296.6 274.155 296.6C274.522 296.6 274.872 296.542 275.205 296.425C275.555 296.308 275.855 296.142 276.105 295.925L276.73 297.2ZM282.922 292.75C282.922 292.067 283.03 291.467 283.247 290.95C283.48 290.433 283.764 289.992 284.097 289.625C284.43 289.258 284.864 288.842 285.397 288.375C286.114 287.742 286.639 287.192 286.972 286.725C287.322 286.242 287.497 285.658 287.497 284.975C287.497 284.058 287.139 283.325 286.422 282.775C285.705 282.208 284.722 281.925 283.472 281.925C281.405 281.925 279.814 282.6 278.697 283.95L277.372 282.95C278.789 281.217 280.864 280.35 283.597 280.35C285.347 280.35 286.739 280.742 287.772 281.525C288.822 282.308 289.347 283.367 289.347 284.7C289.347 285.383 289.23 285.992 288.997 286.525C288.78 287.042 288.505 287.483 288.172 287.85C287.855 288.217 287.43 288.642 286.897 289.125C286.18 289.775 285.647 290.358 285.297 290.875C284.947 291.375 284.772 292 284.772 292.75H282.922ZM283.847 298.125C283.48 298.125 283.172 298 282.922 297.75C282.672 297.483 282.547 297.175 282.547 296.825C282.547 296.458 282.672 296.158 282.922 295.925C283.172 295.675 283.48 295.55 283.847 295.55C284.23 295.55 284.547 295.675 284.797 295.925C285.047 296.158 285.172 296.458 285.172 296.825C285.172 297.175 285.039 297.483 284.772 297.75C284.522 298 284.214 298.125 283.847 298.125Z" fill="white"/>
<rect x="1" y="278" width="18" height="18" rx="9" fill="white" stroke="#222222" stroke-width="2"/>
<rect x="1" y="147" width="18" height="18" rx="9" fill="white" stroke="#222222" stroke-width="2"/>
<rect x="1" y="16" width="18" height="18" rx="9" fill="white" stroke="#222222" stroke-width="2"/>
</svg>
